<svg xmlns="http://www.w3.org/2000/svg" xmlns:xlink="http://www.w3.org/1999/xlink" width="86.511" height="80.781" viewBox="0 0 86.511 80.781">
  <defs>
    <clipPath id="clip-path">
      <rect id="Rectangle_104-2" data-name="Rectangle 104-2" width="86.511" height="80.781" rx="15" transform="translate(7751.933 -772.907)" fill="#f7941d"/>
    </clipPath>
    <linearGradient id="linear-gradient" x1="-427.873" y1="55.4" x2="-427.867" y2="55.4" gradientUnits="objectBoundingBox">
      <stop offset="0" stop-color="#ffd26d"/>
      <stop offset="1" stop-color="#ffc412"/>
    </linearGradient>
    <linearGradient id="linear-gradient-2" x1="-1358.173" y1="596.325" x2="-1357.826" y2="596.325" xlink:href="#linear-gradient">
      <stop offset="0" stop-color="#ffd26d"/>
      <stop offset="1" stop-color="#ffc412"/>
    </linearGradient>
    <linearGradient id="linear-gradient-3" x1="-493.669" y1="62.353" x2="-493.66" y2="62.353" xlink:href="#linear-gradient">
      <stop offset="0" stop-color="#ffd26d"/>
      <stop offset="1" stop-color="#ffc412"/>
    </linearGradient>
    <linearGradient id="linear-gradient-4" x1="-1358.205" y1="566.565" x2="-1357.908" y2="566.565" xlink:href="#linear-gradient">
      <stop offset="0" stop-color="#ffd26d"/>
      <stop offset="1" stop-color="#ffc412"/>
    </linearGradient>
    <linearGradient id="linear-gradient-5" x1="-328.518" y1="45.156" x2="-328.515" y2="45.156" xlink:href="#linear-gradient">
      <stop offset="0" stop-color="#ffd26d"/>
      <stop offset="1" stop-color="#ffc412"/>
    </linearGradient>
    <linearGradient id="linear-gradient-6" x1="-380.744" y1="50.81" x2="-380.738" y2="50.81" xlink:href="#linear-gradient">
      <stop offset="0" stop-color="#ffd26d"/>
      <stop offset="1" stop-color="#ffc412"/>
    </linearGradient>
    <linearGradient id="linear-gradient-7" x1="-502.629" y1="73.607" x2="-502.619" y2="73.607" xlink:href="#linear-gradient">
      <stop offset="0" stop-color="#ffd26d"/>
      <stop offset="1" stop-color="#ffc412"/>
    </linearGradient>
    <linearGradient id="linear-gradient-8" x1="-577.6" y1="82.822" x2="-577.587" y2="82.822" xlink:href="#linear-gradient">
      <stop offset="0" stop-color="#ffd26d"/>
      <stop offset="1" stop-color="#ffc412"/>
    </linearGradient>
  </defs>
  <g id="Group_393" data-name="Group 393" transform="translate(-3274.037 -1083.021)">
    <g id="Group_362" data-name="Group 362" transform="translate(-4477.896 1855.928)" clip-path="url(#clip-path)">
      <rect id="Rectangle_104-2-2" data-name="Rectangle 104-2" width="86.511" height="80.781" rx="15" transform="translate(7751.933 -772.907)" fill="#f7941d"/>
      <g id="Group_361" data-name="Group 361">
        <line id="Line_13-2" data-name="Line 13-2" x1="4.921" y2="4.921" transform="translate(7746.142 -699.787)" fill="none" stroke="#ffc933" stroke-linecap="round" stroke-linejoin="round" stroke-width="1.153"/>
        <line id="Line_14-2" data-name="Line 14-2" x1="5.247" y2="5.247" transform="translate(7753.241 -707.211)" fill="none" stroke="#ffc933" stroke-linecap="round" stroke-linejoin="round" stroke-width="1.153"/>
        <line id="Line_19-2" data-name="Line 19-2" x1="10.402" y2="10.402" transform="translate(7748.116 -700.23)" fill="none" stroke="#ffc933" stroke-linecap="round" stroke-linejoin="round" stroke-width="1.153"/>
        <line id="Line_20-2" data-name="Line 20-2" x1="2.416" y2="2.416" transform="translate(7760.695 -704.824)" fill="none" stroke="#ffc933" stroke-linecap="round" stroke-linejoin="round" stroke-width="1.153"/>
        <line id="Line_23-2" data-name="Line 23-2" x1="3.51" y2="3.51" transform="translate(7752.121 -692.668)" fill="none" stroke="#ffc933" stroke-linecap="round" stroke-linejoin="round" stroke-width="1.153"/>
        <line id="Line_24-2" data-name="Line 24-2" x1="6.818" y2="6.818" transform="translate(7758.181 -702.037)" fill="none" stroke="#ffc933" stroke-linecap="round" stroke-linejoin="round" stroke-width="1.153"/>
        <line id="Line_27-2" data-name="Line 27-2" x1="1.844" y2="1.844" transform="translate(7757.646 -691.854)" fill="none" stroke="#ffc933" stroke-linecap="round" stroke-linejoin="round" stroke-width="1.153"/>
        <line id="Line_28-2" data-name="Line 28-2" x1="4.676" y2="4.676" transform="translate(7761.599 -698.637)" fill="none" stroke="#ffc933" stroke-linecap="round" stroke-linejoin="round" stroke-width="1.153"/>
        <g id="Group_269-3" data-name="Group 269-3">
          <line id="Line_9-2" data-name="Line 9-2" x1="0.808" y2="0.808" transform="translate(7749.343 -703.549)" fill="none" stroke="#fff" stroke-linecap="round" stroke-linejoin="round" stroke-width="1"/>
          <line id="Line_10-2" data-name="Line 10-2" x1="1.485" y2="1.485" transform="translate(7751.439 -706.322)" fill="none" stroke="#fff" stroke-linecap="round" stroke-linejoin="round" stroke-width="1"/>
          <line id="Line_11-2" data-name="Line 11-2" x1="5.593" y2="5.593" transform="translate(7747.152 -703.806)" fill="none" stroke="#fff" stroke-linecap="round" stroke-linejoin="round" stroke-width="1"/>
          <line id="Line_12-2" data-name="Line 12-2" x1="1.134" y2="1.134" transform="translate(7754.462 -706.658)" fill="none" stroke="#fff" stroke-linecap="round" stroke-linejoin="round" stroke-width="1"/>
          <line id="Line_15-2" data-name="Line 15-2" x1="8.686" y2="8.686" transform="translate(7748.026 -703.098)" fill="none" stroke="#fff" stroke-linecap="round" stroke-linejoin="round" stroke-width="1"/>
          <line id="Line_16-2" data-name="Line 16-2" x1="1.839" y2="1.839" transform="translate(7758.464 -706.689)" fill="none" stroke="#fff" stroke-linecap="round" stroke-linejoin="round" stroke-width="1"/>
          <line id="Line_17-2" data-name="Line 17-2" x1="2.088" y2="2.088" transform="translate(7749.79 -695.927)" fill="none" stroke="#fff" stroke-linecap="round" stroke-linejoin="round" stroke-width="1"/>
          <line id="Line_18-2" data-name="Line 18-2" x1="10.648" y2="10.648" transform="translate(7754.073 -708.77)" fill="none" stroke="#fff" stroke-linecap="round" stroke-linejoin="round" stroke-width="1"/>
          <line id="Line_21-2" data-name="Line 21-2" x1="6.72" y2="6.72" transform="translate(7752.116 -698.211)" fill="none" stroke="#fff" stroke-linecap="round" stroke-linejoin="round" stroke-width="1"/>
          <line id="Line_22-2" data-name="Line 22-2" x1="4.965" y2="4.965" transform="translate(7760.731 -705.07)" fill="none" stroke="#fff" stroke-linecap="round" stroke-linejoin="round" stroke-width="1"/>
          <line id="Line_25-2" data-name="Line 25-2" x1="4.741" y2="4.741" transform="translate(7756.627 -696.068)" fill="none" stroke="#fff" stroke-linecap="round" stroke-linejoin="round" stroke-width="1"/>
          <line id="Line_26-2" data-name="Line 26-2" x1="3.546" y2="3.546" transform="translate(7763.227 -701.474)" fill="none" stroke="#fff" stroke-linecap="round" stroke-linejoin="round" stroke-width="1"/>
          <line id="Line_29-2" data-name="Line 29-2" x1="1.133" y2="1.133" transform="translate(7761.653 -692.813)" fill="none" stroke="#fff" stroke-linecap="round" stroke-linejoin="round" stroke-width="1"/>
          <line id="Line_30-2" data-name="Line 30-2" x1="0.782" y2="0.782" transform="translate(7763.996 -694.802)" fill="none" stroke="#fff" stroke-linecap="round" stroke-linejoin="round" stroke-width="1"/>
        </g>
      </g>
    </g>
    <path id="Path_319-2" data-name="Path 319-2" d="M7827.9-706.135a1.568,1.568,0,0,0-.324-.278,1.585,1.585,0,0,0-.537-.221,1.657,1.657,0,0,0-.322-.032h-4.027a1.582,1.582,0,0,0-1.582,1.582v4.563a1.509,1.509,0,0,0,.015.216,1.6,1.6,0,0,0,.135.457,1.605,1.605,0,0,0,.334.469l1.344,1.3.508.49.161.155a1.582,1.582,0,0,0,2.195,0l2.013-1.942a1.581,1.581,0,0,0,.484-1.138v-4.564A1.573,1.573,0,0,0,7827.9-706.135Zm-.145,4.459v1.155a1.045,1.045,0,0,1-.318.747l-2.013,1.941a1.043,1.043,0,0,1-.721.293,1.036,1.036,0,0,1-.72-.293l-.143-.138-.508-.49-1.362-1.313a1.052,1.052,0,0,1-.282-.481,1.094,1.094,0,0,1-.036-.266v-4.564a1.039,1.039,0,0,1,1.038-1.038h4.027a1.025,1.025,0,0,1,.445.1,1.05,1.05,0,0,1,.341.26,1.03,1.03,0,0,1,.251.676v3.409Z" transform="translate(-4477.896 1855.928)" fill="url(#linear-gradient)"/>
    <path id="Path_320-2" data-name="Path 320-2" d="M7824.831-702.769a.422.422,0,0,0,.305-.11.423.423,0,0,0,.117-.327.439.439,0,0,0-.11-.323l0-.006a.415.415,0,0,0-.3-.113h-.574v.879Z" transform="translate(-4477.896 1855.928)" fill="url(#linear-gradient-2)"/>
    <path id="Path_321-2" data-name="Path 321-2" d="M7827.5-705.76a1.029,1.029,0,0,0-.341-.261,1.024,1.024,0,0,0-.444-.1h-4.028a1.039,1.039,0,0,0-1.038,1.038v4.563a1.044,1.044,0,0,0,.037.266,1.036,1.036,0,0,0,.281.481l1.362,1.313.509.49.143.138a1.03,1.03,0,0,0,.72.293,1.03,1.03,0,0,0,.72-.293l2.014-1.941a1.044,1.044,0,0,0,.317-.747v-4.563A1.026,1.026,0,0,0,7827.5-705.76Zm-1.589,5.134a1.1,1.1,0,0,1-.569.26c-.046.007-.092.014-.14.018v.606h-.5v-.6h-.261v.6h-.5v-.6h-.555v-4.06h.555v-.6h.5v.6h.261v-.6h.5v.616a1.421,1.421,0,0,1,.182.04,1.084,1.084,0,0,1,.4.209c.013.011.027.022.039.034a.994.994,0,0,1,.325.761.924.924,0,0,1-.712.931.869.869,0,0,1,.578.341,1.066,1.066,0,0,1,.215.665,1.213,1.213,0,0,1-.017.211.934.934,0,0,1-.3.563Z" transform="translate(-4477.896 1855.928)" fill="url(#linear-gradient-3)"/>
    <path id="Path_322-2" data-name="Path 322-2" d="M7824.929-702.017h-.671v.925h.661a.4.4,0,0,0,.3-.121.466.466,0,0,0,.117-.336.5.5,0,0,0-.112-.341A.376.376,0,0,0,7824.929-702.017Z" transform="translate(-4477.896 1855.928)" fill="url(#linear-gradient-4)"/>
    <path id="Path_325-2" data-name="Path 325-2" d="M7763.933-742.59a2.084,2.084,0,0,0-.416-.372,2.061,2.061,0,0,0-.688-.3,2.125,2.125,0,0,0-.469-.055h-5.273a2.07,2.07,0,0,0-2.07,2.07h0v5.973a2.049,2.049,0,0,0,.027.332,2.1,2.1,0,0,0,.189.586,2.079,2.079,0,0,0,.417.571l1.79,1.726.666.644.179.176a2.07,2.07,0,0,0,2.871,0l2.637-2.541a2.059,2.059,0,0,0,.633-1.489v-5.973A2.055,2.055,0,0,0,7763.933-742.59Zm-.217,5.859v1.454a1.361,1.361,0,0,1-.415.978l-2.637,2.54a1.344,1.344,0,0,1-.942.38,1.351,1.351,0,0,1-.942-.38l-.157-.151-.665-.645-1.817-1.747a1.374,1.374,0,0,1-.356-.586,1.386,1.386,0,0,1-.059-.4v-5.972a1.361,1.361,0,0,1,1.359-1.359h5.273a1.353,1.353,0,0,1,.621.152,1.364,1.364,0,0,1,.435.352,1.35,1.35,0,0,1,.3.852v4.527Z" transform="translate(-4477.896 1855.928)" fill="url(#linear-gradient-5)"/>
    <path id="Path_326-2" data-name="Path 326-2" d="M7763.414-742.1a1.361,1.361,0,0,0-.435-.351,1.344,1.344,0,0,0-.621-.152h-5.274a1.359,1.359,0,0,0-1.358,1.358v5.972a1.353,1.353,0,0,0,.059.395,1.365,1.365,0,0,0,.356.586l1.813,1.747.666.642.157.151a1.354,1.354,0,0,0,.942.38,1.354,1.354,0,0,0,.943-.38l2.636-2.54a1.364,1.364,0,0,0,.416-.978v-5.973A1.351,1.351,0,0,0,7763.414-742.1Zm-1.319,5.993-.576,1.322h-3.206a.756.756,0,0,1-.756-.754h0a.764.764,0,0,1,.074-.326l.629-1.315-.053.01-.858.152v-.928l1.069-.189.326-.059.22-.46.832-1.74.252-.528h1.465l-.541,1.129-.628,1.313,1.172-.207v.928l-1.658.292-.649,1.357h2.883Z" transform="translate(-4477.896 1855.928)" fill="url(#linear-gradient-6)"/>
    <path id="Path_323-2" data-name="Path 323-2" d="M7826.03-764.952a1.306,1.306,0,0,0-.272-.228,1.309,1.309,0,0,0-.451-.176,1.306,1.306,0,0,0-.249-.024h-3.347a1.314,1.314,0,0,0-1.314,1.314v3.792a1.358,1.358,0,0,0,.01.161,1.333,1.333,0,0,0,.108.383,1.312,1.312,0,0,0,.284.4l1.106,1.065.423.411.145.139a1.312,1.312,0,0,0,1.823,0l1.674-1.613a1.313,1.313,0,0,0,.4-.946v-3.792A1.315,1.315,0,0,0,7826.03-764.952Zm-.11,3.7v.981a.865.865,0,0,1-.263.621l-1.674,1.613a.857.857,0,0,1-.6.241.854.854,0,0,1-.6-.241l-.129-.126-.423-.41-1.121-1.08a.868.868,0,0,1-.238-.418.863.863,0,0,1-.026-.2v-3.792a.863.863,0,0,1,.862-.862h3.347a.868.868,0,0,1,.351.077.864.864,0,0,1,.288.212.859.859,0,0,1,.22.573v2.813Z" transform="translate(-4477.896 1855.928)" fill="url(#linear-gradient-7)"/>
    <path id="Path_324-2" data-name="Path 324-2" d="M7825.7-764.641a.9.9,0,0,0-.288-.213.859.859,0,0,0-.352-.076h-3.347a.862.862,0,0,0-.862.861v3.792a.816.816,0,0,0,.026.2.868.868,0,0,0,.237.417l1.121,1.081.423.41.129.125a.866.866,0,0,0,.6.241.861.861,0,0,0,.6-.241l1.673-1.613a.871.871,0,0,0,.264-.622v-3.791A.863.863,0,0,0,7825.7-764.641Zm-2.988,1.738.671-1.311.234.454.209.407.167.327.666,1.3-1.275.795-.966-.6-.308-.193h0Zm.671,3.95-.245-.479-.961-1.875-.016-.032.03.019,1.192.744,1.222-.762-.514,1Z" transform="translate(-4477.896 1855.928)" fill="url(#linear-gradient-8)"/>
    <path id="Path_413" data-name="Path 413" d="M7778.862-723.374l-.5,1.527H7777.3l1.863-5.266h1.309l1.918,5.266h-1.1l-.542-1.527Zm1.7-.752-.48-1.327c-.114-.32-.206-.636-.293-.921h-.016c-.083.288-.164.607-.267.915l-.466,1.333Z" transform="translate(-4477.896 1855.928)" fill="#fff"/>
    <path id="Path_414" data-name="Path 414" d="M7787.224-722.027a3.912,3.912,0,0,1-1.564.274,2.641,2.641,0,0,1-2.955-2.668,2.818,2.818,0,0,1,3.09-2.786,3.467,3.467,0,0,1,1.471.266l-.227.787a2.989,2.989,0,0,0-1.2-.239,1.869,1.869,0,0,0-2.074,1.927,1.846,1.846,0,0,0,2.056,1.887,3.227,3.227,0,0,0,1.226-.224Z" transform="translate(-4477.896 1855.928)" fill="#fff"/>
    <path id="Path_415" data-name="Path 415" d="M7789.322-723.374l-.5,1.527h-1.056l1.863-5.266h1.308l1.919,5.266h-1.106l-.541-1.527Zm1.7-.752-.48-1.327c-.113-.32-.206-.636-.293-.921h-.016c-.082.288-.164.607-.267.915l-.465,1.333Z" transform="translate(-4477.896 1855.928)" fill="#fff"/>
    <path id="Path_416" data-name="Path 416" d="M7793.621-727.043a12.425,12.425,0,0,1,1.734-.117,3.655,3.655,0,0,1,2.408.666,2.265,2.265,0,0,1,.869,1.874,2.671,2.671,0,0,1-.865,2.051,4.06,4.06,0,0,1-2.668.778,12.236,12.236,0,0,1-1.478-.074Zm1,4.44a4.64,4.64,0,0,0,.647.029c1.476.009,2.292-.755,2.292-2,.007-1.151-.773-1.814-2.143-1.814a4.066,4.066,0,0,0-.8.066Z" transform="translate(-4477.896 1855.928)" fill="#fff"/>
    <path id="Path_417" data-name="Path 417" d="M7802.745-724.162h-2.228v1.5H7803v.814h-3.491v-5.266h3.367v.814h-2.361v1.323h2.228Z" transform="translate(-4477.896 1855.928)" fill="#fff"/>
    <path id="Path_418" data-name="Path 418" d="M7808.758-724.034c-.033-.71-.068-1.561-.068-2.324h-.02c-.2.669-.444,1.4-.7,2.125l-.851,2.324h-.8l-.759-2.3c-.23-.722-.432-1.459-.587-2.146h-.015c-.028.721-.058,1.61-.1,2.358l-.125,2.153h-.954l.351-5.266h1.39l.745,2.109c.2.6.38,1.252.514,1.836h.024c.159-.57.361-1.244.582-1.841l.808-2.1h1.365l.3,5.266h-1Z" transform="translate(-4477.896 1855.928)" fill="#fff"/>
    <path id="Path_419" data-name="Path 419" d="M7812.268-721.847v-2.219l-1.835-3.047h1.171l.7,1.374c.2.4.343.663.5,1.008h.016c.145-.318.309-.621.5-1l.721-1.378h1.158l-1.935,3.022v2.244Z" transform="translate(-4477.896 1855.928)" fill="#fff"/>
    <path id="Path_430" data-name="Path 430" d="M7811.773-734.244a1.116,1.116,0,0,1-1.211.737c-1.06-.033-2.121-.008-3.182-.01a.937.937,0,0,1-.97-1.33c.543-1.637,1.091-3.272,1.632-4.909a1.534,1.534,0,0,0,.09-.47q.008-5.242,0-10.485v-.278l-2.128.526q-4.726,1.173-9.455,2.341a1.361,1.361,0,0,1-.622-.005q-7.211-1.782-14.415-3.58a.925.925,0,0,1-.78-.911.929.929,0,0,1,.79-.9q7.162-1.783,14.326-3.559a1.738,1.738,0,0,1,.8,0c4.738,1.169,9.472,2.356,14.21,3.526a1.258,1.258,0,0,1,.912.7v.485a1.235,1.235,0,0,1-1,.724c-.273.05-.541.133-.819.2v.355q0,5.373,0,10.745a2.035,2.035,0,0,0,.1.618q.514,1.6,1.054,3.184c.211.627.437,1.249.656,1.873Z" transform="translate(-4477.896 1855.928)" fill="#fff"/>
    <path id="Path_431" data-name="Path 431" d="M7788.07-748.211l3.362.839c1.5.374,2.989.759,4.489,1.114a1.769,1.769,0,0,0,.8-.028c2.5-.614,5.007-1.244,7.51-1.868.057-.015.116-.022.209-.038v.339c0,1.98-.014,3.96.007,5.939a1.746,1.746,0,0,1-.818,1.556,6.205,6.205,0,0,1-2.3.893,24.977,24.977,0,0,1-6.416.456,17.7,17.7,0,0,1-4.422-.643,7.853,7.853,0,0,1-1.642-.744,1.6,1.6,0,0,1-.787-1.5c.02-1.98.007-3.959.007-5.939Z" transform="translate(-4477.896 1855.928)" fill="#fff"/>
  </g>
</svg>
