<svg xmlns="http://www.w3.org/2000/svg" width="56.316" height="56.316" viewBox="0 0 56.316 56.316">
  <g id="Group_925" data-name="Group 925" transform="translate(-1839.891 -997.206)">
    <g id="Group_924" data-name="Group 924">
      <path id="Path_1912" data-name="Path 1912" d="M1878.673,1051.011h-21.247l-15.025-15.024V1014.74l15.025-15.024h21.247l15.024,15.024v21.247ZM1858,1049.628h20.1l14.214-14.214v-20.1L1878.1,1001.1H1858l-14.214,14.214v20.1Z" fill="#764096"/>
    </g>
    <circle id="Ellipse_1258" data-name="Ellipse 1258" cx="3.202" cy="3.202" r="3.202" transform="translate(1854.504 997.206)" fill="#29cccc"/>
    <circle id="Ellipse_1259" data-name="Ellipse 1259" cx="3.202" cy="3.202" r="3.202" transform="translate(1854.504 1047.118)" fill="#29cccc"/>
    <circle id="Ellipse_1260" data-name="Ellipse 1260" cx="3.202" cy="3.202" r="3.202" transform="translate(1839.891 1032.721)" fill="#29cccc"/>
    <circle id="Ellipse_1261" data-name="Ellipse 1261" cx="3.202" cy="3.202" r="3.202" transform="translate(1839.891 1011.883)" fill="#29cccc"/>
    <path id="Path_1913" data-name="Path 1913" d="M1878.673,999.716h-10.624v1.383H1878.1l14.214,14.214v20.1l-14.214,14.214h-10.051v1.383h10.624l15.024-15.024V1014.74Z" fill="#5c3677"/>
    <path id="Path_1914" data-name="Path 1914" d="M1867.99,1010.628v11.985l12.761-4.617Z" fill="#fdca4c"/>
    <path id="Path_1915" data-name="Path 1915" d="M1867.99,1022.613,1855.23,1018l12.761-7.367Z" fill="#ffe500"/>
    <path id="Path_1916" data-name="Path 1916" d="M1867.99,1022.615V1040.1l12.758-7.366V1018Z" fill="#674cc3"/>
    <path id="Path_1917" data-name="Path 1917" d="M1867.99,1022.615,1855.233,1018v14.731l12.758,7.366Z" fill="#939ef0"/>
    <circle id="Ellipse_1262" data-name="Ellipse 1262" cx="3.202" cy="3.202" r="3.202" transform="translate(1875.172 997.206)" fill="#00b1cd"/>
    <circle id="Ellipse_1263" data-name="Ellipse 1263" cx="3.202" cy="3.202" r="3.202" transform="translate(1889.804 1011.883)" fill="#00b1cd"/>
    <circle id="Ellipse_1264" data-name="Ellipse 1264" cx="3.202" cy="3.202" r="3.202" transform="translate(1889.804 1032.721)" fill="#00b1cd"/>
    <circle id="Ellipse_1265" data-name="Ellipse 1265" cx="3.202" cy="3.202" r="3.202" transform="translate(1875.172 1047.118)" fill="#00b1cd"/>
  </g>
</svg>
