<svg xmlns="http://www.w3.org/2000/svg" xmlns:xlink="http://www.w3.org/1999/xlink" width="23.002" height="19" viewBox="0 0 23.002 19">
  <defs>
    <linearGradient id="linear-gradient" y1="0.5" x2="1" y2="0.5" gradientUnits="objectBoundingBox">
      <stop offset="0" stop-color="#4c1c7d"/>
      <stop offset="1" stop-color="#dc30b2"/>
    </linearGradient>
    <clipPath id="clip-path">
      <path id="Path_198" data-name="Path 198" d="M560.371,303.061h-2a9.427,9.427,0,0,1,2.837-6,10.5,10.5,0,0,1,12.326,0,9.439,9.439,0,0,1,2.837,6h-2c-.579-4.094-2.768-6-6.892-6h-.216c-4.124,0-6.313,1.906-6.892,6Zm19,0v-2c0-1.162-.676-2.722-2-3v-2a4.972,4.972,0,0,1,4,5v2Zm-5-11a3.25,3.25,0,0,0,0-6v-2a5.125,5.125,0,0,1,0,10Zm-12-3a5,5,0,1,1,5,5A5,5,0,0,1,562.371,289.061Zm2,0a3,3,0,1,0,3-3A3,3,0,0,0,564.371,289.061Z" fill="url(#linear-gradient)"/>
    </clipPath>
  </defs>
  <g id="refer" transform="translate(-558.371 -284.061)">
    <g id="Shape-3">
      <path id="Path_196" data-name="Path 196" d="M560.371,303.061h-2a9.427,9.427,0,0,1,2.837-6,10.5,10.5,0,0,1,12.326,0,9.439,9.439,0,0,1,2.837,6h-2c-.579-4.094-2.768-6-6.892-6h-.216c-4.124,0-6.313,1.906-6.892,6Zm19,0v-2c0-1.162-.676-2.722-2-3v-2a4.972,4.972,0,0,1,4,5v2Zm-5-11a3.25,3.25,0,0,0,0-6v-2a5.125,5.125,0,0,1,0,10Zm-12-3a5,5,0,1,1,5,5A5,5,0,0,1,562.371,289.061Zm2,0a3,3,0,1,0,3-3A3,3,0,0,0,564.371,289.061Z" fill="url(#linear-gradient)"/>
    </g>
    <g id="Group_244" data-name="Group 244">
      <path id="Path_197" data-name="Path 197" d="M560.371,303.061h-2a9.427,9.427,0,0,1,2.837-6,10.5,10.5,0,0,1,12.326,0,9.439,9.439,0,0,1,2.837,6h-2c-.579-4.094-2.768-6-6.892-6h-.216c-4.124,0-6.313,1.906-6.892,6Zm19,0v-2c0-1.162-.676-2.722-2-3v-2a4.972,4.972,0,0,1,4,5v2Zm-5-11a3.25,3.25,0,0,0,0-6v-2a5.125,5.125,0,0,1,0,10Zm-12-3a5,5,0,1,1,5,5A5,5,0,0,1,562.371,289.061Zm2,0a3,3,0,1,0,3-3A3,3,0,0,0,564.371,289.061Z" fill="url(#linear-gradient)"/>
      <g id="Group_243" data-name="Group 243" clip-path="url(#clip-path)">
        <g id="Mask_Group_39" data-name="Mask Group 39">
          <g id="_Color" data-name=" Color">
            <g id="Color">
              <rect id="Rectangle_177" data-name="Rectangle 177" width="26" height="26" transform="translate(556.371 280.061)" fill="url(#linear-gradient)"/>
            </g>
          </g>
        </g>
      </g>
    </g>
  </g>
</svg>
