<svg xmlns="http://www.w3.org/2000/svg" xmlns:xlink="http://www.w3.org/1999/xlink" width="86.511" height="80.781" viewBox="0 0 86.511 80.781">
  <defs>
    <clipPath id="clip-path">
      <rect id="Rectangle_104-2" data-name="Rectangle 104-2" width="86.511" height="80.781" rx="15" transform="translate(7427.41 -773.928)" fill="#f7941d"/>
    </clipPath>
    <linearGradient id="linear-gradient" x1="-386.41" y1="55.513" x2="-386.404" y2="55.513" gradientUnits="objectBoundingBox">
      <stop offset="0" stop-color="#ffd26d"/>
      <stop offset="1" stop-color="#ffc412"/>
    </linearGradient>
    <linearGradient id="linear-gradient-2" x1="-1224.161" y1="598.259" x2="-1223.815" y2="598.259" xlink:href="#linear-gradient"/>
    <linearGradient id="linear-gradient-3" x1="-445.6" y1="62.48" x2="-445.591" y2="62.48" xlink:href="#linear-gradient"/>
    <linearGradient id="linear-gradient-4" x1="-1220.906" y1="568.293" x2="-1220.609" y2="568.293" xlink:href="#linear-gradient"/>
    <linearGradient id="linear-gradient-5" x1="-296.174" y1="45.241" x2="-296.171" y2="45.241" xlink:href="#linear-gradient"/>
    <linearGradient id="linear-gradient-6" x1="-343.097" y1="50.901" x2="-343.091" y2="50.901" xlink:href="#linear-gradient"/>
    <linearGradient id="linear-gradient-7" x1="-453.643" y1="73.75" x2="-453.633" y2="73.75" xlink:href="#linear-gradient"/>
    <linearGradient id="linear-gradient-8" x1="-521.088" y1="82.965" x2="-521.075" y2="82.965" xlink:href="#linear-gradient"/>
  </defs>
  <g id="Group_390" data-name="Group 390" transform="translate(-2949.515 -1082)">
    <g id="Group_370" data-name="Group 370" transform="translate(-4477.896 1855.928)" clip-path="url(#clip-path)">
      <rect id="Rectangle_104-2-2" data-name="Rectangle 104-2" width="86.511" height="80.781" rx="15" transform="translate(7427.41 -773.928)" fill="#f7941d"/>
      <g id="Group_369" data-name="Group 369">
        <line id="Line_13-2" data-name="Line 13-2" x1="4.921" y2="4.921" transform="translate(7421.619 -700.808)" fill="none" stroke="#ffc933" stroke-linecap="round" stroke-linejoin="round" stroke-width="1.153"/>
        <line id="Line_14-2" data-name="Line 14-2" x1="5.247" y2="5.247" transform="translate(7428.719 -708.233)" fill="none" stroke="#ffc933" stroke-linecap="round" stroke-linejoin="round" stroke-width="1.153"/>
        <line id="Line_19-2" data-name="Line 19-2" x1="10.402" y2="10.402" transform="translate(7423.593 -701.251)" fill="none" stroke="#ffc933" stroke-linecap="round" stroke-linejoin="round" stroke-width="1.153"/>
        <line id="Line_20-2" data-name="Line 20-2" x1="2.416" y2="2.416" transform="translate(7436.173 -705.845)" fill="none" stroke="#ffc933" stroke-linecap="round" stroke-linejoin="round" stroke-width="1.153"/>
        <line id="Line_23-2" data-name="Line 23-2" x1="3.51" y2="3.51" transform="translate(7427.599 -693.69)" fill="none" stroke="#ffc933" stroke-linecap="round" stroke-linejoin="round" stroke-width="1.153"/>
        <line id="Line_24-2" data-name="Line 24-2" x1="6.818" y2="6.818" transform="translate(7433.659 -703.058)" fill="none" stroke="#ffc933" stroke-linecap="round" stroke-linejoin="round" stroke-width="1.153"/>
        <line id="Line_27-2" data-name="Line 27-2" x1="1.844" y2="1.844" transform="translate(7433.124 -692.875)" fill="none" stroke="#ffc933" stroke-linecap="round" stroke-linejoin="round" stroke-width="1.153"/>
        <line id="Line_28-2" data-name="Line 28-2" x1="4.676" y2="4.676" transform="translate(7437.076 -699.658)" fill="none" stroke="#ffc933" stroke-linecap="round" stroke-linejoin="round" stroke-width="1.153"/>
        <g id="Group_269-3" data-name="Group 269-3">
          <line id="Line_9-2" data-name="Line 9-2" x1="0.808" y2="0.808" transform="translate(7424.821 -704.571)" fill="none" stroke="#fff" stroke-linecap="round" stroke-linejoin="round" stroke-width="1"/>
          <line id="Line_10-2" data-name="Line 10-2" x1="1.485" y2="1.485" transform="translate(7426.917 -707.344)" fill="none" stroke="#fff" stroke-linecap="round" stroke-linejoin="round" stroke-width="1"/>
          <line id="Line_11-2" data-name="Line 11-2" x1="5.593" y2="5.593" transform="translate(7422.63 -704.827)" fill="none" stroke="#fff" stroke-linecap="round" stroke-linejoin="round" stroke-width="1"/>
          <line id="Line_12-2" data-name="Line 12-2" x1="1.134" y2="1.134" transform="translate(7429.94 -707.679)" fill="none" stroke="#fff" stroke-linecap="round" stroke-linejoin="round" stroke-width="1"/>
          <line id="Line_15-2" data-name="Line 15-2" x1="8.686" y2="8.686" transform="translate(7423.503 -704.119)" fill="none" stroke="#fff" stroke-linecap="round" stroke-linejoin="round" stroke-width="1"/>
          <line id="Line_16-2" data-name="Line 16-2" x1="1.839" y2="1.839" transform="translate(7433.942 -707.711)" fill="none" stroke="#fff" stroke-linecap="round" stroke-linejoin="round" stroke-width="1"/>
          <line id="Line_17-2" data-name="Line 17-2" x1="2.088" y2="2.088" transform="translate(7425.267 -696.948)" fill="none" stroke="#fff" stroke-linecap="round" stroke-linejoin="round" stroke-width="1"/>
          <line id="Line_18-2" data-name="Line 18-2" x1="10.648" y2="10.648" transform="translate(7429.551 -709.791)" fill="none" stroke="#fff" stroke-linecap="round" stroke-linejoin="round" stroke-width="1"/>
          <line id="Line_21-2" data-name="Line 21-2" x1="6.72" y2="6.72" transform="translate(7427.594 -699.232)" fill="none" stroke="#fff" stroke-linecap="round" stroke-linejoin="round" stroke-width="1"/>
          <line id="Line_22-2" data-name="Line 22-2" x1="4.965" y2="4.965" transform="translate(7436.208 -706.092)" fill="none" stroke="#fff" stroke-linecap="round" stroke-linejoin="round" stroke-width="1"/>
          <line id="Line_25-2" data-name="Line 25-2" x1="4.741" y2="4.741" transform="translate(7432.104 -697.09)" fill="none" stroke="#fff" stroke-linecap="round" stroke-linejoin="round" stroke-width="1"/>
          <line id="Line_26-2" data-name="Line 26-2" x1="3.546" y2="3.546" transform="translate(7438.705 -702.495)" fill="none" stroke="#fff" stroke-linecap="round" stroke-linejoin="round" stroke-width="1"/>
          <line id="Line_29-2" data-name="Line 29-2" x1="1.133" y2="1.133" transform="translate(7437.131 -693.834)" fill="none" stroke="#fff" stroke-linecap="round" stroke-linejoin="round" stroke-width="1"/>
          <line id="Line_30-2" data-name="Line 30-2" x1="0.782" y2="0.782" transform="translate(7439.473 -695.824)" fill="none" stroke="#fff" stroke-linecap="round" stroke-linejoin="round" stroke-width="1"/>
        </g>
      </g>
    </g>
    <path id="Path_319-2" data-name="Path 319-2" d="M7503.372-707.156a1.552,1.552,0,0,0-.324-.279,1.6,1.6,0,0,0-.536-.22,1.594,1.594,0,0,0-.322-.033h-4.028a1.582,1.582,0,0,0-1.581,1.582v4.564a1.53,1.53,0,0,0,.015.216,1.565,1.565,0,0,0,.135.457,1.594,1.594,0,0,0,.333.468l1.344,1.3.509.491.16.154a1.582,1.582,0,0,0,2.195,0l2.014-1.941a1.581,1.581,0,0,0,.484-1.138V-706.1A1.573,1.573,0,0,0,7503.372-707.156Zm-.144,4.459v1.154a1.047,1.047,0,0,1-.318.747l-2.014,1.941a1.032,1.032,0,0,1-.72.293,1.031,1.031,0,0,1-.72-.293l-.143-.137-.508-.491-1.363-1.313a1.053,1.053,0,0,1-.281-.481,1.088,1.088,0,0,1-.036-.266v-4.563a1.039,1.039,0,0,1,1.038-1.038h4.027a1.028,1.028,0,0,1,.444.1,1.029,1.029,0,0,1,.342.261,1.035,1.035,0,0,1,.251.676v3.409Z" transform="translate(-4477.896 1855.928)" fill="url(#linear-gradient)"/>
    <path id="Path_320-2" data-name="Path 320-2" d="M7500.309-703.79a.423.423,0,0,0,.3-.11.427.427,0,0,0,.117-.327.439.439,0,0,0-.11-.323l0-.007a.418.418,0,0,0-.3-.112h-.574v.879Z" transform="translate(-4477.896 1855.928)" fill="url(#linear-gradient-2)"/>
    <path id="Path_321-2" data-name="Path 321-2" d="M7502.978-706.781a1.056,1.056,0,0,0-.341-.262,1.039,1.039,0,0,0-.445-.1h-4.027a1.039,1.039,0,0,0-1.038,1.038v4.563a1.044,1.044,0,0,0,.037.266,1.036,1.036,0,0,0,.281.481l1.362,1.313.509.49.142.138a1.032,1.032,0,0,0,.72.293,1.031,1.031,0,0,0,.721-.293l2.013-1.941a1.043,1.043,0,0,0,.318-.747v-4.563A1.026,1.026,0,0,0,7502.978-706.781Zm-1.589,5.133a1.1,1.1,0,0,1-.569.261c-.046.007-.092.014-.14.018v.606h-.5v-.6h-.261v.6h-.5v-.6h-.555v-4.059h.555v-.6h.5v.6h.261v-.6h.5v.616a1.278,1.278,0,0,1,.182.04,1.07,1.07,0,0,1,.4.209l.039.033a1,1,0,0,1,.325.762.925.925,0,0,1-.712.931.871.871,0,0,1,.578.341,1.07,1.07,0,0,1,.215.665,1.386,1.386,0,0,1-.017.211.945.945,0,0,1-.3.563Z" transform="translate(-4477.896 1855.928)" fill="url(#linear-gradient-3)"/>
    <path id="Path_322-2" data-name="Path 322-2" d="M7500.407-703.038h-.671v.925h.66a.4.4,0,0,0,.3-.122.462.462,0,0,0,.117-.335.5.5,0,0,0-.113-.341A.369.369,0,0,0,7500.407-703.038Z" transform="translate(-4477.896 1855.928)" fill="url(#linear-gradient-4)"/>
    <path id="Path_325-2" data-name="Path 325-2" d="M7439.41-743.611a2.047,2.047,0,0,0-.415-.372,2.093,2.093,0,0,0-.689-.3,2.1,2.1,0,0,0-.468-.054h-5.273a2.069,2.069,0,0,0-2.07,2.07h0v5.973a2.052,2.052,0,0,0,.027.333,2.1,2.1,0,0,0,.189.586,2.059,2.059,0,0,0,.417.571l1.79,1.725.665.645.18.176a2.07,2.07,0,0,0,2.871,0l2.637-2.541a2.069,2.069,0,0,0,.633-1.49v-5.973A2.051,2.051,0,0,0,7439.41-743.611Zm-.216,5.859v1.454a1.363,1.363,0,0,1-.415.978l-2.637,2.54a1.353,1.353,0,0,1-.942.38,1.358,1.358,0,0,1-.943-.38l-.156-.151-.666-.645-1.816-1.748a1.365,1.365,0,0,1-.356-.585,1.353,1.353,0,0,1-.059-.4v-5.973a1.361,1.361,0,0,1,1.358-1.358h5.274a1.344,1.344,0,0,1,.621.152,1.336,1.336,0,0,1,.434.352,1.341,1.341,0,0,1,.3.852v4.527Z" transform="translate(-4477.896 1855.928)" fill="url(#linear-gradient-5)"/>
    <path id="Path_326-2" data-name="Path 326-2" d="M7438.892-743.12a1.364,1.364,0,0,0-.435-.352,1.358,1.358,0,0,0-.622-.152h-5.273a1.359,1.359,0,0,0-1.358,1.359v5.972a1.341,1.341,0,0,0,.059.394,1.344,1.344,0,0,0,.356.586l1.813,1.748.666.641.157.152a1.358,1.358,0,0,0,.942.38,1.359,1.359,0,0,0,.943-.38l2.636-2.541a1.364,1.364,0,0,0,.416-.978v-5.972A1.349,1.349,0,0,0,7438.892-743.12Zm-1.32,5.993-.576,1.321h-3.206a.754.754,0,0,1-.755-.754h0a.758.758,0,0,1,.074-.327l.629-1.314-.053.01-.858.151v-.927l1.069-.189.326-.059.22-.46.832-1.741.252-.527h1.464l-.54,1.129-.628,1.313,1.172-.207v.927l-1.658.293-.649,1.357h2.883Z" transform="translate(-4477.896 1855.928)" fill="url(#linear-gradient-6)"/>
    <path id="Path_323-2" data-name="Path 323-2" d="M7501.508-765.973a1.286,1.286,0,0,0-.273-.228,1.3,1.3,0,0,0-.45-.176,1.306,1.306,0,0,0-.249-.024h-3.347a1.314,1.314,0,0,0-1.314,1.314v3.792a1.273,1.273,0,0,0,.01.161,1.318,1.318,0,0,0,.108.383,1.308,1.308,0,0,0,.284.4l1.106,1.066.423.41.144.14a1.315,1.315,0,0,0,1.824,0l1.674-1.613a1.314,1.314,0,0,0,.4-.946v-3.792A1.315,1.315,0,0,0,7501.508-765.973Zm-.11,3.7v.981a.86.86,0,0,1-.263.62l-1.674,1.613a.856.856,0,0,1-.6.242.855.855,0,0,1-.6-.242l-.13-.125-.423-.41-1.12-1.081a.857.857,0,0,1-.238-.417.817.817,0,0,1-.026-.2v-3.792a.863.863,0,0,1,.862-.861h3.346a.855.855,0,0,1,.352.076.86.86,0,0,1,.288.213.857.857,0,0,1,.22.573v2.812Z" transform="translate(-4477.896 1855.928)" fill="url(#linear-gradient-7)"/>
    <path id="Path_324-2" data-name="Path 324-2" d="M7501.179-765.662a.881.881,0,0,0-.289-.213.869.869,0,0,0-.351-.077h-3.347a.863.863,0,0,0-.862.862v3.792a.87.87,0,0,0,.025.2.873.873,0,0,0,.238.417l1.121,1.08.423.411.129.124a.861.861,0,0,0,.6.242.861.861,0,0,0,.6-.242l1.674-1.613a.865.865,0,0,0,.263-.621v-3.791A.86.86,0,0,0,7501.179-765.662Zm-2.989,1.738.672-1.311.234.454.209.407.167.327.666,1.3-1.275.795-.966-.6-.308-.192h0Zm.672,3.95-.246-.48-.96-1.874-.016-.032.029.019,1.193.744,1.222-.762-.514,1Z" transform="translate(-4477.896 1855.928)" fill="url(#linear-gradient-8)"/>
    <path id="Path_385" data-name="Path 385" d="M7452.486-723.137l-.5,1.528h-1.056l1.863-5.267h1.309l1.918,5.267h-1.1l-.542-1.528Zm1.7-.751-.48-1.327c-.114-.321-.207-.636-.294-.921h-.015c-.083.288-.164.607-.267.915l-.466,1.333Z" transform="translate(-4477.896 1855.928)" fill="#fff"/>
    <path id="Path_386" data-name="Path 386" d="M7457.791-726.876v5.267h-1v-5.267Z" transform="translate(-4477.896 1855.928)" fill="#fff"/>
    <path id="Path_387" data-name="Path 387" d="M7458.95-726.8a10.337,10.337,0,0,1,1.61-.117,2.659,2.659,0,0,1,1.73.437,1.312,1.312,0,0,1,.473,1.056,1.391,1.391,0,0,1-1,1.309v.025a1.379,1.379,0,0,1,.756.99,13.6,13.6,0,0,0,.448,1.5h-1.029a6.641,6.641,0,0,1-.383-1.23c-.167-.687-.435-.91-1.025-.927h-.582v2.157h-1Zm1,2.313h.686c.7,0,1.135-.329,1.135-.848,0-.591-.469-.834-1.118-.834a3.31,3.31,0,0,0-.7.055Z" transform="translate(-4477.896 1855.928)" fill="#fff"/>
    <path id="Path_388" data-name="Path 388" d="M7465.457-726.8a12.273,12.273,0,0,1,1.734-.117,3.654,3.654,0,0,1,2.408.665,2.265,2.265,0,0,1,.869,1.875,2.672,2.672,0,0,1-.865,2.051,4.059,4.059,0,0,1-2.668.778,12.441,12.441,0,0,1-1.478-.074Zm1,4.44a4.811,4.811,0,0,0,.647.029c1.476.008,2.292-.755,2.292-2,.007-1.151-.773-1.815-2.143-1.815a4.045,4.045,0,0,0-.8.067Z" transform="translate(-4477.896 1855.928)" fill="#fff"/>
    <path id="Path_389" data-name="Path 389" d="M7471.348-726.8a10.337,10.337,0,0,1,1.61-.117,2.658,2.658,0,0,1,1.73.437,1.312,1.312,0,0,1,.473,1.056,1.391,1.391,0,0,1-1,1.309v.025a1.379,1.379,0,0,1,.756.99,13.6,13.6,0,0,0,.448,1.5h-1.029a6.641,6.641,0,0,1-.383-1.23c-.167-.687-.435-.91-1.025-.927h-.582v2.157h-1Zm1,2.313h.686c.7,0,1.135-.329,1.135-.848,0-.591-.469-.834-1.117-.834a3.312,3.312,0,0,0-.7.055Z" transform="translate(-4477.896 1855.928)" fill="#fff"/>
    <path id="Path_390" data-name="Path 390" d="M7481.356-724.291a2.664,2.664,0,0,1-2.82,2.775,2.583,2.583,0,0,1-2.715-2.67,2.681,2.681,0,0,1,2.792-2.783A2.582,2.582,0,0,1,7481.356-724.291Zm-4.47.077a1.753,1.753,0,0,0,1.7,1.915,1.748,1.748,0,0,0,1.7-1.956,1.76,1.76,0,0,0-1.7-1.93A1.766,1.766,0,0,0,7476.886-724.214Z" transform="translate(-4477.896 1855.928)" fill="#fff"/>
    <path id="Path_391" data-name="Path 391" d="M7482.23-726.812a10.527,10.527,0,0,1,1.637-.11,2.549,2.549,0,0,1,1.63.442,1.474,1.474,0,0,1,.547,1.179,1.584,1.584,0,0,1-.469,1.2,2.569,2.569,0,0,1-1.8.575,2.515,2.515,0,0,1-.55-.047v1.967h-1Zm1,2.455a2.216,2.216,0,0,0,.562.054c.775,0,1.26-.352,1.26-.974s-.475-.885-1.175-.885a3.61,3.61,0,0,0-.647.048Z" transform="translate(-4477.896 1855.928)" fill="#fff"/>
    <path id="Path_392" data-name="Path 392" d="M7486.941-722.711a2.967,2.967,0,0,0,1.425.377c.647,0,1.012-.284,1.012-.715,0-.388-.27-.621-1.015-.844-.965-.287-1.57-.735-1.57-1.551,0-.876.776-1.525,1.971-1.525a3.2,3.2,0,0,1,1.421.283l-.255.8a2.683,2.683,0,0,0-1.186-.273c-.656,0-.926.326-.926.633,0,.4.336.594,1.094.836,1,.322,1.5.763,1.5,1.584s-.625,1.594-2.123,1.594a3.423,3.423,0,0,1-1.58-.372Z" transform="translate(-4477.896 1855.928)" fill="#fff"/>
    <path id="Path_317" data-name="Path 317" d="M7465.028-739.829h11.278l-5.639-5.023Zm14.1-15.9h-16.917a1.79,1.79,0,0,0-1.881,1.67v10.045a1.792,1.792,0,0,0,1.881,1.67h3.758v-1.67h-3.758v-10.041h16.916v10.045h-3.76v1.67h3.76a1.791,1.791,0,0,0,1.879-1.67v-10.045A1.791,1.791,0,0,0,7479.126-755.733Z" transform="translate(-4477.896 1855.928)" fill="#fff"/>
  </g>
</svg>
