<svg id="Group_396" data-name="Group 396" xmlns="http://www.w3.org/2000/svg" width="43.929" height="43.911" viewBox="0 0 43.929 43.911">
  <g id="Group_395" data-name="Group 395">
    <path id="Path_448" data-name="Path 448" d="M7414.5-509.329a21.994,21.994,0,0,0,21.97,21.955,21.959,21.959,0,0,0,21.959-21.951,21.983,21.983,0,0,0-21.959-21.96A21.994,21.994,0,0,0,7414.5-509.329Z" transform="translate(-7414.503 531.284)" fill="#f7931a"/>
  </g>
  <path id="Path_449" data-name="Path 449" d="M7448.343-488.811h-2.789v-4.623h-1.911v4.609h-2.892v-4.647h-5.527V-496.5c.655,0,1.3,0,1.947,0,.9-.007,1.3-.374,1.3-1.279q.018-6.356,0-12.711c0-.773-.3-1.088-1.1-1.125s-1.6-.008-2.438-.008V-514.6h5.708v-4.544h2.866v4.507h1.919v-4.52h2.857v.551c0,1.2.011,2.4-.007,3.6-.005.348.1.46.456.5a11.108,11.108,0,0,1,4.467,1.417,4.583,4.583,0,0,1,.638,7.253c-.273.253-.573.478-.772.642a18.007,18.007,0,0,1,2.107,1.368,4.466,4.466,0,0,1,1.571,3.3c.1,2.409-.506,4.537-2.7,5.9a8.452,8.452,0,0,1-4.126,1.109c-.508.025-1.021,0-1.573,0Zm-4.788-14.114v6.1c1.387,0,2.743.058,4.09-.018a4,4,0,0,0,2.851-1.234,2.759,2.759,0,0,0-.2-4,3.915,3.915,0,0,0-1.06-.5C7447.38-503.167,7445.468-502.8,7443.556-502.925Zm-.02-2.936c1.169,0,2.3-.008,3.422,0a2.714,2.714,0,0,0,2.127-.958,2.574,2.574,0,0,0-.794-4.185c-1.529-.657-3.147-.4-4.755-.457Z" transform="translate(-7423.794 525.769)" fill="#fff"/>
</svg>
