<svg xmlns="http://www.w3.org/2000/svg" width="16.024" height="16.902" viewBox="0 0 16.024 16.902">
  <g id="Path_52" data-name="Path 52" transform="translate(-526.132 -341.828)">
    <path id="Path_256" data-name="Path 256" d="M542.136,356.743l-1.789-9.69a2.061,2.061,0,0,0-2.115-1.475h-1.161v-1.369a2.991,2.991,0,0,0-5.851,0v1.369h-1.17a2.062,2.062,0,0,0-2.114,1.476l-1.783,9.69a1.511,1.511,0,0,0,.495,1.385,2.372,2.372,0,0,0,1.619.6h11.755a2.373,2.373,0,0,0,1.62-.6A1.513,1.513,0,0,0,542.136,356.743Zm-9.673-12.534a1.719,1.719,0,0,1,3.363,0v1.369h-3.363ZM540.7,357.47a.979.979,0,0,1-.676.251H528.267a.977.977,0,0,1-.676-.251.622.622,0,0,1-.207-.579l1.782-9.689a.859.859,0,0,1,.883-.616h1.169v.889h1.245v-.889h3.362v.889h1.244v-.889h1.161a.859.859,0,0,1,.883.616l1.79,9.689a.621.621,0,0,1-.205.58Z" fill="#fff"/>
  </g>
</svg>
