<svg xmlns="http://www.w3.org/2000/svg" width="31.18" height="25.995" viewBox="0 0 31.18 25.995">
  <g id="Group_464" data-name="Group 464" transform="translate(0)">
    <path id="Path_688" data-name="Path 688" d="M5594.331,1303.527a2.171,2.171,0,0,1,1.27-1.028c2.087-.811,4.18-1.609,6.271-2.411q10.748-4.116,21.5-8.227a2.467,2.467,0,0,1,.524-.15,1.324,1.324,0,0,1,1.617,1.455,11.13,11.13,0,0,1-.3,1.978q-2.209,10.4-4.44,20.792a4.144,4.144,0,0,1-.359,1.028,1.208,1.208,0,0,1-1.535.651,3.15,3.15,0,0,1-.924-.44c-2.235-1.619-4.46-3.255-6.687-4.886-.089-.065-.179-.129-.289-.207-.089.078-.173.146-.25.222q-1.708,1.63-3.415,3.261a1.662,1.662,0,0,1-1.241.505c.029-.44.057-.871.088-1.3.135-1.9.268-3.807.415-5.709a.674.674,0,0,1,.2-.4q6.473-5.83,12.958-11.647c.029-.027.071-.048.089-.081.082-.151.157-.3.234-.457a1.666,1.666,0,0,0-.554-.095,1.793,1.793,0,0,0-.6.276q-8.065,5.039-16.13,10.082a.6.6,0,0,1-.437.075c-2.288-.7-4.571-1.413-6.855-2.123a1.851,1.851,0,0,1-1.141-.792Z" transform="translate(-5594.331 -1291.692)" fill="#32b4ff"/>
  </g>
</svg>
