<svg xmlns="http://www.w3.org/2000/svg" width="36.587" height="25.075" viewBox="0 0 36.587 25.075">
  <g id="Group_458" data-name="Group 458" transform="translate(0)">
    <path id="Path_682" data-name="Path 682" d="M5547.423,1315.076c2.9-1.088,4.679-2.2,5.455-3.42l-.9.52a20.416,20.416,0,0,1-11.348,2.912,27.911,27.911,0,0,1-8.168-1.721c-1.2-.431-2.363-.965-3.544-1.451a.546.546,0,0,0-.231-.052,10.5,10.5,0,0,0,5.226,3.333c-.651.813-1.271,1.6-1.906,2.368a.455.455,0,0,1-.327.117,11.9,11.9,0,0,1-7.025-2.269,5.187,5.187,0,0,1-2.086-4.953,36.318,36.318,0,0,1,2.4-10.148,11.535,11.535,0,0,1,10.487-7.7.949.949,0,0,1,.612.242c-1.36.488-2.738.934-4.076,1.476a13.287,13.287,0,0,0-3.732,2.257,28.638,28.638,0,0,1,24.623.128c-.542-.8-3.478-2.243-7.348-3.614a.765.765,0,0,1,.83-.457,11.592,11.592,0,0,1,10.3,7.564,34.845,34.845,0,0,1,2.427,9.969,5.3,5.3,0,0,1-2.464,5.226,12.77,12.77,0,0,1-6.838,2.124.656.656,0,0,1-.6-.277C5548.616,1316.529,5548.033,1315.825,5547.423,1315.076Zm2.252-8.143a3.207,3.207,0,1,0-3.187,3.311A3.334,3.334,0,0,0,5549.675,1306.933Zm-17.871-.055a3.206,3.206,0,1,0,3.2-3.3A3.331,3.331,0,0,0,5531.8,1306.878Z" transform="translate(-5522.531 -1292.606)" fill="#5c6bc0"/>
  </g>
</svg>
