<svg id="Group_457" data-name="Group 457" xmlns="http://www.w3.org/2000/svg" width="30.287" height="29.461" viewBox="0 0 30.287 29.461">
  <path id="Path_673" data-name="Path 673" d="M5465.451,1310.142a29.578,29.578,0,0,1,0-8.027h11.568a29.956,29.956,0,0,1,0,8.027Z" transform="translate(-5456.09 -1291.421)" fill="#2b2892"/>
  <path id="Path_674" data-name="Path 674" d="M5476.77,1298.214h-10.9c.246-.847.461-1.675.729-2.485a11.635,11.635,0,0,1,2.1-3.989,6.546,6.546,0,0,1,1.253-1.135,2.348,2.348,0,0,1,2.725-.05,5.716,5.716,0,0,1,1.711,1.7,16.012,16.012,0,0,1,2.249,5.368C5476.684,1297.811,5476.723,1298.005,5476.77,1298.214Z" transform="translate(-5456.197 -1289.576)" fill="#2b2892"/>
  <path id="Path_675" data-name="Path 675" d="M5465.91,1314.031h10.879c-.135.52-.253,1.024-.4,1.521a15.366,15.366,0,0,1-1.761,4.089,6.8,6.8,0,0,1-1.6,1.812,2.482,2.482,0,0,1-3.323.024,6.953,6.953,0,0,1-1.308-1.351A16.071,16.071,0,0,1,5465.91,1314.031Z" transform="translate(-5456.203 -1293.258)" fill="#2b2892"/>
  <path id="Path_676" data-name="Path 676" d="M5481.591,1310.127a32.589,32.589,0,0,0,0-8.042h.312c2.049,0,4.1,0,6.147,0,.218,0,.325.039.386.282a15.024,15.024,0,0,1-.012,7.54c-.039.153-.064.263-.271.262-2.155-.008-4.308-.007-6.462-.009A.506.506,0,0,1,5481.591,1310.127Z" transform="translate(-5458.62 -1291.416)" fill="#2b2892"/>
  <path id="Path_677" data-name="Path 677" d="M5461.756,1310.161h-.317c-2.048,0-4.1,0-6.146,0-.223,0-.325-.048-.384-.286a15.05,15.05,0,0,1,.011-7.541c.046-.18.1-.26.308-.259,2.112.009,4.224.006,6.336.006.051,0,.1.007.187.013A32.541,32.541,0,0,0,5461.756,1310.161Z" transform="translate(-5454.434 -1291.416)" fill="#2b2892"/>
  <path id="Path_678" data-name="Path 678" d="M5480.477,1298.1c-.71-3.179-1.695-6.224-4.08-8.6,1.034-.089,4.478,1.588,6.2,3.022a15.225,15.225,0,0,1,4.22,5.576Z" transform="translate(-5457.82 -1289.476)" fill="#2b2892"/>
  <path id="Path_679" data-name="Path 679" d="M5466.414,1289.472c-2.417,2.406-3.4,5.454-4.113,8.634H5456C5456.98,1294.551,5462.69,1289.814,5466.414,1289.472Z" transform="translate(-5454.675 -1289.472)" fill="#2b2892"/>
  <path id="Path_680" data-name="Path 680" d="M5480.469,1314.032h6.341a15.012,15.012,0,0,1-3.842,5.261,15.175,15.175,0,0,1-6.656,3.427C5478.764,1320.282,5479.753,1317.231,5480.469,1314.032Z" transform="translate(-5457.807 -1293.258)" fill="#2b2892"/>
  <path id="Path_681" data-name="Path 681" d="M5466.438,1322.674c-3.671-.284-9.315-4.958-10.442-8.63h6.319a22.728,22.728,0,0,0,1.416,4.618A11.823,11.823,0,0,0,5466.438,1322.674Z" transform="translate(-5454.675 -1293.26)" fill="#2b2892"/>
</svg>
