<svg xmlns="http://www.w3.org/2000/svg" width="16.115" height="16.897" viewBox="0 0 16.115 16.897">
  <path id="Path_10" data-name="Path 10" d="M21.66,20.748c-.649-.232-1.708-.243-2.177-.423a3.076,3.076,0,0,1-1.008-.469,6.226,6.226,0,0,1-.168-1.65,2.666,2.666,0,0,0,.573-.811,9.01,9.01,0,0,0,.278-1.592s.382.162.533-.6c.127-.66.371-1.008.307-1.494s-.336-.371-.336-.371A4.336,4.336,0,0,0,20,11.171a3.465,3.465,0,0,0-3.741-3.422,3.477,3.477,0,0,0-3.747,3.422,4.4,4.4,0,0,0,.33,2.166s-.272-.116-.336.371.174.834.307,1.494c.151.77.533.6.533.6a9.1,9.1,0,0,0,.278,1.592,2.666,2.666,0,0,0,.573.811,6.226,6.226,0,0,1-.168,1.65,2.96,2.96,0,0,1-1.008.463c-.463.18-1.523.2-2.177.434a4.087,4.087,0,0,0-2.652,3.891H24.307A4.079,4.079,0,0,0,21.66,20.748Z" transform="translate(-8.191 -7.748)"/>
</svg>
