<svg id="Group_466" data-name="Group 466" xmlns="http://www.w3.org/2000/svg" width="32.66" height="26.615" viewBox="0 0 32.66 26.615">
  <path id="Path_690" data-name="Path 690" d="M5528.579,1389.8a13.7,13.7,0,0,0,9.84-2.782,6.8,6.8,0,0,1-4.9-2.312,5.92,5.92,0,0,1-1.311-2.35,7.281,7.281,0,0,0,2.894-.134,6.762,6.762,0,0,1-5.27-6.62c.475.18.936.391,1.417.525a7.894,7.894,0,0,0,1.473.225,6.866,6.866,0,0,1-2.8-4.753,6.412,6.412,0,0,1,.87-4.169,19.156,19.156,0,0,0,13.844,7,8.08,8.08,0,0,1-.07-2.59,6.742,6.742,0,0,1,4.8-5.412,6.668,6.668,0,0,1,6.561,1.687.537.537,0,0,0,.41.111,12.743,12.743,0,0,0,3.7-1.378c.082-.045.167-.084.312-.157a6.93,6.93,0,0,1-2.759,3.622,12.5,12.5,0,0,0,3.59-.951l.07.081c-.541.633-1.055,1.292-1.631,1.89-.457.474-1,.866-1.484,1.313a.644.644,0,0,0-.2.416,19.312,19.312,0,0,1-8.37,16.534,17.3,17.3,0,0,1-8,3.014,19.732,19.732,0,0,1-8.107-.579,18.574,18.574,0,0,1-4.738-2.122A1.392,1.392,0,0,1,5528.579,1389.8Z" transform="translate(-5528.579 -1366.183)" fill="#03a9f4"/>
</svg>
