<svg xmlns="http://www.w3.org/2000/svg" width="20.915" height="38.77" viewBox="0 0 20.915 38.77">
  <g id="Group_748" data-name="Group 748" transform="translate(-2210.797 213.173)">
    <path id="Path_1309" data-name="Path 1309" d="M2216.634-191.289h-.563c-1.389,0-2.779.007-4.168,0-.843-.006-1.09-.236-1.1-1.064q-.019-2.89,0-5.779c.006-.831.26-1.065,1.091-1.068,1.389,0,2.779,0,4.168,0h.568c0-.227,0-.412,0-.6.033-1.8-.033-3.605.12-5.394a8.514,8.514,0,0,1,8.36-7.937c1.892-.072,3.788-.03,5.683-.025.632,0,.9.269.906.9q.017,2.819,0,5.637c0,.643-.263.9-.945.916-1.278.032-2.557.033-3.836.051-1.488.022-2.075.58-2.1,2.063-.025,1.4-.005,2.807-.005,4.263.193.01.358.025.524.026,1.642,0,3.283,0,4.926,0,1.014,0,1.25.242,1.25,1.263q0,2.795,0,5.59c0,.878-.215,1.1-1.086,1.1-1.674.007-3.347,0-5.021,0h-.591v.626q0,7.438,0,14.875c0,1.271-.172,1.44-1.45,1.441h-5.3c-1.265,0-1.43-.161-1.43-1.4v-15.481Z" fill="#3b5998"/>
  </g>
</svg>
