<svg xmlns="http://www.w3.org/2000/svg" width="38.474" height="21.838" viewBox="0 0 38.474 21.838">
  <g id="Group_749" data-name="Group 749" transform="translate(-2323.872 223.25)">
    <path id="Path_1310" data-name="Path 1310" d="M2390.762-209.133c-.074.831-.1,1.671-.234,2.492-.2,1.242-.467,2.475-.747,3.7a2.7,2.7,0,0,1-.47.928c-.289.4-.7.408-.936-.038a8.443,8.443,0,0,1-.757-1.94,31.978,31.978,0,0,1-.653-8.168,26.791,26.791,0,0,1,.649-5.73,8.507,8.507,0,0,1,.63-1.756c.342-.686.842-.676,1.223-.011a7.589,7.589,0,0,1,.835,2.785c.169,1.225.266,2.459.4,3.69.016.146.043.292.064.437Z" transform="translate(-28.416 -1.395)"/>
    <path id="Path_1311" data-name="Path 1311" d="M2334.728-201.413a10.884,10.884,0,0,1-10.856-10.886A10.881,10.881,0,0,1,2334.7-223.25a10.889,10.889,0,0,1,10.878,10.9A10.89,10.89,0,0,1,2334.728-201.413Z"/>
    <path id="Path_1312" data-name="Path 1312" d="M2376.117-211.813a16.3,16.3,0,0,1-1.366,6.824,7.618,7.618,0,0,1-1.652,2.4,3.247,3.247,0,0,1-4.817-.012,9,9,0,0,1-2.333-4.259,17.732,17.732,0,0,1,.474-11.272,7.733,7.733,0,0,1,1.855-2.88,3.247,3.247,0,0,1,4.844.01,9.469,9.469,0,0,1,2.373,4.407A17.262,17.262,0,0,1,2376.117-211.813Z" transform="translate(-18.644 -0.521)"/>
  </g>
</svg>
