<svg xmlns="http://www.w3.org/2000/svg" xmlns:xlink="http://www.w3.org/1999/xlink" width="37.181" height="37.298" viewBox="0 0 37.181 37.298">
  <defs>
    <linearGradient id="linear-gradient" x1="0.508" y1="1.125" x2="0.495" y2="-0.078" gradientUnits="objectBoundingBox">
      <stop offset="0" stop-color="#d26e46"/>
      <stop offset="0.415" stop-color="#c3256b"/>
      <stop offset="0.849" stop-color="#7623be"/>
    </linearGradient>
    <linearGradient id="linear-gradient-2" x1="0.513" y1="1.717" x2="0.488" y2="-0.626" xlink:href="#linear-gradient">
      <stop offset="0" stop-color="#d26e46"/>
      <stop offset="0.415" stop-color="#c3256b"/>
      <stop offset="0.849" stop-color="#7623be"/>
    </linearGradient>
    <linearGradient id="linear-gradient-3" x1="0.582" y1="7.93" x2="0.471" y2="-2.125" xlink:href="#linear-gradient">
      <stop offset="0" stop-color="#d26e46"/>
      <stop offset="0.415" stop-color="#c3256b"/>
      <stop offset="0.849" stop-color="#7623be"/>
    </linearGradient>
  </defs>
  <g id="Group_747" data-name="Group 747" transform="translate(-2247.588 144.273)">
    <path id="Path_1306" data-name="Path 1306" d="M2284.769-133.259v15c-.02.13-.046.259-.059.39-.079.734-.116,1.474-.239,2.2a9.9,9.9,0,0,1-3.19,5.961,10.993,10.993,0,0,1-6.827,2.588c-.88.059-1.761.1-2.642.147H2260.6c-.228-.02-.457-.052-.685-.058a20.676,20.676,0,0,1-4.44-.454,9.545,9.545,0,0,1-6.705-5.374,13.374,13.374,0,0,1-1.12-5.664c-.042-4.014-.076-8.03-.06-12.044a25.8,25.8,0,0,1,.42-5.468,9.581,9.581,0,0,1,5.424-7,13.55,13.55,0,0,1,5.588-1.132c5.141-.122,10.282-.182,15.422.067a11.783,11.783,0,0,1,4.335.985,9.714,9.714,0,0,1,5.766,7.914C2284.647-134.558,2284.7-133.908,2284.769-133.259Zm-18.611,22.989v-.057c.995,0,1.991.029,2.985-.006,2.119-.076,4.254-.05,6.352-.314a6.073,6.073,0,0,0,5.506-4.867,16.23,16.23,0,0,0,.4-3.567q.1-5.622.055-11.246a38.1,38.1,0,0,0-.269-4.5,6.209,6.209,0,0,0-5.217-5.634,21.628,21.628,0,0,0-3.9-.35q-5.24-.075-10.48-.016a33.235,33.235,0,0,0-4.892.319,6.036,6.036,0,0,0-5.3,4.913,19.64,19.64,0,0,0-.392,3.861q-.1,4.529-.055,9.063c.023,2.084.076,4.175.283,6.247a6.157,6.157,0,0,0,3.094,4.924,8,8,0,0,0,3.826,1.023C2260.823-110.382,2263.492-110.336,2266.159-110.27Z" transform="translate(0 0)" fill="url(#linear-gradient)"/>
    <path id="Path_1307" data-name="Path 1307" d="M2267.061-115.166a9.591,9.591,0,0,1-9.571-9.591,9.58,9.58,0,0,1,9.6-9.558,9.565,9.565,0,0,1,9.548,9.568A9.579,9.579,0,0,1,2267.061-115.166Zm-6.2-9.579a6.186,6.186,0,0,0,6.193,6.205,6.184,6.184,0,0,0,6.213-6.184,6.186,6.186,0,0,0-6.21-6.224A6.188,6.188,0,0,0,2260.863-124.745Z" transform="translate(-0.864 -0.869)" fill="url(#linear-gradient-2)"/>
    <path id="Path_1308" data-name="Path 1308" d="M2280.9-134.971a2.222,2.222,0,0,1-2.184,2.257,2.235,2.235,0,0,1-2.275-2.21,2.219,2.219,0,0,1,2.19-2.251A2.209,2.209,0,0,1,2280.9-134.971Z" transform="translate(-2.517 -0.619)" fill="url(#linear-gradient-3)"/>
  </g>
</svg>
