<svg xmlns="http://www.w3.org/2000/svg" xmlns:xlink="http://www.w3.org/1999/xlink" width="20.24" height="22.238" viewBox="0 0 20.24 22.238">
  <defs>
    <linearGradient id="linear-gradient" y1="0.5" x2="1" y2="0.5" gradientUnits="objectBoundingBox">
      <stop offset="0" stop-color="#4c1c7d"/>
      <stop offset="1" stop-color="#dc30b2"/>
    </linearGradient>
  </defs>
  <path id="Path_19" data-name="Path 19" d="M686.1,332.893a4.023,4.023,0,0,0-2.862,1.194l-5.364-3.126a3.936,3.936,0,0,0,0-2.189l5.362-3.129a4.064,4.064,0,1,0-1.016-1.743l-5.361,3.129a4.036,4.036,0,1,0-.031,5.708l.031-.031,5.362,3.125a4.032,4.032,0,1,0,3.88-2.936Zm0-12.108a2.018,2.018,0,1,1-2.018,2.018A2.018,2.018,0,0,1,686.1,320.786Zm-12.108,11.1a2.018,2.018,0,1,1,2.018-2.018A2.018,2.018,0,0,1,673.991,331.882Zm12.108,7.062a2.024,2.024,0,0,1-2.018-2.018,2,2,0,0,1,.279-1.006l.008-.009c0-.008.007-.016.011-.024a2.015,2.015,0,1,1,1.721,3.058Z" transform="translate(-669.951 -318.725)" fill="url(#linear-gradient)"/>
</svg>
