<svg xmlns="http://www.w3.org/2000/svg" width="17.743" height="13.422" viewBox="0 0 17.743 13.422">
  <g id="Group_208" data-name="Group 208" transform="translate(-526.13 -262.988)">
    <g id="Path_48" data-name="Path 48">
      <path id="Path_257" data-name="Path 257" d="M536.41,276.369H528.3a2.17,2.17,0,0,1-2.167-2.166v-9.048a2.169,2.169,0,0,1,2.167-2.167h13.409a2.169,2.169,0,0,1,2.167,2.167v6.794a.408.408,0,0,1-.817,0h0v-6.794a1.35,1.35,0,0,0-1.35-1.35H528.3a1.352,1.352,0,0,0-1.35,1.35V274.2a1.352,1.352,0,0,0,1.35,1.35h8.113a.408.408,0,1,1,0,.816Z" fill="#fff"/>
    </g>
    <g id="Path_49" data-name="Path 49">
      <path id="Path_258" data-name="Path 258" d="M540.363,276.41h-2.97a.408.408,0,0,1-.408-.408v-3.847h-1.757a.408.408,0,0,1-.29-.7l3.665-3.665a.408.408,0,0,1,.289-.115h0a.41.41,0,0,1,.288.121l3.637,3.664a.408.408,0,0,1-.29.7H540.77v3.851A.408.408,0,0,1,540.363,276.41Zm-2.563-.816h2.155v-3.851a.408.408,0,0,1,.407-.408h1.186l-2.659-2.678-2.677,2.678h1.179a.408.408,0,0,1,.408.408Z" fill="#fff"/>
    </g>
  </g>
</svg>
