<svg xmlns="http://www.w3.org/2000/svg" xmlns:xlink="http://www.w3.org/1999/xlink" width="19" height="20.001" viewBox="0 0 19 20.001">
  <defs>
    <linearGradient id="linear-gradient" x1="-0.085" y1="0.5" x2="1.165" y2="0.5" gradientUnits="objectBoundingBox">
      <stop offset="0" stop-color="#4c1c7d"/>
      <stop offset="1" stop-color="#dc30b2"/>
    </linearGradient>
    <clipPath id="clip-path">
      <path id="Path_332" data-name="Path 332" d="M560.582,354.785h-9.5a2.794,2.794,0,0,1-2.85-2.727v-10a.9.9,0,0,1,.367-.718l8.55-6.364a.984.984,0,0,1,1.166,0l8.55,6.364a.9.9,0,0,1,.367.718v10a2.794,2.794,0,0,1-2.85,2.727Zm3.8-1.818a.93.93,0,0,0,.95-.909h0V342.5l-7.6-5.656-7.6,5.656v9.556a.931.931,0,0,0,.95.909h2.85v-5.454a.932.932,0,0,1,.95-.91h5.7a.931.931,0,0,1,.95.91v5.454Zm-4.75,0v-4.543h-3.8v4.547Z" fill="url(#linear-gradient)"/>
    </clipPath>
    <linearGradient id="linear-gradient-5" x1="0.063" y1="0.5" x2="1.031" y2="0.5" xlink:href="#linear-gradient">
      <stop offset="0" stop-color="#4c1c7d"/>
      <stop offset="1" stop-color="#dc30b2"/>
    </linearGradient>
  </defs>
  <g id="Group_148" data-name="Group 148" transform="translate(-548.232 -334.785)">
    <path id="Shape-2-2" d="M560.582,354.785h-9.5a2.794,2.794,0,0,1-2.85-2.727v-10a.9.9,0,0,1,.367-.718l8.55-6.364a.984.984,0,0,1,1.166,0l8.55,6.364a.9.9,0,0,1,.367.718v10a2.794,2.794,0,0,1-2.85,2.727Zm3.8-1.818a.93.93,0,0,0,.95-.909h0V342.5l-7.6-5.656-7.6,5.656v9.556a.931.931,0,0,0,.95.909h2.85v-5.454a.932.932,0,0,1,.95-.91h5.7a.931.931,0,0,1,.95.91v5.454Zm-4.75,0v-4.543h-3.8v4.547Z" fill="url(#linear-gradient)"/>
    <g id="Group_233" data-name="Group 233">
      <path id="Path_156" data-name="Path 156" d="M560.582,354.785h-9.5a2.794,2.794,0,0,1-2.85-2.727v-10a.9.9,0,0,1,.367-.718l8.55-6.364a.984.984,0,0,1,1.166,0l8.55,6.364a.9.9,0,0,1,.367.718v10a2.794,2.794,0,0,1-2.85,2.727Zm3.8-1.818a.93.93,0,0,0,.95-.909h0V342.5l-7.6-5.656-7.6,5.656v9.556a.931.931,0,0,0,.95.909h2.85v-5.454a.932.932,0,0,1,.95-.91h5.7a.931.931,0,0,1,.95.91v5.454Zm-4.75,0v-4.543h-3.8v4.547Z" fill="url(#linear-gradient)"/>
      <g id="Group_252" data-name="Group 252">
        <g id="Group_296" data-name="Group 296">
          <path id="Path_331" data-name="Path 331" d="M560.582,354.785h-9.5a2.794,2.794,0,0,1-2.85-2.727v-10a.9.9,0,0,1,.367-.718l8.55-6.364a.984.984,0,0,1,1.166,0l8.55,6.364a.9.9,0,0,1,.367.718v10a2.794,2.794,0,0,1-2.85,2.727Zm3.8-1.818a.93.93,0,0,0,.95-.909h0V342.5l-7.6-5.656-7.6,5.656v9.556a.931.931,0,0,0,.95.909h2.85v-5.454a.932.932,0,0,1,.95-.91h5.7a.931.931,0,0,1,.95.91v5.454Zm-4.75,0v-4.543h-3.8v4.547Z" fill="url(#linear-gradient)"/>
          <g id="Group_295" data-name="Group 295" clip-path="url(#clip-path)">
            <g id="Group_251" data-name="Group 251">
              <g id="Group_232" data-name="Group 232">
                <g id="Mask_Group_74" data-name="Mask Group 74">
                  <g id="_Color-3" data-name=" Color-3">
                    <rect id="Color-3" width="24.542" height="23.846" transform="translate(545.069 333.247)" fill="url(#linear-gradient-5)"/>
                  </g>
                </g>
              </g>
            </g>
          </g>
        </g>
      </g>
    </g>
  </g>
</svg>
