<svg xmlns="http://www.w3.org/2000/svg" width="21.558" height="25.152" viewBox="0 0 21.558 25.152">
  <path id="Icon_metro-language" data-name="Icon metro-language" d="M13.949,17.334q-.014.042-.175-.007t-.442-.161l-.281-.126a8.409,8.409,0,0,1-1.221-.688q-.1-.07-.575-.442t-.533-.4A23.911,23.911,0,0,1,8.84,18.05a10.434,10.434,0,0,1-1.474,1.544,1.112,1.112,0,0,1-.274.056.54.54,0,0,1-.26,0q.084-.056,1.151-1.291.295-.337,1.2-1.614a19.623,19.623,0,0,0,1.1-1.656q.239-.421.716-1.382a10.94,10.94,0,0,0,.505-1.088,11.534,11.534,0,0,0-1.544.463q-.112.028-.386.105t-.484.133a2.4,2.4,0,0,0-.239.07.239.239,0,0,0-.028.147.312.312,0,0,1-.014.133q-.07.14-.435.211a1.132,1.132,0,0,1-.66,0,.592.592,0,0,1-.393-.295.714.714,0,0,1-.07-.323,2.712,2.712,0,0,1,.344-.07,4.191,4.191,0,0,0,.414-.084q.814-.225,1.474-.449,1.4-.491,1.432-.491a3.114,3.114,0,0,0,.6-.274,6.349,6.349,0,0,1,.618-.3q.126-.042.3-.112t.2-.077a.188.188,0,0,1,.084.007,1.6,1.6,0,0,1-.014.463,2.989,2.989,0,0,1-.175.379q-.175.351-.372.751t-.239.47a21.051,21.051,0,0,1-1.081,1.839l.9.393q.168.084,1.046.449l.947.393q.056.014.147.358a1.063,1.063,0,0,1,.063.428Zm-2.877-6.821a.569.569,0,0,1-.056.393,1.272,1.272,0,0,1-.7.533,2.253,2.253,0,0,1-.842.168,1.162,1.162,0,0,1-.688-.365,1.056,1.056,0,0,1-.253-.575l.014-.042a.6.6,0,0,0,.274.07,1.221,1.221,0,0,0,.372,0q.14-.028.814-.225a4.007,4.007,0,0,1,.772-.2.277.277,0,0,1,.295.239Zm9.8,1.811.884,3.186L19.8,14.92ZM5.317,23.551,15.058,20.3V5.811L5.317,9.081V23.551ZM22.735,19.1l1.432.435-2.54-9.221-1.4-.435L17.191,17.4l1.432.435.632-1.544,2.961.912ZM15.675,5.6l8.042,2.583V2.849ZM20.04,24.169l2.218.182L21.5,26.6l-.561-.926a10.4,10.4,0,0,1-3.874,1.516,6.727,6.727,0,0,1-1.277.168H14.609a9.486,9.486,0,0,1-2.8-.547,9.32,9.32,0,0,1-2.576-1.193.293.293,0,0,1-.112-.225.271.271,0,0,1,.07-.189.235.235,0,0,1,.182-.077.79.79,0,0,1,.253.105l.428.232q.232.126.288.154a12.436,12.436,0,0,0,2.239.863,8.178,8.178,0,0,0,2.211.344,11.977,11.977,0,0,0,2.344-.2,11.568,11.568,0,0,0,2.2-.709q.211-.1.428-.218t.477-.267q.26-.147.4-.232ZM26.328,9.025V24.169L15.465,20.716q-.2.084-5.263,1.79T5.037,24.211a.254.254,0,0,1-.253-.182.108.108,0,0,0-.014-.042V8.856a.627.627,0,0,1,.056-.14.631.631,0,0,1,.281-.154Q6.594,8.07,7.2,7.86V2.47L15.03,5.249q.028,0,2.253-.772t4.435-1.523Q23.928,2.2,23.984,2.2q.281,0,.281.295V8.365Z" transform="translate(-4.77 -2.203)"/>
</svg>
