<svg id="Group_408" data-name="Group 408" xmlns="http://www.w3.org/2000/svg" width="43.515" height="43.516" viewBox="0 0 43.515 43.516">
  <path id="Path_472" data-name="Path 472" d="M7438.37-88.189a21.793,21.793,0,0,0-21.792,21.738,21.8,21.8,0,0,0,21.695,21.778,21.792,21.792,0,0,0,21.82-21.71A21.792,21.792,0,0,0,7438.37-88.189Z" transform="translate(-7416.579 88.189)" fill="#8247e5"/>
  <g id="Group_407" data-name="Group 407" transform="translate(7.713 9.908)">
    <g id="Group_406" data-name="Group 406">
      <path id="Path_473" data-name="Path 473" d="M7446.115-55.133a7.835,7.835,0,0,1-1.121.609c-1.394.468-1.79,1.4-1.654,2.831a2.3,2.3,0,0,0,1.268,2.08c1.788.947,3.553,1.938,5.307,2.945a2.14,2.14,0,0,0,2.305.022q2.712-1.539,5.451-3.033a2.005,2.005,0,0,0,1.14-1.981q-.051-2.994,0-5.99a1.932,1.932,0,0,0-1.107-1.906c-1.779-.964-3.552-1.941-5.289-2.976a2.447,2.447,0,0,0-2.752.005c-3.329,1.932-6.7,3.8-10.04,5.707a2.061,2.061,0,0,1-2.225.065c-1-.576-2.01-1.127-3.009-1.7a1.726,1.726,0,0,1-.922-1.595c0-1.1.008-2.193,0-3.29a1.726,1.726,0,0,1,.961-1.65c.985-.54,1.973-1.077,2.945-1.641a1.937,1.937,0,0,1,2.075.017c.9.514,1.807,1.03,2.728,1.512a1.938,1.938,0,0,1,1.139,1.981c-.032.6-.006,1.2-.006,1.935a7.433,7.433,0,0,1,1.117-.613c1.445-.466,1.84-1.451,1.677-2.894a2.237,2.237,0,0,0-1.178-1.969c-1.8-.979-3.581-2-5.356-3.03a2.074,2.074,0,0,0-2.229-.008c-1.834,1.037-3.673,2.067-5.525,3.072a1.877,1.877,0,0,0-1.088,1.831c.025,2.024.034,4.05,0,6.074a1.975,1.975,0,0,0,1.149,1.968c1.758.941,3.509,1.9,5.226,2.915a2.421,2.421,0,0,0,2.683.008c3.34-1.913,6.709-3.775,10.058-5.675a2.063,2.063,0,0,1,2.155-.126q1.515.832,3.019,1.683a1.706,1.706,0,0,1,.938,1.581c-.007,1.125-.009,2.25,0,3.375a1.675,1.675,0,0,1-.918,1.585q-1.5.85-3,1.717a1.829,1.829,0,0,1-1.923.032q-1.514-.833-3.021-1.677a1.784,1.784,0,0,1-.976-1.734C7446.131-53.709,7446.115-54.348,7446.115-55.133Z" transform="translate(-7430.722 70.021)" fill="#fff"/>
    </g>
  </g>
</svg>
