<svg xmlns="http://www.w3.org/2000/svg" xmlns:xlink="http://www.w3.org/1999/xlink" width="86.511" height="80.781" viewBox="0 0 86.511 80.781">
  <defs>
    <clipPath id="clip-path">
      <rect id="Rectangle_104-2" data-name="Rectangle 104-2" width="86.511" height="80.781" rx="15" transform="translate(7317.896 -773.928)" fill="#f7941d"/>
    </clipPath>
    <linearGradient id="linear-gradient" x1="-372.418" y1="55.513" x2="-372.411" y2="55.513" gradientUnits="objectBoundingBox">
      <stop offset="0" stop-color="#ffd26d"/>
      <stop offset="1" stop-color="#ffc412"/>
    </linearGradient>
    <linearGradient id="linear-gradient-2" x1="-1179.516" y1="598.259" x2="-1179.169" y2="598.259" xlink:href="#linear-gradient">
      <stop offset="0" stop-color="#ffd26d"/>
      <stop offset="1" stop-color="#ffc412"/>
    </linearGradient>
    <linearGradient id="linear-gradient-3" x1="-429.379" y1="62.48" x2="-429.369" y2="62.48" xlink:href="#linear-gradient">
      <stop offset="0" stop-color="#ffd26d"/>
      <stop offset="1" stop-color="#ffc412"/>
    </linearGradient>
    <linearGradient id="linear-gradient-4" x1="-1174.572" y1="568.293" x2="-1174.276" y2="568.293" xlink:href="#linear-gradient">
      <stop offset="0" stop-color="#ffd26d"/>
      <stop offset="1" stop-color="#ffc412"/>
    </linearGradient>
    <linearGradient id="linear-gradient-5" x1="-285.245" y1="45.241" x2="-285.241" y2="45.241" xlink:href="#linear-gradient">
      <stop offset="0" stop-color="#ffd26d"/>
      <stop offset="1" stop-color="#ffc412"/>
    </linearGradient>
    <linearGradient id="linear-gradient-6" x1="-330.392" y1="50.901" x2="-330.387" y2="50.901" xlink:href="#linear-gradient">
      <stop offset="0" stop-color="#ffd26d"/>
      <stop offset="1" stop-color="#ffc412"/>
    </linearGradient>
    <linearGradient id="linear-gradient-7" x1="-437.112" y1="73.75" x2="-437.102" y2="73.75" xlink:href="#linear-gradient">
      <stop offset="0" stop-color="#ffd26d"/>
      <stop offset="1" stop-color="#ffc412"/>
    </linearGradient>
    <linearGradient id="linear-gradient-8" x1="-501.883" y1="82.965" x2="-501.869" y2="82.965" xlink:href="#linear-gradient">
      <stop offset="0" stop-color="#ffd26d"/>
      <stop offset="1" stop-color="#ffc412"/>
    </linearGradient>
  </defs>
  <g id="Group_389" data-name="Group 389" transform="translate(-2840 -1082)">
    <g id="Group_355" data-name="Group 355" transform="translate(-4477.896 1855.928)">
      <g id="Group_354" data-name="Group 354" clip-path="url(#clip-path)">
        <rect id="Rectangle_104-2-2" data-name="Rectangle 104-2" width="86.511" height="80.781" rx="15" transform="translate(7317.896 -773.928)" fill="#f7941d"/>
        <g id="Group_353" data-name="Group 353">
          <line id="Line_13-2" data-name="Line 13-2" x1="4.921" y2="4.921" transform="translate(7312.104 -700.808)" fill="none" stroke="#ffc933" stroke-linecap="round" stroke-linejoin="round" stroke-width="1.153"/>
          <line id="Line_14-2" data-name="Line 14-2" x1="5.247" y2="5.247" transform="translate(7319.204 -708.233)" fill="none" stroke="#ffc933" stroke-linecap="round" stroke-linejoin="round" stroke-width="1.153"/>
          <line id="Line_19-2" data-name="Line 19-2" x1="10.402" y2="10.402" transform="translate(7314.079 -701.251)" fill="none" stroke="#ffc933" stroke-linecap="round" stroke-linejoin="round" stroke-width="1.153"/>
          <line id="Line_20-2" data-name="Line 20-2" x1="2.416" y2="2.416" transform="translate(7326.659 -705.845)" fill="none" stroke="#ffc933" stroke-linecap="round" stroke-linejoin="round" stroke-width="1.153"/>
          <line id="Line_23-2" data-name="Line 23-2" x1="3.51" y2="3.51" transform="translate(7318.084 -693.69)" fill="none" stroke="#ffc933" stroke-linecap="round" stroke-linejoin="round" stroke-width="1.153"/>
          <line id="Line_24-2" data-name="Line 24-2" x1="6.818" y2="6.818" transform="translate(7324.144 -703.058)" fill="none" stroke="#ffc933" stroke-linecap="round" stroke-linejoin="round" stroke-width="1.153"/>
          <line id="Line_27-2" data-name="Line 27-2" x1="1.844" y2="1.844" transform="translate(7323.609 -692.875)" fill="none" stroke="#ffc933" stroke-linecap="round" stroke-linejoin="round" stroke-width="1.153"/>
          <line id="Line_28-2" data-name="Line 28-2" x1="4.676" y2="4.676" transform="translate(7327.562 -699.658)" fill="none" stroke="#ffc933" stroke-linecap="round" stroke-linejoin="round" stroke-width="1.153"/>
          <g id="Group_269-3" data-name="Group 269-3">
            <line id="Line_9-2" data-name="Line 9-2" x1="0.808" y2="0.808" transform="translate(7315.306 -704.571)" fill="none" stroke="#fff" stroke-linecap="round" stroke-linejoin="round" stroke-width="1"/>
            <line id="Line_10-2" data-name="Line 10-2" x1="1.485" y2="1.485" transform="translate(7317.402 -707.344)" fill="none" stroke="#fff" stroke-linecap="round" stroke-linejoin="round" stroke-width="1"/>
            <line id="Line_11-2" data-name="Line 11-2" x1="5.593" y2="5.593" transform="translate(7313.115 -704.827)" fill="none" stroke="#fff" stroke-linecap="round" stroke-linejoin="round" stroke-width="1"/>
            <line id="Line_12-2" data-name="Line 12-2" x1="1.134" y2="1.134" transform="translate(7320.425 -707.679)" fill="none" stroke="#fff" stroke-linecap="round" stroke-linejoin="round" stroke-width="1"/>
            <line id="Line_15-2" data-name="Line 15-2" x1="8.686" y2="8.686" transform="translate(7313.989 -704.119)" fill="none" stroke="#fff" stroke-linecap="round" stroke-linejoin="round" stroke-width="1"/>
            <line id="Line_16-2" data-name="Line 16-2" x1="1.839" y2="1.839" transform="translate(7324.427 -707.711)" fill="none" stroke="#fff" stroke-linecap="round" stroke-linejoin="round" stroke-width="1"/>
            <line id="Line_17-2" data-name="Line 17-2" x1="2.088" y2="2.088" transform="translate(7315.752 -696.948)" fill="none" stroke="#fff" stroke-linecap="round" stroke-linejoin="round" stroke-width="1"/>
            <line id="Line_18-2" data-name="Line 18-2" x1="10.648" y2="10.648" transform="translate(7320.036 -709.791)" fill="none" stroke="#fff" stroke-linecap="round" stroke-linejoin="round" stroke-width="1"/>
            <line id="Line_21-2" data-name="Line 21-2" x1="6.72" y2="6.72" transform="translate(7318.079 -699.232)" fill="none" stroke="#fff" stroke-linecap="round" stroke-linejoin="round" stroke-width="1"/>
            <line id="Line_22-2" data-name="Line 22-2" x1="4.965" y2="4.965" transform="translate(7326.694 -706.092)" fill="none" stroke="#fff" stroke-linecap="round" stroke-linejoin="round" stroke-width="1"/>
            <line id="Line_25-2" data-name="Line 25-2" x1="4.741" y2="4.741" transform="translate(7322.59 -697.09)" fill="none" stroke="#fff" stroke-linecap="round" stroke-linejoin="round" stroke-width="1"/>
            <line id="Line_26-2" data-name="Line 26-2" x1="3.546" y2="3.546" transform="translate(7329.19 -702.495)" fill="none" stroke="#fff" stroke-linecap="round" stroke-linejoin="round" stroke-width="1"/>
            <line id="Line_29-2" data-name="Line 29-2" x1="1.133" y2="1.133" transform="translate(7327.617 -693.834)" fill="none" stroke="#fff" stroke-linecap="round" stroke-linejoin="round" stroke-width="1"/>
            <line id="Line_30-2" data-name="Line 30-2" x1="0.782" y2="0.782" transform="translate(7329.958 -695.824)" fill="none" stroke="#fff" stroke-linecap="round" stroke-linejoin="round" stroke-width="1"/>
          </g>
        </g>
      </g>
    </g>
    <g id="Group_266-4" data-name="Group 266-4" transform="translate(-4477.896 1855.928)" opacity="0.52">
      <path id="Path_319-2" data-name="Path 319-2" d="M7393.858-707.156a1.6,1.6,0,0,0-.324-.279,1.615,1.615,0,0,0-.536-.22,1.589,1.589,0,0,0-.323-.033h-4.027a1.582,1.582,0,0,0-1.582,1.582v4.564a1.53,1.53,0,0,0,.015.216,1.6,1.6,0,0,0,.135.457,1.588,1.588,0,0,0,.334.468l1.344,1.3.508.491.161.154a1.582,1.582,0,0,0,2.195,0l2.013-1.941a1.581,1.581,0,0,0,.484-1.138V-706.1A1.57,1.57,0,0,0,7393.858-707.156Zm-.145,4.459v1.154a1.041,1.041,0,0,1-.318.747l-2.013,1.941a1.031,1.031,0,0,1-.721.293,1.032,1.032,0,0,1-.72-.293l-.143-.137-.508-.491-1.362-1.313a1.043,1.043,0,0,1-.282-.481,1.088,1.088,0,0,1-.036-.266v-4.563a1.04,1.04,0,0,1,1.038-1.038h4.027a1.039,1.039,0,0,1,.445.1,1.033,1.033,0,0,1,.341.261,1.03,1.03,0,0,1,.251.676v3.409Z" fill="url(#linear-gradient)"/>
      <path id="Path_320-2" data-name="Path 320-2" d="M7390.794-703.79a.422.422,0,0,0,.305-.11.423.423,0,0,0,.117-.327.437.437,0,0,0-.11-.323l0-.007a.417.417,0,0,0-.3-.112h-.574v.879Z" fill="url(#linear-gradient-2)"/>
      <path id="Path_321-2" data-name="Path 321-2" d="M7393.463-706.781a1.041,1.041,0,0,0-.341-.262,1.038,1.038,0,0,0-.444-.1h-4.028a1.04,1.04,0,0,0-1.038,1.038v4.563a1.044,1.044,0,0,0,.037.266,1.033,1.033,0,0,0,.281.481l1.362,1.313.509.49.143.138a1.031,1.031,0,0,0,.72.293,1.03,1.03,0,0,0,.72-.293l2.014-1.941a1.046,1.046,0,0,0,.317-.747v-4.563A1.026,1.026,0,0,0,7393.463-706.781Zm-1.589,5.133a1.1,1.1,0,0,1-.569.261c-.046.007-.092.014-.14.018v.606h-.5v-.6h-.261v.6h-.5v-.6h-.555v-4.059h.555v-.6h.5v.6h.261v-.6h.5v.616a1.285,1.285,0,0,1,.182.04,1.074,1.074,0,0,1,.4.209l.039.033a1,1,0,0,1,.325.762.924.924,0,0,1-.712.931.871.871,0,0,1,.578.341,1.064,1.064,0,0,1,.215.665,1.222,1.222,0,0,1-.017.211.94.94,0,0,1-.3.563Z" fill="url(#linear-gradient-3)"/>
      <path id="Path_322-2" data-name="Path 322-2" d="M7390.892-703.038h-.671v.925h.661a.4.4,0,0,0,.3-.122.46.46,0,0,0,.117-.335.5.5,0,0,0-.112-.341A.373.373,0,0,0,7390.892-703.038Z" fill="url(#linear-gradient-4)"/>
    </g>
    <g id="Group_268-2" data-name="Group 268-2" transform="translate(-4477.896 1855.928)" opacity="0.52">
      <path id="Path_325-2" data-name="Path 325-2" d="M7329.9-743.611a2.053,2.053,0,0,0-.416-.372,2.083,2.083,0,0,0-.688-.3,2.116,2.116,0,0,0-.469-.054h-5.273a2.07,2.07,0,0,0-2.07,2.07h0v5.973a2.052,2.052,0,0,0,.027.333,2.1,2.1,0,0,0,.189.586,2.079,2.079,0,0,0,.417.571l1.79,1.725.666.645.179.176a2.071,2.071,0,0,0,2.871,0l2.637-2.541a2.063,2.063,0,0,0,.633-1.49v-5.973A2.058,2.058,0,0,0,7329.9-743.611Zm-.217,5.859v1.454a1.365,1.365,0,0,1-.415.978l-2.637,2.54a1.349,1.349,0,0,1-.942.38,1.353,1.353,0,0,1-.942-.38l-.157-.151-.665-.645-1.817-1.748a1.365,1.365,0,0,1-.356-.585,1.386,1.386,0,0,1-.059-.4v-5.973a1.361,1.361,0,0,1,1.359-1.358h5.273a1.34,1.34,0,0,1,.621.152,1.35,1.35,0,0,1,.435.352,1.346,1.346,0,0,1,.3.852v4.527Z" fill="url(#linear-gradient-5)"/>
      <path id="Path_326-2" data-name="Path 326-2" d="M7329.377-743.12a1.364,1.364,0,0,0-.435-.352,1.356,1.356,0,0,0-.621-.152h-5.274a1.361,1.361,0,0,0-1.358,1.359v5.972a1.341,1.341,0,0,0,.059.394,1.353,1.353,0,0,0,.356.586l1.813,1.748.666.641.157.152a1.357,1.357,0,0,0,.942.38,1.357,1.357,0,0,0,.943-.38l2.636-2.541a1.362,1.362,0,0,0,.416-.978v-5.972A1.344,1.344,0,0,0,7329.377-743.12Zm-1.319,5.993-.576,1.321h-3.206a.755.755,0,0,1-.756-.754h0a.766.766,0,0,1,.074-.327l.629-1.314-.053.01-.858.151v-.927l1.069-.189.326-.059.22-.46.832-1.741.252-.527h1.465l-.541,1.129-.628,1.313,1.172-.207v.927l-1.658.293-.649,1.357h2.883Z" fill="url(#linear-gradient-6)"/>
    </g>
    <g id="Group_267-4" data-name="Group 267-4" transform="translate(-4477.896 1855.928)" opacity="0.52">
      <path id="Path_323-2" data-name="Path 323-2" d="M7391.993-765.973a1.331,1.331,0,0,0-.272-.228,1.312,1.312,0,0,0-.451-.176,1.306,1.306,0,0,0-.249-.024h-3.347a1.314,1.314,0,0,0-1.314,1.314v3.792a1.372,1.372,0,0,0,.01.161,1.348,1.348,0,0,0,.108.383,1.3,1.3,0,0,0,.284.4l1.106,1.066.423.41.145.14a1.314,1.314,0,0,0,1.823,0l1.674-1.613a1.314,1.314,0,0,0,.4-.946v-3.792A1.316,1.316,0,0,0,7391.993-765.973Zm-.11,3.7v.981a.861.861,0,0,1-.263.62l-1.673,1.613a.858.858,0,0,1-.6.242.856.856,0,0,1-.6-.242l-.129-.125-.423-.41-1.121-1.081a.862.862,0,0,1-.238-.417.865.865,0,0,1-.026-.2v-3.792a.863.863,0,0,1,.862-.861h3.347a.849.849,0,0,1,.351.076.867.867,0,0,1,.288.213.856.856,0,0,1,.22.573v2.812Z" fill="url(#linear-gradient-7)"/>
      <path id="Path_324-2" data-name="Path 324-2" d="M7391.664-765.662a.887.887,0,0,0-.288-.213.875.875,0,0,0-.352-.077h-3.347a.864.864,0,0,0-.862.862v3.792a.846.846,0,0,0,.026.2.868.868,0,0,0,.237.417l1.121,1.08.423.411.129.124a.862.862,0,0,0,.6.242.863.863,0,0,0,.6-.242l1.673-1.613a.87.87,0,0,0,.264-.621v-3.791A.858.858,0,0,0,7391.664-765.662Zm-2.988,1.738.671-1.311.234.454.209.407.167.327.666,1.3-1.275.795-.966-.6-.308-.192h0Zm.671,3.95-.245-.48-.961-1.874-.016-.032.03.019,1.192.744,1.222-.762-.514,1Z" fill="url(#linear-gradient-8)"/>
    </g>
    <g id="Group_377" data-name="Group 377" transform="translate(-4477.896 1855.928)">
      <path id="Path_374" data-name="Path 374" d="M7334.17-721.84v-5.266h1.208l1.521,2.264a13.637,13.637,0,0,1,.991,1.8l.019-.006a18.857,18.857,0,0,1-.084-2.1v-1.954h.939v5.266h-1.071l-1.536-2.342a19.578,19.578,0,0,1-1.066-1.864l-.028.007c.039.71.046,1.387.046,2.178v2.021Z" fill="#fff"/>
      <path id="Path_375" data-name="Path 375" d="M7343.162-724.155h-2.229v1.5h2.485v.814h-3.49v-5.266h3.367v.814h-2.362v1.323h2.229Z" fill="#fff"/>
      <path id="Path_376" data-name="Path 376" d="M7345.311-721.84l-1.4-5.266h1.08l.556,2.423c.143.646.287,1.339.383,1.819h.016c.089-.513.243-1.162.407-1.832l.613-2.41h1.122l.558,2.478c.135.627.252,1.215.334,1.738H7349c.1-.537.241-1.147.4-1.8l.617-2.414h1.035l-1.57,5.266h-1.086l-.593-2.607a14.82,14.82,0,0,1-.312-1.645h-.016a14.684,14.684,0,0,1-.367,1.643l-.673,2.609Z" fill="#fff"/>
      <path id="Path_377" data-name="Path 377" d="M7351.669-722.942a2.971,2.971,0,0,0,1.426.377c.647,0,1.012-.284,1.012-.714,0-.388-.27-.621-1.015-.845-.965-.287-1.57-.734-1.57-1.551,0-.875.775-1.525,1.971-1.525a3.2,3.2,0,0,1,1.421.284l-.255.8a2.671,2.671,0,0,0-1.186-.274c-.656,0-.927.326-.927.633,0,.4.337.595,1.1.837,1,.321,1.494.763,1.494,1.583s-.625,1.6-2.123,1.6a3.413,3.413,0,0,1-1.58-.373Z" fill="#fff"/>
      <path id="Path_378" data-name="Path 378" d="M7358.815-727.106v2.937c0,1.088.48,1.636,1.24,1.636.8,0,1.276-.543,1.276-1.636v-2.937h1v2.9a2.153,2.153,0,0,1-2.327,2.459c-1.3,0-2.2-.692-2.2-2.464v-2.9Z" fill="#fff"/>
      <path id="Path_379" data-name="Path 379" d="M7363.5-727.043a10.525,10.525,0,0,1,1.637-.11,2.549,2.549,0,0,1,1.63.442,1.477,1.477,0,0,1,.547,1.179,1.58,1.58,0,0,1-.468,1.2,2.566,2.566,0,0,1-1.8.575,2.585,2.585,0,0,1-.55-.046v1.966h-1Zm1,2.456a2.22,2.22,0,0,0,.562.053c.776,0,1.26-.352,1.26-.973s-.475-.885-1.175-.885a3.511,3.511,0,0,0-.647.048Z" fill="#fff"/>
      <path id="Path_380" data-name="Path 380" d="M7368.193-727.036a12.424,12.424,0,0,1,1.734-.117,3.653,3.653,0,0,1,2.407.666,2.265,2.265,0,0,1,.869,1.875,2.671,2.671,0,0,1-.865,2.051,4.062,4.062,0,0,1-2.667.777,12.237,12.237,0,0,1-1.478-.074Zm1.005,4.44a4.637,4.637,0,0,0,.647.029c1.475.009,2.291-.755,2.291-2,.007-1.152-.772-1.815-2.143-1.815a4.049,4.049,0,0,0-.795.066Z" fill="#fff"/>
      <path id="Path_381" data-name="Path 381" d="M7375.135-723.367l-.5,1.527h-1.056l1.862-5.266h1.309l1.919,5.266h-1.106l-.542-1.527Zm1.7-.752-.48-1.327c-.113-.32-.206-.636-.293-.92h-.016c-.083.287-.164.607-.267.914l-.465,1.333Z" fill="#fff"/>
      <path id="Path_382" data-name="Path 382" d="M7379.892-726.283h-1.69v-.823h4.4v.823H7380.9v4.443h-1Z" fill="#fff"/>
      <path id="Path_383" data-name="Path 383" d="M7386.456-724.155h-2.228v1.5h2.485v.814h-3.491v-5.266h3.368v.814h-2.362v1.323h2.228Z" fill="#fff"/>
      <path id="Path_384" data-name="Path 384" d="M7387.621-722.942a2.965,2.965,0,0,0,1.425.377c.647,0,1.012-.284,1.012-.714,0-.388-.27-.621-1.015-.845-.965-.287-1.57-.734-1.57-1.551,0-.875.776-1.525,1.971-1.525a3.2,3.2,0,0,1,1.421.284l-.255.8a2.667,2.667,0,0,0-1.186-.274c-.656,0-.926.326-.926.633,0,.4.336.595,1.094.837,1,.321,1.5.763,1.5,1.583s-.625,1.6-2.123,1.6a3.411,3.411,0,0,1-1.58-.373Z" fill="#fff"/>
    </g>
    <g id="Group_263" data-name="Group 263" transform="translate(-4477.896 1855.928)">
      <g id="Path_78" data-name="Path 78">
        <path id="Path_311" data-name="Path 311" d="M7353.853-755.489v13.77a.868.868,0,0,1-.9.842.869.869,0,0,1-.842-.842v-10.288h-1.388v10.285a2.266,2.266,0,0,0,2.253,2.266h16.336a2.265,2.265,0,0,0,2.257-2.266v-13.767Zm16.334,13.77a.873.873,0,0,1-.869.872H7355.07a2.283,2.283,0,0,0,.173-.872V-754.1h14.942Z" fill="#fff"/>
      </g>
      <g id="Path_79" data-name="Path 79">
        <path id="Path_312" data-name="Path 312" d="M7362.619-751h-6.238v6.931h6.238Zm-1.382,5.541h-3.472v-4.159h3.472Z" fill="#fff"/>
      </g>
      <g id="Group_262" data-name="Group 262">
        <g id="Path_80" data-name="Path 80">
          <path id="Path_313" data-name="Path 313" d="M7364.05-750.939h4.505v1.384h-4.505Z" fill="#fff"/>
        </g>
        <g id="Path_81" data-name="Path 81">
          <path id="Path_314" data-name="Path 314" d="M7364.05-748.166h4.505v1.384h-4.505Z" fill="#fff"/>
        </g>
        <g id="Path_82" data-name="Path 82">
          <path id="Path_315" data-name="Path 315" d="M7364.05-745.394h4.505v1.384h-4.505Z" fill="#fff"/>
        </g>
      </g>
    </g>
  </g>
</svg>
