<svg xmlns="http://www.w3.org/2000/svg" xmlns:xlink="http://www.w3.org/1999/xlink" width="86.511" height="80.781" viewBox="0 0 86.511 80.781">
  <defs>
    <clipPath id="clip-path">
      <rect id="Rectangle_104-2" data-name="Rectangle 104-2" width="86.511" height="80.781" rx="15" transform="translate(7536.925 -773.928)" fill="#f7941d"/>
    </clipPath>
    <linearGradient id="linear-gradient" x1="-400.348" y1="55.513" x2="-400.342" y2="55.513" gradientUnits="objectBoundingBox">
      <stop offset="0" stop-color="#ffd26d"/>
      <stop offset="1" stop-color="#ffc412"/>
    </linearGradient>
    <linearGradient id="linear-gradient-2" x1="-1270.01" y1="598.259" x2="-1269.662" y2="598.259" xlink:href="#linear-gradient"/>
    <linearGradient id="linear-gradient-3" x1="-461.822" y1="62.48" x2="-461.813" y2="62.48" xlink:href="#linear-gradient"/>
    <linearGradient id="linear-gradient-4" x1="-1267.24" y1="568.293" x2="-1266.943" y2="568.293" xlink:href="#linear-gradient"/>
    <linearGradient id="linear-gradient-5" x1="-307.041" y1="45.241" x2="-307.038" y2="45.241" xlink:href="#linear-gradient"/>
    <linearGradient id="linear-gradient-6" x1="-355.845" y1="50.901" x2="-355.839" y2="50.901" xlink:href="#linear-gradient"/>
    <linearGradient id="linear-gradient-7" x1="-470.289" y1="73.75" x2="-470.28" y2="73.75" xlink:href="#linear-gradient"/>
    <linearGradient id="linear-gradient-8" x1="-540.092" y1="82.965" x2="-540.079" y2="82.965" xlink:href="#linear-gradient"/>
  </defs>
  <g id="Group_391" data-name="Group 391" transform="translate(-3059.03 -1082)">
    <g id="Group_374" data-name="Group 374" transform="translate(-4477.896 1855.928)" clip-path="url(#clip-path)">
      <rect id="Rectangle_104-2-2" data-name="Rectangle 104-2" width="86.511" height="80.781" rx="15" transform="translate(7536.925 -773.928)" fill="#f7941d"/>
      <g id="Group_373" data-name="Group 373">
        <line id="Line_13-2" data-name="Line 13-2" x1="4.921" y2="4.921" transform="translate(7531.134 -700.808)" fill="none" stroke="#ffc933" stroke-linecap="round" stroke-linejoin="round" stroke-width="1.153"/>
        <line id="Line_14-2" data-name="Line 14-2" x1="5.247" y2="5.247" transform="translate(7538.233 -708.233)" fill="none" stroke="#ffc933" stroke-linecap="round" stroke-linejoin="round" stroke-width="1.153"/>
        <line id="Line_19-2" data-name="Line 19-2" x1="10.402" y2="10.402" transform="translate(7533.108 -701.251)" fill="none" stroke="#ffc933" stroke-linecap="round" stroke-linejoin="round" stroke-width="1.153"/>
        <line id="Line_20-2" data-name="Line 20-2" x1="2.416" y2="2.416" transform="translate(7545.688 -705.845)" fill="none" stroke="#ffc933" stroke-linecap="round" stroke-linejoin="round" stroke-width="1.153"/>
        <line id="Line_23-2" data-name="Line 23-2" x1="3.51" y2="3.51" transform="translate(7537.114 -693.69)" fill="none" stroke="#ffc933" stroke-linecap="round" stroke-linejoin="round" stroke-width="1.153"/>
        <line id="Line_24-2" data-name="Line 24-2" x1="6.818" y2="6.818" transform="translate(7543.173 -703.058)" fill="none" stroke="#ffc933" stroke-linecap="round" stroke-linejoin="round" stroke-width="1.153"/>
        <line id="Line_27-2" data-name="Line 27-2" x1="1.844" y2="1.844" transform="translate(7542.639 -692.875)" fill="none" stroke="#ffc933" stroke-linecap="round" stroke-linejoin="round" stroke-width="1.153"/>
        <line id="Line_28-2" data-name="Line 28-2" x1="4.676" y2="4.676" transform="translate(7546.591 -699.658)" fill="none" stroke="#ffc933" stroke-linecap="round" stroke-linejoin="round" stroke-width="1.153"/>
        <g id="Group_269-3" data-name="Group 269-3">
          <line id="Line_9-2" data-name="Line 9-2" x1="0.808" y2="0.808" transform="translate(7534.335 -704.571)" fill="none" stroke="#fff" stroke-linecap="round" stroke-linejoin="round" stroke-width="1"/>
          <line id="Line_10-2" data-name="Line 10-2" x1="1.485" y2="1.485" transform="translate(7536.432 -707.344)" fill="none" stroke="#fff" stroke-linecap="round" stroke-linejoin="round" stroke-width="1"/>
          <line id="Line_11-2" data-name="Line 11-2" x1="5.593" y2="5.593" transform="translate(7532.145 -704.827)" fill="none" stroke="#fff" stroke-linecap="round" stroke-linejoin="round" stroke-width="1"/>
          <line id="Line_12-2" data-name="Line 12-2" x1="1.134" y2="1.134" transform="translate(7539.455 -707.679)" fill="none" stroke="#fff" stroke-linecap="round" stroke-linejoin="round" stroke-width="1"/>
          <line id="Line_15-2" data-name="Line 15-2" x1="8.686" y2="8.686" transform="translate(7533.019 -704.119)" fill="none" stroke="#fff" stroke-linecap="round" stroke-linejoin="round" stroke-width="1"/>
          <line id="Line_16-2" data-name="Line 16-2" x1="1.839" y2="1.839" transform="translate(7543.457 -707.711)" fill="none" stroke="#fff" stroke-linecap="round" stroke-linejoin="round" stroke-width="1"/>
          <line id="Line_17-2" data-name="Line 17-2" x1="2.088" y2="2.088" transform="translate(7534.782 -696.948)" fill="none" stroke="#fff" stroke-linecap="round" stroke-linejoin="round" stroke-width="1"/>
          <line id="Line_18-2" data-name="Line 18-2" x1="10.648" y2="10.648" transform="translate(7539.065 -709.791)" fill="none" stroke="#fff" stroke-linecap="round" stroke-linejoin="round" stroke-width="1"/>
          <line id="Line_21-2" data-name="Line 21-2" x1="6.72" y2="6.72" transform="translate(7537.108 -699.232)" fill="none" stroke="#fff" stroke-linecap="round" stroke-linejoin="round" stroke-width="1"/>
          <line id="Line_22-2" data-name="Line 22-2" x1="4.965" y2="4.965" transform="translate(7545.723 -706.092)" fill="none" stroke="#fff" stroke-linecap="round" stroke-linejoin="round" stroke-width="1"/>
          <line id="Line_25-2" data-name="Line 25-2" x1="4.741" y2="4.741" transform="translate(7541.62 -697.09)" fill="none" stroke="#fff" stroke-linecap="round" stroke-linejoin="round" stroke-width="1"/>
          <line id="Line_26-2" data-name="Line 26-2" x1="3.546" y2="3.546" transform="translate(7548.22 -702.495)" fill="none" stroke="#fff" stroke-linecap="round" stroke-linejoin="round" stroke-width="1"/>
          <line id="Line_29-2" data-name="Line 29-2" x1="1.133" y2="1.133" transform="translate(7546.646 -693.834)" fill="none" stroke="#fff" stroke-linecap="round" stroke-linejoin="round" stroke-width="1"/>
          <line id="Line_30-2" data-name="Line 30-2" x1="0.782" y2="0.782" transform="translate(7548.988 -695.824)" fill="none" stroke="#fff" stroke-linecap="round" stroke-linejoin="round" stroke-width="1"/>
        </g>
      </g>
    </g>
    <path id="Path_319-2" data-name="Path 319-2" d="M7612.887-707.156a1.6,1.6,0,0,0-.324-.279,1.6,1.6,0,0,0-.536-.22,1.585,1.585,0,0,0-.322-.033h-4.028a1.582,1.582,0,0,0-1.582,1.582v4.564a1.605,1.605,0,0,0,.015.216,1.6,1.6,0,0,0,.136.457,1.559,1.559,0,0,0,.333.468l1.344,1.3.509.491.16.154a1.583,1.583,0,0,0,2.2,0l2.014-1.941a1.582,1.582,0,0,0,.484-1.138V-706.1A1.573,1.573,0,0,0,7612.887-707.156Zm-.145,4.459v1.154a1.041,1.041,0,0,1-.317.747l-2.014,1.941a1.032,1.032,0,0,1-.72.293,1.03,1.03,0,0,1-.72-.293l-.143-.137-.509-.491-1.362-1.313a1.054,1.054,0,0,1-.281-.481,1.042,1.042,0,0,1-.036-.266v-4.563a1.039,1.039,0,0,1,1.037-1.038h4.028a1.03,1.03,0,0,1,.444.1,1.044,1.044,0,0,1,.342.261,1.038,1.038,0,0,1,.251.676v3.409Z" transform="translate(-4477.896 1855.928)" fill="url(#linear-gradient)"/>
    <path id="Path_320-2" data-name="Path 320-2" d="M7609.824-703.79a.423.423,0,0,0,.3-.11.429.429,0,0,0,.117-.327.445.445,0,0,0-.11-.323l-.005-.007a.418.418,0,0,0-.3-.112h-.573v.879Z" transform="translate(-4477.896 1855.928)" fill="url(#linear-gradient-2)"/>
    <path id="Path_321-2" data-name="Path 321-2" d="M7612.493-706.781a1.047,1.047,0,0,0-.342-.262,1.03,1.03,0,0,0-.444-.1h-4.027a1.039,1.039,0,0,0-1.038,1.038v4.563a1.065,1.065,0,0,0,.036.266,1.038,1.038,0,0,0,.282.481l1.362,1.313.508.49.143.138a1.03,1.03,0,0,0,.72.293,1.03,1.03,0,0,0,.72-.293l2.014-1.941a1.047,1.047,0,0,0,.318-.747v-4.563A1.034,1.034,0,0,0,7612.493-706.781Zm-1.589,5.133a1.1,1.1,0,0,1-.569.261c-.046.007-.092.014-.141.018v.606h-.5v-.6h-.261v.6h-.5v-.6h-.555v-4.059h.555v-.6h.5v.6h.261v-.6h.5v.616a1.269,1.269,0,0,1,.183.04,1.07,1.07,0,0,1,.4.209l.038.033a1,1,0,0,1,.326.762.927.927,0,0,1-.712.931.874.874,0,0,1,.578.341,1.067,1.067,0,0,1,.215.665,1.386,1.386,0,0,1-.017.211.939.939,0,0,1-.3.563Z" transform="translate(-4477.896 1855.928)" fill="url(#linear-gradient-3)"/>
    <path id="Path_322-2" data-name="Path 322-2" d="M7609.922-703.038h-.671v.925h.66a.4.4,0,0,0,.3-.122.463.463,0,0,0,.118-.335.5.5,0,0,0-.113-.341A.368.368,0,0,0,7609.922-703.038Z" transform="translate(-4477.896 1855.928)" fill="url(#linear-gradient-4)"/>
    <path id="Path_325-2" data-name="Path 325-2" d="M7548.925-743.611a2.022,2.022,0,0,0-.415-.372,2.1,2.1,0,0,0-.689-.3,2.116,2.116,0,0,0-.469-.054h-5.273a2.071,2.071,0,0,0-2.07,2.07h0v5.973a2.053,2.053,0,0,0,.028.333,2.033,2.033,0,0,0,.189.586,2.059,2.059,0,0,0,.417.571l1.79,1.725.665.645.18.176a2.071,2.071,0,0,0,2.871,0l2.637-2.541a2.073,2.073,0,0,0,.633-1.49v-5.973A2.056,2.056,0,0,0,7548.925-743.611Zm-.216,5.859v1.454a1.367,1.367,0,0,1-.415.978l-2.637,2.54a1.355,1.355,0,0,1-.943.38,1.357,1.357,0,0,1-.942-.38l-.156-.151-.666-.645-1.816-1.748a1.36,1.36,0,0,1-.356-.585,1.352,1.352,0,0,1-.059-.4v-5.973a1.36,1.36,0,0,1,1.358-1.358h5.273a1.347,1.347,0,0,1,.622.152,1.329,1.329,0,0,1,.434.352,1.344,1.344,0,0,1,.3.852v4.527Z" transform="translate(-4477.896 1855.928)" fill="url(#linear-gradient-5)"/>
    <path id="Path_326-2" data-name="Path 326-2" d="M7548.407-743.12a1.386,1.386,0,0,0-.435-.352,1.36,1.36,0,0,0-.622-.152h-5.273a1.359,1.359,0,0,0-1.358,1.359v5.972a1.34,1.34,0,0,0,.058.394,1.36,1.36,0,0,0,.357.586l1.813,1.748.666.641.157.152a1.353,1.353,0,0,0,.942.38,1.355,1.355,0,0,0,.942-.38l2.637-2.541a1.359,1.359,0,0,0,.415-.978v-5.972A1.354,1.354,0,0,0,7548.407-743.12Zm-1.32,5.993-.576,1.321h-3.206a.754.754,0,0,1-.755-.754h0a.759.759,0,0,1,.074-.327l.628-1.314-.052.01-.858.151v-.927l1.068-.189.327-.059.219-.46.833-1.741.251-.527h1.465l-.54,1.129-.628,1.313,1.172-.207v.927l-1.658.293-.649,1.357h2.882Z" transform="translate(-4477.896 1855.928)" fill="url(#linear-gradient-6)"/>
    <path id="Path_323-2" data-name="Path 323-2" d="M7611.023-765.973a1.324,1.324,0,0,0-.273-.228,1.312,1.312,0,0,0-.451-.176,1.3,1.3,0,0,0-.249-.024H7606.7a1.314,1.314,0,0,0-1.314,1.314v3.792a1.273,1.273,0,0,0,.01.161,1.331,1.331,0,0,0,.107.383,1.312,1.312,0,0,0,.285.4l1.106,1.066.422.41.145.14a1.316,1.316,0,0,0,1.824,0l1.673-1.613a1.3,1.3,0,0,0,.4-.946v-3.792A1.306,1.306,0,0,0,7611.023-765.973Zm-.11,3.7v.981a.867.867,0,0,1-.264.62l-1.673,1.613a.856.856,0,0,1-.6.242.856.856,0,0,1-.6-.242l-.13-.125-.423-.41-1.121-1.081a.869.869,0,0,1-.238-.417.864.864,0,0,1-.025-.2v-3.792a.863.863,0,0,1,.861-.861h3.347a.857.857,0,0,1,.352.076.862.862,0,0,1,.288.213.861.861,0,0,1,.22.573v2.812Z" transform="translate(-4477.896 1855.928)" fill="url(#linear-gradient-7)"/>
    <path id="Path_324-2" data-name="Path 324-2" d="M7610.693-765.662a.862.862,0,0,0-.288-.213.871.871,0,0,0-.352-.077h-3.346a.864.864,0,0,0-.863.862v3.792a.926.926,0,0,0,.026.2.873.873,0,0,0,.238.417l1.121,1.08.422.411.13.124a.861.861,0,0,0,.6.242.861.861,0,0,0,.6-.242l1.674-1.613a.866.866,0,0,0,.263-.621v-3.791A.859.859,0,0,0,7610.693-765.662Zm-2.988,1.738.672-1.311.234.454.208.407.168.327.665,1.3-1.274.795-.967-.6-.308-.192h0Zm.672,3.95-.246-.48-.96-1.874-.017-.032.03.019,1.193.744,1.222-.762-.515,1Z" transform="translate(-4477.896 1855.928)" fill="url(#linear-gradient-8)"/>
    <path id="Path_393" data-name="Path 393" d="M7562.1-726.582a10.518,10.518,0,0,1,1.637-.11,2.551,2.551,0,0,1,1.63.442,1.476,1.476,0,0,1,.546,1.179,1.582,1.582,0,0,1-.468,1.2,2.567,2.567,0,0,1-1.8.575,2.584,2.584,0,0,1-.55-.046v1.966h-1Zm1,2.456a2.218,2.218,0,0,0,.562.053c.775,0,1.259-.352,1.259-.973s-.474-.885-1.175-.885a3.5,3.5,0,0,0-.646.048Z" transform="translate(-4477.896 1855.928)" fill="#fff"/>
    <path id="Path_394" data-name="Path 394" d="M7567.344-722.906l-.505,1.527h-1.056l1.863-5.266h1.309l1.918,5.266h-1.106l-.542-1.527Zm1.7-.752-.48-1.327c-.114-.32-.207-.636-.294-.92h-.016c-.082.287-.163.607-.267.914l-.465,1.333Z" transform="translate(-4477.896 1855.928)" fill="#fff"/>
    <path id="Path_395" data-name="Path 395" d="M7575.707-721.559a3.906,3.906,0,0,1-1.564.274,2.641,2.641,0,0,1-2.955-2.668,2.818,2.818,0,0,1,3.09-2.786,3.463,3.463,0,0,1,1.471.266l-.227.787a2.985,2.985,0,0,0-1.2-.239,1.869,1.869,0,0,0-2.074,1.928,1.847,1.847,0,0,0,2.056,1.886,3.2,3.2,0,0,0,1.226-.224Z" transform="translate(-4477.896 1855.928)" fill="#fff"/>
    <path id="Path_396" data-name="Path 396" d="M7576.6-726.645h1v2.42h.023c.134-.194.283-.371.418-.536l1.564-1.884h1.271l-2.01,2.229,2.16,3.037h-1.2l-1.687-2.435-.543.6v1.838h-1Z" transform="translate(-4477.896 1855.928)" fill="#fff"/>
    <path id="Path_397" data-name="Path 397" d="M7582.789-722.906l-.5,1.527h-1.056l1.863-5.266h1.308l1.919,5.266h-1.106l-.541-1.527Zm1.7-.752-.48-1.327c-.114-.32-.207-.636-.294-.92h-.016c-.082.287-.163.607-.267.914l-.465,1.333Z" transform="translate(-4477.896 1855.928)" fill="#fff"/>
    <path id="Path_398" data-name="Path 398" d="M7591.626-721.653a6.143,6.143,0,0,1-1.922.329,3.2,3.2,0,0,1-2.306-.764,2.54,2.54,0,0,1-.766-1.874c0-1.568,1.227-2.738,3.206-2.738a4.076,4.076,0,0,1,1.593.279l-.231.793a3.317,3.317,0,0,0-1.4-.258,1.875,1.875,0,0,0-2.116,1.855,1.877,1.877,0,0,0,2.072,1.9,2.329,2.329,0,0,0,.877-.125v-1.263h-1.048v-.779h2.036Z" transform="translate(-4477.896 1855.928)" fill="#fff"/>
    <path id="Path_399" data-name="Path 399" d="M7595.9-723.694h-2.228v1.5h2.485v.814h-3.49v-5.266h3.367v.814h-2.362v1.323h2.228Z" transform="translate(-4477.896 1855.928)" fill="#fff"/>
    <path id="Path_400" data-name="Path 400" d="M7597.064-722.481a2.966,2.966,0,0,0,1.425.377c.647,0,1.012-.284,1.012-.714,0-.388-.27-.621-1.015-.845-.965-.287-1.57-.734-1.57-1.551,0-.876.776-1.525,1.971-1.525a3.2,3.2,0,0,1,1.421.284l-.255.8a2.667,2.667,0,0,0-1.186-.274c-.656,0-.926.326-.926.633,0,.4.336.594,1.094.837,1,.321,1.495.763,1.495,1.583s-.625,1.6-2.123,1.6a3.408,3.408,0,0,1-1.58-.373Z" transform="translate(-4477.896 1855.928)" fill="#fff"/>
    <path id="Path_316" data-name="Path 316" d="M7591.578-750.337a.622.622,0,0,0-.033-.187c-.009-.023-.024-.043-.034-.065a.826.826,0,0,0-.081-.144.741.741,0,0,0-.066-.065.769.769,0,0,0-.117-.114c-.026-.02-.06-.035-.087-.054a1.132,1.132,0,0,0-.137-.082.028.028,0,0,1-.017-.006l-.009-.005-10.245-4.388a1.442,1.442,0,0,0-1.106,0l-10.294,4.388-.012.009h-.011a1.2,1.2,0,0,0-.108.063,1.308,1.308,0,0,0-.127.072.922.922,0,0,0-.087.088.743.743,0,0,0-.088.088.7.7,0,0,0-.067.122.47.47,0,0,0-.046.088.722.722,0,0,0-.033.184v7.071a.881.881,0,0,0,.587.768l10.244,4.378h0l.022.01a1.258,1.258,0,0,0,.155.047,1.114,1.114,0,0,0,.111.035,1.479,1.479,0,0,0,.578,0,1.146,1.146,0,0,0,.111-.035,1.209,1.209,0,0,0,.155-.047l.023-.01h0L7591-742.506a.871.871,0,0,0,.586-.768V-750.3a.161.161,0,0,0-.009-.042Zm-11.434,3.441-7.889-3.391,3.153-1.342,7.792,3.427Zm.054-6.777,7.9,3.378-2.561,1.1-7.793-3.422,2.457-1.046Zm1.119,13.3v-4.985l3.423-1.473v2.683l2.281-.877v-2.791l2.282-.983v5.009Z" transform="translate(-4477.896 1855.928)" fill="#fff"/>
  </g>
</svg>
