<svg xmlns="http://www.w3.org/2000/svg" xmlns:xlink="http://www.w3.org/1999/xlink" width="86.511" height="80.781" viewBox="0 0 86.511 80.781">
  <defs>
    <clipPath id="clip-path">
      <rect id="Rectangle_104-2" data-name="Rectangle 104-2" width="86.511" height="80.781" rx="15" transform="translate(7643.683 -772.907)" fill="#f7941d"/>
    </clipPath>
    <linearGradient id="linear-gradient" x1="-413.986" y1="55.4" x2="-413.98" y2="55.4" gradientUnits="objectBoundingBox">
      <stop offset="0" stop-color="#ffd26d"/>
      <stop offset="1" stop-color="#ffc412"/>
    </linearGradient>
    <linearGradient id="linear-gradient-2" x1="-1312.826" y1="596.325" x2="-1312.479" y2="596.325" xlink:href="#linear-gradient">
      <stop offset="0" stop-color="#ffd26d"/>
      <stop offset="1" stop-color="#ffc412"/>
    </linearGradient>
    <linearGradient id="linear-gradient-3" x1="-477.711" y1="62.353" x2="-477.702" y2="62.353" xlink:href="#linear-gradient">
      <stop offset="0" stop-color="#ffd26d"/>
      <stop offset="1" stop-color="#ffc412"/>
    </linearGradient>
    <linearGradient id="linear-gradient-4" x1="-1313.003" y1="566.565" x2="-1312.706" y2="566.565" xlink:href="#linear-gradient">
      <stop offset="0" stop-color="#ffd26d"/>
      <stop offset="1" stop-color="#ffc412"/>
    </linearGradient>
    <linearGradient id="linear-gradient-5" x1="-317.697" y1="45.156" x2="-317.693" y2="45.156" xlink:href="#linear-gradient">
      <stop offset="0" stop-color="#ffd26d"/>
      <stop offset="1" stop-color="#ffc412"/>
    </linearGradient>
    <linearGradient id="linear-gradient-6" x1="-368.231" y1="50.81" x2="-368.226" y2="50.81" xlink:href="#linear-gradient">
      <stop offset="0" stop-color="#ffd26d"/>
      <stop offset="1" stop-color="#ffc412"/>
    </linearGradient>
    <linearGradient id="linear-gradient-7" x1="-486.289" y1="73.607" x2="-486.279" y2="73.607" xlink:href="#linear-gradient">
      <stop offset="0" stop-color="#ffd26d"/>
      <stop offset="1" stop-color="#ffc412"/>
    </linearGradient>
    <linearGradient id="linear-gradient-8" x1="-558.716" y1="82.822" x2="-558.703" y2="82.822" xlink:href="#linear-gradient">
      <stop offset="0" stop-color="#ffd26d"/>
      <stop offset="1" stop-color="#ffc412"/>
    </linearGradient>
  </defs>
  <g id="Group_392" data-name="Group 392" transform="translate(-3165.788 -1083.021)">
    <g id="Group_358" data-name="Group 358" transform="translate(-4477.896 1855.928)" clip-path="url(#clip-path)">
      <rect id="Rectangle_104-2-2" data-name="Rectangle 104-2" width="86.511" height="80.781" rx="15" transform="translate(7643.683 -772.907)" fill="#f7941d"/>
      <g id="Group_357" data-name="Group 357">
        <line id="Line_13-2" data-name="Line 13-2" x1="4.921" y2="4.921" transform="translate(7637.892 -699.787)" fill="none" stroke="#ffc933" stroke-linecap="round" stroke-linejoin="round" stroke-width="1.153"/>
        <line id="Line_14-2" data-name="Line 14-2" x1="5.247" y2="5.247" transform="translate(7644.991 -707.211)" fill="none" stroke="#ffc933" stroke-linecap="round" stroke-linejoin="round" stroke-width="1.153"/>
        <line id="Line_19-2" data-name="Line 19-2" x1="10.402" y2="10.402" transform="translate(7639.866 -700.23)" fill="none" stroke="#ffc933" stroke-linecap="round" stroke-linejoin="round" stroke-width="1.153"/>
        <line id="Line_20-2" data-name="Line 20-2" x1="2.416" y2="2.416" transform="translate(7652.446 -704.824)" fill="none" stroke="#ffc933" stroke-linecap="round" stroke-linejoin="round" stroke-width="1.153"/>
        <line id="Line_23-2" data-name="Line 23-2" x1="3.51" y2="3.51" transform="translate(7643.872 -692.668)" fill="none" stroke="#ffc933" stroke-linecap="round" stroke-linejoin="round" stroke-width="1.153"/>
        <line id="Line_24-2" data-name="Line 24-2" x1="6.818" y2="6.818" transform="translate(7649.931 -702.037)" fill="none" stroke="#ffc933" stroke-linecap="round" stroke-linejoin="round" stroke-width="1.153"/>
        <line id="Line_27-2" data-name="Line 27-2" x1="1.844" y2="1.844" transform="translate(7649.396 -691.854)" fill="none" stroke="#ffc933" stroke-linecap="round" stroke-linejoin="round" stroke-width="1.153"/>
        <line id="Line_28-2" data-name="Line 28-2" x1="4.676" y2="4.676" transform="translate(7653.349 -698.637)" fill="none" stroke="#ffc933" stroke-linecap="round" stroke-linejoin="round" stroke-width="1.153"/>
        <g id="Group_269-3" data-name="Group 269-3">
          <line id="Line_9-2" data-name="Line 9-2" x1="0.808" y2="0.808" transform="translate(7641.093 -703.549)" fill="none" stroke="#fff" stroke-linecap="round" stroke-linejoin="round" stroke-width="1"/>
          <line id="Line_10-2" data-name="Line 10-2" x1="1.485" y2="1.485" transform="translate(7643.189 -706.322)" fill="none" stroke="#fff" stroke-linecap="round" stroke-linejoin="round" stroke-width="1"/>
          <line id="Line_11-2" data-name="Line 11-2" x1="5.593" y2="5.593" transform="translate(7638.902 -703.806)" fill="none" stroke="#fff" stroke-linecap="round" stroke-linejoin="round" stroke-width="1"/>
          <line id="Line_12-2" data-name="Line 12-2" x1="1.134" y2="1.134" transform="translate(7646.212 -706.658)" fill="none" stroke="#fff" stroke-linecap="round" stroke-linejoin="round" stroke-width="1"/>
          <line id="Line_15-2" data-name="Line 15-2" x1="8.686" y2="8.686" transform="translate(7639.776 -703.098)" fill="none" stroke="#fff" stroke-linecap="round" stroke-linejoin="round" stroke-width="1"/>
          <line id="Line_16-2" data-name="Line 16-2" x1="1.839" y2="1.839" transform="translate(7650.214 -706.689)" fill="none" stroke="#fff" stroke-linecap="round" stroke-linejoin="round" stroke-width="1"/>
          <line id="Line_17-2" data-name="Line 17-2" x1="2.088" y2="2.088" transform="translate(7641.54 -695.927)" fill="none" stroke="#fff" stroke-linecap="round" stroke-linejoin="round" stroke-width="1"/>
          <line id="Line_18-2" data-name="Line 18-2" x1="10.648" y2="10.648" transform="translate(7645.823 -708.77)" fill="none" stroke="#fff" stroke-linecap="round" stroke-linejoin="round" stroke-width="1"/>
          <line id="Line_21-2" data-name="Line 21-2" x1="6.72" y2="6.72" transform="translate(7643.866 -698.211)" fill="none" stroke="#fff" stroke-linecap="round" stroke-linejoin="round" stroke-width="1"/>
          <line id="Line_22-2" data-name="Line 22-2" x1="4.965" y2="4.965" transform="translate(7652.481 -705.07)" fill="none" stroke="#fff" stroke-linecap="round" stroke-linejoin="round" stroke-width="1"/>
          <line id="Line_25-2" data-name="Line 25-2" x1="4.741" y2="4.741" transform="translate(7648.377 -696.068)" fill="none" stroke="#fff" stroke-linecap="round" stroke-linejoin="round" stroke-width="1"/>
          <line id="Line_26-2" data-name="Line 26-2" x1="3.546" y2="3.546" transform="translate(7654.978 -701.474)" fill="none" stroke="#fff" stroke-linecap="round" stroke-linejoin="round" stroke-width="1"/>
          <line id="Line_29-2" data-name="Line 29-2" x1="1.133" y2="1.133" transform="translate(7653.404 -692.813)" fill="none" stroke="#fff" stroke-linecap="round" stroke-linejoin="round" stroke-width="1"/>
          <line id="Line_30-2" data-name="Line 30-2" x1="0.782" y2="0.782" transform="translate(7655.746 -694.802)" fill="none" stroke="#fff" stroke-linecap="round" stroke-linejoin="round" stroke-width="1"/>
        </g>
      </g>
    </g>
    <path id="Path_319-2" data-name="Path 319-2" d="M7719.645-706.135a1.568,1.568,0,0,0-.324-.278,1.58,1.58,0,0,0-.536-.221,1.66,1.66,0,0,0-.323-.032h-4.027a1.582,1.582,0,0,0-1.582,1.582v4.563a1.509,1.509,0,0,0,.015.216,1.626,1.626,0,0,0,.135.457,1.605,1.605,0,0,0,.334.469l1.344,1.3.508.49.161.155a1.582,1.582,0,0,0,2.195,0l2.014-1.942a1.585,1.585,0,0,0,.484-1.138v-4.564A1.578,1.578,0,0,0,7719.645-706.135Zm-.145,4.459v1.155a1.048,1.048,0,0,1-.317.747l-2.014,1.941a1.04,1.04,0,0,1-.72.293,1.034,1.034,0,0,1-.72-.293l-.143-.138-.509-.49-1.362-1.313a1.042,1.042,0,0,1-.281-.481,1.049,1.049,0,0,1-.037-.266v-4.564a1.039,1.039,0,0,1,1.038-1.038h4.028a1.024,1.024,0,0,1,.444.1,1.039,1.039,0,0,1,.341.26,1.031,1.031,0,0,1,.252.676v3.409Z" transform="translate(-4477.896 1855.928)" fill="url(#linear-gradient)"/>
    <path id="Path_320-2" data-name="Path 320-2" d="M7716.582-702.769a.422.422,0,0,0,.3-.11.428.428,0,0,0,.118-.327.439.439,0,0,0-.111-.323l0-.006a.417.417,0,0,0-.305-.113h-.574v.879Z" transform="translate(-4477.896 1855.928)" fill="url(#linear-gradient-2)"/>
    <path id="Path_321-2" data-name="Path 321-2" d="M7719.251-705.76a1.043,1.043,0,0,0-.342-.261,1.018,1.018,0,0,0-.444-.1h-4.028a1.039,1.039,0,0,0-1.037,1.038v4.563a1.043,1.043,0,0,0,.036.266,1.036,1.036,0,0,0,.281.481l1.362,1.313.509.49.143.138a1.032,1.032,0,0,0,.72.293,1.029,1.029,0,0,0,.72-.293l2.014-1.941a1.04,1.04,0,0,0,.317-.747v-4.563A1.031,1.031,0,0,0,7719.251-705.76Zm-1.589,5.134a1.105,1.105,0,0,1-.57.26c-.045.007-.092.014-.14.018v.606h-.5v-.6h-.261v.6h-.5v-.6h-.555v-4.06h.555v-.6h.5v.6h.261v-.6h.5v.616a1.351,1.351,0,0,1,.182.04,1.081,1.081,0,0,1,.4.209c.012.011.026.022.038.034a.99.99,0,0,1,.325.761.924.924,0,0,1-.712.931.876.876,0,0,1,.579.341,1.075,1.075,0,0,1,.215.665,1.317,1.317,0,0,1-.017.211.94.94,0,0,1-.3.563Z" transform="translate(-4477.896 1855.928)" fill="url(#linear-gradient-3)"/>
    <path id="Path_322-2" data-name="Path 322-2" d="M7716.68-702.017h-.671v.925h.66a.4.4,0,0,0,.3-.121.466.466,0,0,0,.117-.336.5.5,0,0,0-.112-.341A.372.372,0,0,0,7716.68-702.017Z" transform="translate(-4477.896 1855.928)" fill="url(#linear-gradient-4)"/>
    <path id="Path_325-2" data-name="Path 325-2" d="M7655.683-742.59a2.084,2.084,0,0,0-.416-.372,2.061,2.061,0,0,0-.688-.3,2.125,2.125,0,0,0-.469-.055h-5.273a2.07,2.07,0,0,0-2.07,2.07h0v5.973a1.945,1.945,0,0,0,.028.332,2.093,2.093,0,0,0,.188.586,2.1,2.1,0,0,0,.417.571l1.79,1.726.666.644.18.176a2.071,2.071,0,0,0,2.871,0l2.636-2.541a2.064,2.064,0,0,0,.634-1.489v-5.973A2.062,2.062,0,0,0,7655.683-742.59Zm-.216,5.859v1.454a1.366,1.366,0,0,1-.416.978l-2.636,2.54a1.348,1.348,0,0,1-.943.38,1.354,1.354,0,0,1-.942-.38l-.157-.151-.665-.645-1.817-1.747a1.374,1.374,0,0,1-.356-.586,1.385,1.385,0,0,1-.058-.4v-5.972a1.36,1.36,0,0,1,1.358-1.359h5.273a1.36,1.36,0,0,1,.622.152,1.371,1.371,0,0,1,.434.352,1.351,1.351,0,0,1,.3.852v4.527Z" transform="translate(-4477.896 1855.928)" fill="url(#linear-gradient-5)"/>
    <path id="Path_326-2" data-name="Path 326-2" d="M7655.164-742.1a1.368,1.368,0,0,0-.434-.351,1.347,1.347,0,0,0-.622-.152h-5.273a1.358,1.358,0,0,0-1.358,1.358v5.972a1.32,1.32,0,0,0,.058.395,1.365,1.365,0,0,0,.356.586l1.814,1.747.665.642.157.151a1.354,1.354,0,0,0,.942.38,1.354,1.354,0,0,0,.943-.38l2.637-2.54a1.363,1.363,0,0,0,.415-.978v-5.973A1.351,1.351,0,0,0,7655.164-742.1Zm-1.319,5.993-.576,1.322h-3.206a.755.755,0,0,1-.755-.754h0a.763.763,0,0,1,.073-.326l.629-1.315-.053.01-.857.152v-.928l1.068-.189.326-.059.22-.46.833-1.74.251-.528h1.465l-.54,1.129-.629,1.313,1.172-.207v.928l-1.657.292-.649,1.357h2.882Z" transform="translate(-4477.896 1855.928)" fill="url(#linear-gradient-6)"/>
    <path id="Path_323-2" data-name="Path 323-2" d="M7717.78-764.952a1.306,1.306,0,0,0-.272-.228,1.309,1.309,0,0,0-.451-.176,1.3,1.3,0,0,0-.249-.024h-3.347a1.315,1.315,0,0,0-1.314,1.314v3.792a1.358,1.358,0,0,0,.01.161,1.333,1.333,0,0,0,.108.383,1.329,1.329,0,0,0,.284.4l1.107,1.065.422.411.145.139a1.313,1.313,0,0,0,1.824,0l1.673-1.613a1.309,1.309,0,0,0,.4-.946v-3.792A1.305,1.305,0,0,0,7717.78-764.952Zm-.109,3.7v.981a.87.87,0,0,1-.264.621l-1.673,1.613a.861.861,0,0,1-.6.241.858.858,0,0,1-.6-.241l-.129-.126-.423-.41-1.121-1.08a.868.868,0,0,1-.238-.418.918.918,0,0,1-.026-.2v-3.792a.864.864,0,0,1,.862-.862h3.347a.868.868,0,0,1,.351.077.878.878,0,0,1,.289.212.862.862,0,0,1,.219.573v2.813Z" transform="translate(-4477.896 1855.928)" fill="url(#linear-gradient-7)"/>
    <path id="Path_324-2" data-name="Path 324-2" d="M7717.451-764.641a.892.892,0,0,0-.288-.213.859.859,0,0,0-.352-.076h-3.347a.862.862,0,0,0-.862.861v3.792a.864.864,0,0,0,.026.2.862.862,0,0,0,.238.417l1.121,1.081.422.41.129.125a.868.868,0,0,0,.6.241.861.861,0,0,0,.6-.241l1.673-1.613a.867.867,0,0,0,.264-.622v-3.791A.863.863,0,0,0,7717.451-764.641Zm-2.988,1.738.671-1.311.235.454.208.407.168.327.665,1.3-1.275.795-.966-.6-.308-.193h0Zm.671,3.95-.245-.479-.96-1.875-.017-.032.03.019,1.192.744,1.222-.762-.514,1Z" transform="translate(-4477.896 1855.928)" fill="url(#linear-gradient-8)"/>
    <path id="Path_420" data-name="Path 420" d="M7661.919-726.959a10.516,10.516,0,0,1,1.638-.111,2.541,2.541,0,0,1,1.629.443,1.474,1.474,0,0,1,.547,1.179,1.583,1.583,0,0,1-.468,1.2,2.572,2.572,0,0,1-1.8.575,2.571,2.571,0,0,1-.55-.047v1.966h-1Zm1,2.455a2.206,2.206,0,0,0,.562.054c.775,0,1.259-.352,1.259-.974s-.474-.885-1.175-.885a3.58,3.58,0,0,0-.646.048Z" transform="translate(-4477.896 1855.928)" fill="#fff"/>
    <path id="Path_421" data-name="Path 421" d="M7666.614-727.023h1.006v4.426h2.419v.84h-3.425Z" transform="translate(-4477.896 1855.928)" fill="#fff"/>
    <path id="Path_422" data-name="Path 422" d="M7672-723.284l-.5,1.527h-1.056l1.863-5.266h1.309l1.918,5.266h-1.106l-.542-1.527Zm1.7-.751-.48-1.327c-.114-.321-.207-.636-.294-.921h-.016c-.082.288-.163.607-.267.915l-.465,1.333Z" transform="translate(-4477.896 1855.928)" fill="#fff"/>
    <path id="Path_423" data-name="Path 423" d="M7676.856-721.757v-2.219l-1.835-3.047h1.171l.7,1.374c.2.4.343.664.5,1.009h.016c.145-.319.309-.622.5-1l.721-1.379h1.158L7677.861-724v2.243Z" transform="translate(-4477.896 1855.928)" fill="#fff"/>
    <path id="Path_424" data-name="Path 424" d="M7682.97-726.2h-1.69v-.823h4.4v.823h-1.708v4.443h-1Z" transform="translate(-4477.896 1855.928)" fill="#fff"/>
    <path id="Path_425" data-name="Path 425" d="M7691.317-724.438a2.664,2.664,0,0,1-2.819,2.775,2.583,2.583,0,0,1-2.716-2.67,2.681,2.681,0,0,1,2.793-2.783A2.581,2.581,0,0,1,7691.317-724.438Zm-4.469.076a1.752,1.752,0,0,0,1.7,1.915,1.747,1.747,0,0,0,1.7-1.955,1.76,1.76,0,0,0-1.7-1.931A1.766,1.766,0,0,0,7686.848-724.362Z" transform="translate(-4477.896 1855.928)" fill="#fff"/>
    <path id="Path_426" data-name="Path 426" d="M7697.167-724.072h-2.228v1.5h2.485v.813h-3.49v-5.266h3.366v.814h-2.361v1.323h2.228Z" transform="translate(-4477.896 1855.928)" fill="#fff"/>
    <path id="Path_427" data-name="Path 427" d="M7699.477-723.284l-.5,1.527h-1.057l1.863-5.266h1.309l1.918,5.266h-1.1l-.542-1.527Zm1.7-.751-.48-1.327c-.114-.321-.207-.636-.293-.921h-.016c-.083.288-.164.607-.267.915l-.466,1.333Z" transform="translate(-4477.896 1855.928)" fill="#fff"/>
    <path id="Path_428" data-name="Path 428" d="M7703.777-726.952a10.328,10.328,0,0,1,1.61-.118,2.657,2.657,0,0,1,1.73.438,1.312,1.312,0,0,1,.473,1.055,1.391,1.391,0,0,1-1,1.31v.024a1.383,1.383,0,0,1,.756.991,13.29,13.29,0,0,0,.447,1.495h-1.029a6.508,6.508,0,0,1-.382-1.23c-.168-.687-.436-.909-1.026-.926h-.582v2.156h-1Zm1,2.313h.686c.7,0,1.135-.329,1.135-.849,0-.59-.469-.833-1.117-.833a3.318,3.318,0,0,0-.7.055Z" transform="translate(-4477.896 1855.928)" fill="#fff"/>
    <path id="Path_429" data-name="Path 429" d="M7708.542-721.757v-5.266h1.209l1.521,2.265a13.611,13.611,0,0,1,.99,1.8l.019-.007a18.965,18.965,0,0,1-.084-2.1v-1.954h.939v5.266h-1.071l-1.536-2.341a19.807,19.807,0,0,1-1.066-1.864l-.028.006c.039.71.046,1.388.046,2.178v2.021Z" transform="translate(-4477.896 1855.928)" fill="#fff"/>
    <g id="Group_384" data-name="Group 384" transform="translate(-4477.896 1855.928)">
      <path id="Path_432" data-name="Path 432" d="M7685.956-737.727c.144,0,.276,0,.407,0a.388.388,0,0,1,.414.408.388.388,0,0,1-.41.412c-.131,0-.263,0-.411,0,0,.135,0,.262,0,.388a.391.391,0,0,1-.415.433.39.39,0,0,1-.405-.429c0-.124,0-.248,0-.392-.139,0-.274,0-.408,0a.4.4,0,0,1-.393-.547.376.376,0,0,1,.376-.272c.136,0,.272,0,.425,0,0-.135,0-.262,0-.389a.391.391,0,0,1,.414-.432.39.39,0,0,1,.406.428C7685.957-738,7685.956-737.872,7685.956-737.727Z" fill="#fff"/>
    </g>
    <g id="Group_385" data-name="Group 385" transform="translate(-4477.896 1855.928)">
      <path id="Path_433" data-name="Path 433" d="M7689.653-738.548a.389.389,0,0,1,.408.412.389.389,0,0,1-.412.409.389.389,0,0,1-.408-.413A.388.388,0,0,1,7689.653-738.548Z" fill="#fff"/>
    </g>
    <g id="Group_386" data-name="Group 386" transform="translate(-4477.896 1855.928)">
      <path id="Path_434" data-name="Path 434" d="M7689.24-737.315a.389.389,0,0,1-.412.409.389.389,0,0,1-.408-.413.388.388,0,0,1,.412-.408A.389.389,0,0,1,7689.24-737.315Z" fill="#fff"/>
    </g>
    <g id="Group_387" data-name="Group 387" transform="translate(-4477.896 1855.928)">
      <path id="Path_435" data-name="Path 435" d="M7690.478-736.906a.39.39,0,0,1-.416-.4.389.389,0,0,1,.4-.416.39.39,0,0,1,.416.4A.391.391,0,0,1,7690.478-736.906Z" fill="#fff"/>
    </g>
    <g id="Group_388" data-name="Group 388" transform="translate(-4477.896 1855.928)">
      <path id="Path_436" data-name="Path 436" d="M7690.061-736.5a.389.389,0,0,1-.408.413.389.389,0,0,1-.412-.408.388.388,0,0,1,.408-.413A.388.388,0,0,1,7690.061-736.5Z" fill="#fff"/>
    </g>
    <path id="Path_437" data-name="Path 437" d="M7683.3-731.869a1.9,1.9,0,0,1-.3-.024,1.721,1.721,0,0,1-1.472-1.489,2.27,2.27,0,0,1,.031-.624l.123-.923c.1-.761.2-1.548.332-2.321a3.764,3.764,0,0,1,3.616-3.046q1.928-.01,3.854,0a3.7,3.7,0,0,1,3.645,3.1c.166,1,.314,2,.463,3l.063.427a1.7,1.7,0,0,1-1.356,1.843,2.269,2.269,0,0,1-.249.037l-.1.012h-.04a1.64,1.64,0,0,1-1.485-.917q-.462-.908-.911-1.822c-.034-.069-.063-.085-.13-.078q-1.8.008-3.6,0c-.052-.014-.063.007-.064.007a.175.175,0,0,0-.031.049c-.269.545-.542,1.088-.814,1.631l-.082.162A1.639,1.639,0,0,1,7683.3-731.869Zm4.23-7.509q-.945,0-1.891.006a2.817,2.817,0,0,0-2.711,2.276c-.128.756-.229,1.534-.328,2.287l-.125.937a1.606,1.606,0,0,0-.028.377.808.808,0,0,0,.7.69.722.722,0,0,0,.828-.454l.082-.163q.408-.813.812-1.626a.97.97,0,0,1,.921-.57h.007q1.8.008,3.6,0a1.015,1.015,0,0,1,.962.595q.445.907.9,1.809a.707.707,0,0,0,.664.411l.032,0a1.437,1.437,0,0,0,.157-.022.784.784,0,0,0,.636-.8l-.063-.426c-.148-1-.3-1.994-.461-2.989a2.814,2.814,0,0,0-2.739-2.324Q7688.507-739.377,7687.53-739.378Z" transform="translate(-4477.896 1855.928)" fill="#fff"/>
    <path id="Path_438" data-name="Path 438" d="M7684.764-748.815a.33.33,0,0,0,.239.158q2.591.013,5.18,0a.313.313,0,0,0,.232-.132q1.224-2.449,2.432-4.908a.725.725,0,0,0-.085-.811,5.5,5.5,0,0,0-1.638-1.459,2.357,2.357,0,0,0-2.57.055c-.335.209-.643.461-.956.688-.327-.235-.649-.5-1-.711a2.3,2.3,0,0,0-2.345-.127,5.274,5.274,0,0,0-1.835,1.571.742.742,0,0,0-.055.837C7683.162-752.04,7683.958-750.425,7684.764-748.815Z" transform="translate(-4477.896 1855.928)" fill="#fff"/>
    <path id="Path_439" data-name="Path 439" d="M7696.826-738.93a25.459,25.459,0,0,0-5.578-8.1.452.452,0,0,0-.294-.093h-.01a.625.625,0,0,0-.109-.008c-.861.008-1.723,0-2.607,0a4.289,4.289,0,0,0,.322,1.795,4.616,4.616,0,0,0,.952,1.457.759.759,0,0,1-.351,1.3.9.9,0,0,1-.114.012.847.847,0,0,1-.5-.26,4.855,4.855,0,0,1-.385-.439c-.191-.253-.455-.515-.625-.755-.171.24-.434.5-.626.755a5,5,0,0,1-.384.439.851.851,0,0,1-.5.26.892.892,0,0,1-.114-.012.759.759,0,0,1-.351-1.3,4.6,4.6,0,0,0,.951-1.457,4.282,4.282,0,0,0,.323-1.795c-.884,0-1.746,0-2.608,0a.642.642,0,0,0-.109.008h-.009a.45.45,0,0,0-.294.093,25.477,25.477,0,0,0-5.579,8.1,8.559,8.559,0,0,0-.722,3.095,4.634,4.634,0,0,0,3.4,4.864,12.755,12.755,0,0,0,3.359.611c.15.009.3.032.449.048h5.623c.15-.016.3-.039.45-.048a12.762,12.762,0,0,0,3.359-.611,4.633,4.633,0,0,0,3.4-4.864A8.529,8.529,0,0,0,7696.826-738.93Zm-4.111,7.38a2.163,2.163,0,0,1-2.741-1.094q-.366-.723-.724-1.451a.168.168,0,0,0-.174-.114q-1.478.006-2.955,0a.157.157,0,0,0-.165.1c-.254.516-.5,1.034-.774,1.541a2.026,2.026,0,0,1-1.912,1.147,2.157,2.157,0,0,1-1.986-1.172,1.985,1.985,0,0,1-.227-1.232c.154-1.164.3-2.33.49-3.487a4.237,4.237,0,0,1,3.508-3.4,5.741,5.741,0,0,1,.742-.055c.609-.008,1.219,0,1.829,0s1.209.008,1.814,0a4.278,4.278,0,0,1,4.275,3.787c.127,1.035.273,2.067.418,3.1A2.139,2.139,0,0,1,7692.715-731.55Z" transform="translate(-4477.896 1855.928)" fill="#fff"/>
  </g>
</svg>
