<svg xmlns="http://www.w3.org/2000/svg" width="22.171" height="22.171" viewBox="0 0 22.171 22.171">
  <path id="Icon_material-language" data-name="Icon material-language" d="M14.075,3a11.086,11.086,0,1,0,11.1,11.086A11.08,11.08,0,0,0,14.075,3Zm7.682,6.651h-3.27A17.348,17.348,0,0,0,16.957,5.7,8.9,8.9,0,0,1,21.757,9.651Zm-7.671-4.39A15.616,15.616,0,0,1,16.2,9.651H11.968A15.616,15.616,0,0,1,14.086,5.261ZM5.505,16.3a8.672,8.672,0,0,1,0-4.434H9.252A18.309,18.309,0,0,0,9.1,14.086,18.309,18.309,0,0,0,9.252,16.3Zm.909,2.217h3.27a17.348,17.348,0,0,0,1.53,3.947A8.854,8.854,0,0,1,6.414,18.52Zm3.27-8.869H6.414a8.854,8.854,0,0,1,4.8-3.947A17.348,17.348,0,0,0,9.685,9.651Zm4.4,13.259a15.616,15.616,0,0,1-2.117-4.39H16.2A15.616,15.616,0,0,1,14.086,22.91ZM16.68,16.3H11.492a16.31,16.31,0,0,1-.177-2.217,16.168,16.168,0,0,1,.177-2.217H16.68a16.168,16.168,0,0,1,.177,2.217A16.31,16.31,0,0,1,16.68,16.3Zm.277,6.164a17.348,17.348,0,0,0,1.53-3.947h3.27a8.9,8.9,0,0,1-4.8,3.947ZM18.919,16.3a18.308,18.308,0,0,0,.155-2.217,18.308,18.308,0,0,0-.155-2.217h3.747a8.672,8.672,0,0,1,0,4.434Z" transform="translate(-3 -3)"/>
</svg>
