<svg xmlns="http://www.w3.org/2000/svg" xmlns:xlink="http://www.w3.org/1999/xlink" width="25.001" height="25.008" viewBox="0 0 25.001 25.008">
  <defs>
    <linearGradient id="linear-gradient" y1="0.5" x2="1" y2="0.5" gradientUnits="objectBoundingBox">
      <stop offset="0" stop-color="#4c1c7d"/>
      <stop offset="1" stop-color="#dc30b2"/>
    </linearGradient>
  </defs>
  <g id="Path_18" data-name="Path 18" transform="translate(-470.371 -284.056)">
    <path id="Path_195" data-name="Path 195" d="M494.237,289.739h-2.678a3.953,3.953,0,0,0-3.579-5.683,5.857,5.857,0,0,0-5.114,3.566,5.858,5.858,0,0,0-5.114-3.566,3.982,3.982,0,0,0-3.978,3.978,3.934,3.934,0,0,0,.409,1.705h-2.675a1.136,1.136,0,0,0-1.136,1.136v5.682a1.136,1.136,0,0,0,1.136,1.136h1.136v10.235a1.136,1.136,0,0,0,1.136,1.136h18.183a1.136,1.136,0,0,0,1.136-1.136V297.7h1.136a1.136,1.136,0,0,0,1.136-1.136v-5.682a1.136,1.136,0,0,0-1.13-1.143Zm-6.25-3.409a1.705,1.705,0,0,1,0,3.409H484.4c.533-1.4,1.638-3.4,3.585-3.4Zm-11.928,1.71a1.706,1.706,0,0,1,1.705-1.705c1.946,0,3.049,2,3.585,3.409h-3.59A1.706,1.706,0,0,1,476.058,288.04Zm-3.409,3.978h9.092v3.409h-9.092Zm2.273,5.682h6.819v9.092h-6.819Zm15.91,9.092h-6.823V297.7h6.819Zm2.273-11.365h-9.1v-3.409H493.1Z" transform="translate(0 0)" fill="url(#linear-gradient)"/>
  </g>
</svg>
