<svg xmlns="http://www.w3.org/2000/svg" xmlns:xlink="http://www.w3.org/1999/xlink" width="22" height="20.005" viewBox="0 0 22 20.005">
  <defs>
    <linearGradient id="linear-gradient" y1="0.5" x2="1" y2="0.5" gradientUnits="objectBoundingBox">
      <stop offset="0" stop-color="#4c1c7d"/>
      <stop offset="1" stop-color="#dc30b2"/>
    </linearGradient>
    <clipPath id="clip-path">
      <path id="Path_230" data-name="Path 230" d="M650.694,301.561a.59.59,0,0,0-.444-.571.672.672,0,0,0-.243-.046.62.62,0,0,0-.408.149l-.054.049a2.947,2.947,0,0,1-3.89,0,2.406,2.406,0,0,1-.806-1.768,2.374,2.374,0,0,1,.806-1.768l.048-.043a.51.51,0,0,0,.115-.606.6.6,0,0,0-.542-.328h-.155a2.512,2.512,0,1,1,0-5,.64.64,0,0,0,.629-.4.5.5,0,0,0-.112-.591l-.054-.049a2.342,2.342,0,0,1,0-3.537,2.948,2.948,0,0,1,3.887,0l.048.043a.644.644,0,0,0,.657.108,1.039,1.039,0,0,1,.183-.053.527.527,0,0,0,.261-.442v-.142a2.763,2.763,0,0,1,5.5,0v.072a.545.545,0,0,0,.37.5.632.632,0,0,0,.243.046.613.613,0,0,0,.408-.148l.054-.049a2.947,2.947,0,0,1,3.89,0,2.342,2.342,0,0,1,0,3.537l-.048.043a.5.5,0,0,0-.12.6.767.767,0,0,1,.059.166.606.606,0,0,0,.487.237h.156a2.51,2.51,0,1,1,0,5h-.078a.6.6,0,0,0-.545.328.5.5,0,0,0,.108.6l.054.05a2.342,2.342,0,0,1,0,3.537,2.905,2.905,0,0,1-1.945.733,2.87,2.87,0,0,1-1.945-.733l-.048-.044a.627.627,0,0,0-.415-.154.681.681,0,0,0-.252.049.541.541,0,0,0-.361.492v.142a2.763,2.763,0,0,1-5.5,0Zm.243-2.115a2.233,2.233,0,0,1,1.59,2.04v.075a.921.921,0,0,0,1.833,0v-.145a2.207,2.207,0,0,1,1.464-2.017,2.62,2.62,0,0,1,.978-.187,2.565,2.565,0,0,1,1.708.636l.056.05a.972.972,0,0,0,.648.244.961.961,0,0,0,.649-.245.78.78,0,0,0,.078-1.1.828.828,0,0,0-.078-.079l-.062-.056a2.051,2.051,0,0,1-.486-2.436,2.443,2.443,0,0,1,2.223-1.33h.082a.837.837,0,1,0,.163-1.666.887.887,0,0,0-.163,0h-.159a2.444,2.444,0,0,1-2.223-1.338.758.758,0,0,1-.066-.22,2.061,2.061,0,0,1,.563-2.281l.055-.05a.779.779,0,0,0,0-1.179.984.984,0,0,0-1.3,0l-.062.057a2.609,2.609,0,0,1-2.669.445,2.214,2.214,0,0,1-1.473-2.024v-.078a.921.921,0,0,0-1.833,0v.145a2.21,2.21,0,0,1-1.472,2.02.932.932,0,0,1-.243.061,2.62,2.62,0,0,1-.8.124,2.56,2.56,0,0,1-1.706-.636l-.06-.05a.972.972,0,0,0-.648-.244.959.959,0,0,0-.649.245.781.781,0,0,0-.077,1.1.7.7,0,0,0,.077.077l.067.056a2.04,2.04,0,0,1,.507,2.387,2.426,2.426,0,0,1-2.245,1.446h-.082a.837.837,0,0,0-.164,1.666.748.748,0,0,0,.164,0h.16a2.441,2.441,0,0,1,2.219,1.33,2.058,2.058,0,0,1-.493,2.442l-.055.051a.8.8,0,0,0-.269.589.793.793,0,0,0,.27.59.98.98,0,0,0,1.3,0l.063-.056a2.6,2.6,0,0,1,1.707-.635,2.472,2.472,0,0,1,.915.175Zm-1.233-5.385a3.684,3.684,0,1,1,3.667,3.333A3.512,3.512,0,0,1,649.7,294.061Z" fill="url(#linear-gradient)"/>
    </clipPath>
  </defs>
  <g id="Group_265" data-name="Group 265" transform="translate(-642.371 -284.058)">
    <path id="Path_229" data-name="Path 229" d="M650.694,301.561a.59.59,0,0,0-.444-.571.672.672,0,0,0-.243-.046.62.62,0,0,0-.408.149l-.054.049a2.947,2.947,0,0,1-3.89,0,2.406,2.406,0,0,1-.806-1.768,2.374,2.374,0,0,1,.806-1.768l.048-.043a.51.51,0,0,0,.115-.606.6.6,0,0,0-.542-.328h-.155a2.512,2.512,0,1,1,0-5,.64.64,0,0,0,.629-.4.5.5,0,0,0-.112-.591l-.054-.049a2.342,2.342,0,0,1,0-3.537,2.948,2.948,0,0,1,3.887,0l.048.043a.644.644,0,0,0,.657.108,1.039,1.039,0,0,1,.183-.053.527.527,0,0,0,.261-.442v-.142a2.763,2.763,0,0,1,5.5,0v.072a.545.545,0,0,0,.37.5.632.632,0,0,0,.243.046.613.613,0,0,0,.408-.148l.054-.049a2.947,2.947,0,0,1,3.89,0,2.342,2.342,0,0,1,0,3.537l-.048.043a.5.5,0,0,0-.12.6.767.767,0,0,1,.059.166.606.606,0,0,0,.487.237h.156a2.51,2.51,0,1,1,0,5h-.078a.6.6,0,0,0-.545.328.5.5,0,0,0,.108.6l.054.05a2.342,2.342,0,0,1,0,3.537,2.905,2.905,0,0,1-1.945.733,2.87,2.87,0,0,1-1.945-.733l-.048-.044a.627.627,0,0,0-.415-.154.681.681,0,0,0-.252.049.541.541,0,0,0-.361.492v.142a2.763,2.763,0,0,1-5.5,0Zm.243-2.115a2.233,2.233,0,0,1,1.59,2.04v.075a.921.921,0,0,0,1.833,0v-.145a2.207,2.207,0,0,1,1.464-2.017,2.62,2.62,0,0,1,.978-.187,2.565,2.565,0,0,1,1.708.636l.056.05a.972.972,0,0,0,.648.244.961.961,0,0,0,.649-.245.78.78,0,0,0,.078-1.1.828.828,0,0,0-.078-.079l-.062-.056a2.051,2.051,0,0,1-.486-2.436,2.443,2.443,0,0,1,2.223-1.33h.082a.837.837,0,1,0,.163-1.666.887.887,0,0,0-.163,0h-.159a2.444,2.444,0,0,1-2.223-1.338.758.758,0,0,1-.066-.22,2.061,2.061,0,0,1,.563-2.281l.055-.05a.779.779,0,0,0,0-1.179.984.984,0,0,0-1.3,0l-.062.057a2.609,2.609,0,0,1-2.669.445,2.214,2.214,0,0,1-1.473-2.024v-.078a.921.921,0,0,0-1.833,0v.145a2.21,2.21,0,0,1-1.472,2.02.932.932,0,0,1-.243.061,2.62,2.62,0,0,1-.8.124,2.56,2.56,0,0,1-1.706-.636l-.06-.05a.972.972,0,0,0-.648-.244.959.959,0,0,0-.649.245.781.781,0,0,0-.077,1.1.7.7,0,0,0,.077.077l.067.056a2.04,2.04,0,0,1,.507,2.387,2.426,2.426,0,0,1-2.245,1.446h-.082a.837.837,0,0,0-.164,1.666.748.748,0,0,0,.164,0h.16a2.441,2.441,0,0,1,2.219,1.33,2.058,2.058,0,0,1-.493,2.442l-.055.051a.8.8,0,0,0-.269.589.793.793,0,0,0,.27.59.98.98,0,0,0,1.3,0l.063-.056a2.6,2.6,0,0,1,1.707-.635,2.472,2.472,0,0,1,.915.175Zm-1.233-5.385a3.684,3.684,0,1,1,3.667,3.333A3.512,3.512,0,0,1,649.7,294.061Z" fill="url(#linear-gradient)"/>
    <g id="Group_249" data-name="Group 249" clip-path="url(#clip-path)">
      <g id="Mask_Group_144" data-name="Mask Group 144">
        <g id="_Color-2" data-name=" Color-2">
          <g id="Color-2">
            <rect id="Rectangle_178" data-name="Rectangle 178" width="24" height="22" transform="translate(641.371 283.061)" fill="url(#linear-gradient)"/>
          </g>
        </g>
      </g>
    </g>
  </g>
</svg>
