<svg xmlns="http://www.w3.org/2000/svg" width="21.864" height="16.662" viewBox="0 0 21.864 16.662">
  <path id="Icon_awesome-sign-out-alt" data-name="Icon awesome-sign-out-alt" d="M21.561,13.566l-7.288,7.288a1.043,1.043,0,0,1-1.779-.738V15.952h-5.9a1.039,1.039,0,0,1-1.041-1.041V10.747A1.039,1.039,0,0,1,6.594,9.705h5.9V5.541A1.043,1.043,0,0,1,14.273,4.8l7.288,7.288A1.05,1.05,0,0,1,21.561,13.566ZM8.329,20.638V18.9a.522.522,0,0,0-.521-.521H4.165a1.387,1.387,0,0,1-1.388-1.388V8.664A1.387,1.387,0,0,1,4.165,7.276H7.809a.522.522,0,0,0,.521-.521V5.02A.522.522,0,0,0,7.809,4.5H4.165A4.166,4.166,0,0,0,0,8.664v8.329a4.166,4.166,0,0,0,4.165,4.165H7.809A.522.522,0,0,0,8.329,20.638Z" transform="translate(0 -4.499)"/>
</svg>
