<svg xmlns="http://www.w3.org/2000/svg" width="16.47" height="16.471" viewBox="0 0 16.47 16.471">
  <g id="coins" transform="translate(-526.13 -383.891)">
    <path id="Path_284" data-name="Path 284" d="M535.394,394.185a20.206,20.206,0,0,1-4.407-.434,5.151,5.151,0,0,1-2.542-1.094,22.027,22.027,0,0,0,4.89.5,24.6,24.6,0,0,0,3.756-.274,11.6,11.6,0,0,0,2.872-.756q1.094-.482,1.093-1.03v-1.031h.515a1.388,1.388,0,0,1,.748.394.916.916,0,0,1,.281.636v1.03q0,.563-.964,1.038a9.584,9.584,0,0,1-2.622.748A22.5,22.5,0,0,1,535.394,394.185Zm-1.031-4.123a22.286,22.286,0,0,1-2.863-.169,13.32,13.32,0,0,1-2.075-.4,8.594,8.594,0,0,1-1.31-.5,3.315,3.315,0,0,1-.748-.458c-.138-.126-.207-.216-.207-.269v-.628a7.34,7.34,0,0,0,2.832,1.006,24.488,24.488,0,0,0,8.75,0,7.33,7.33,0,0,0,2.83-1.006v.376q0,.546-.965,1.021a9.735,9.735,0,0,1-2.621.756,21.635,21.635,0,0,1-3.622.276Zm0-2.062a21.607,21.607,0,0,1-3.619-.282,9.735,9.735,0,0,1-2.621-.756q-.963-.465-.963-1.02t.965-1.031a9.656,9.656,0,0,1,2.621-.747,24.123,24.123,0,0,1,7.238,0,9.659,9.659,0,0,1,2.621.748q.965.474.965,1.031t-.965,1.031a9.819,9.819,0,0,1-2.621.756,21.625,21.625,0,0,1-3.62.284Zm-7.72,1.031q0,.546,1.094,1.031a11.672,11.672,0,0,0,2.871.756,24.707,24.707,0,0,0,3.755.273,24.312,24.312,0,0,0,3.442-.229,13.66,13.66,0,0,0,2.735-.634l-.056.1a1.494,1.494,0,0,1-.25.265,3.049,3.049,0,0,1-.506.369,6.1,6.1,0,0,1-.868.4,8.234,8.234,0,0,1-1.288.378,16.945,16.945,0,0,1-1.822.267,23.4,23.4,0,0,1-2.412.115,21.714,21.714,0,0,1-3.619-.282,9.79,9.79,0,0,1-2.622-.756q-.967-.475-.967-1.023v-1.03a1,1,0,0,1,.514-.756Zm0,5.421v.755q0,.547,1.094,1.031a11.583,11.583,0,0,0,2.871.756,24.708,24.708,0,0,0,3.755.274,24.97,24.97,0,0,0,3.4-.229,13.579,13.579,0,0,0,2.742-.628q-.242.8-2.3,1.344a19.454,19.454,0,0,1-4.873.538,22.274,22.274,0,0,1-3.62-.274,9.659,9.659,0,0,1-2.621-.748q-.963-.463-.963-1.028v-1.031a1,1,0,0,1,.514-.754Zm8.75.755a23.961,23.961,0,0,0,3.417-.229,13.561,13.561,0,0,0,2.726-.634q-.228.8-2.283,1.351a19.221,19.221,0,0,1-4.89.547,22.261,22.261,0,0,1-3.619-.274,9.647,9.647,0,0,1-2.621-.748q-.963-.473-.963-1.035v-1.031a.994.994,0,0,1,.467-.724c.161.054.3.1.418.128a.868.868,0,0,0-.306.6q0,.546,1.078,1.031a11.361,11.361,0,0,0,2.847.756,24.5,24.5,0,0,0,3.73.273Zm5.661,2.062v-.756a1,1,0,0,1,.514.756V398.3q0,.563-.964,1.037a9.584,9.584,0,0,1-2.622.748,22.375,22.375,0,0,1-3.619.274,19.208,19.208,0,0,1-4.888-.549q-2.061-.546-2.284-1.351a13.65,13.65,0,0,0,2.726.636,24.279,24.279,0,0,0,3.418.229,24.708,24.708,0,0,0,3.755-.274,11.6,11.6,0,0,0,2.872-.756q1.094-.474,1.093-1.022Z" fill="#fff"/>
  </g>
</svg>
