<svg xmlns="http://www.w3.org/2000/svg" xmlns:xlink="http://www.w3.org/1999/xlink" width="22" height="18" viewBox="0 0 22 18">
  <defs>
    <clipPath id="clip-path">
      <path id="Shape" d="M3,18a3,3,0,0,1-3-3V3.01C0,3,0,2.99,0,2.98A3,3,0,0,1,3,0H19a3,3,0,0,1,3,3V15a3,3,0,0,1-3,3ZM2,15a1,1,0,0,0,1,1H19a1,1,0,0,0,1-1V4.921l-8.426,5.9a1,1,0,0,1-1.147,0L2,4.921ZM11,8.78l8.894-6.226A1,1,0,0,0,19,2H3a1,1,0,0,0-.895.553Z" transform="translate(0)"/>
    </clipPath>
  </defs>
  <g id="Group_52" data-name="Group 52" transform="translate(0)">
    <path id="Shape-2" data-name="Shape" d="M3,18a3,3,0,0,1-3-3V3.01C0,3,0,2.99,0,2.98A3,3,0,0,1,3,0H19a3,3,0,0,1,3,3V15a3,3,0,0,1-3,3ZM2,15a1,1,0,0,0,1,1H19a1,1,0,0,0,1-1V4.921l-8.426,5.9a1,1,0,0,1-1.147,0L2,4.921ZM11,8.78l8.894-6.226A1,1,0,0,0,19,2H3a1,1,0,0,0-.895.553Z" transform="translate(0)"/>
    <g id="Mask_Group_52" data-name="Mask Group 52" clip-path="url(#clip-path)">
      <g id="_Color" data-name="↳ 🎨Color" transform="translate(-2 -4)">
        <rect id="Color" width="26" height="26"/>
      </g>
    </g>
  </g>
</svg>
