<svg xmlns="http://www.w3.org/2000/svg" width="264" height="160.922" viewBox="0 0 264 160.922">
  <g id="Group_954" data-name="Group 954" transform="translate(-119 -246.94)">
    <text id="No_Internet_Connecti" data-name="No Internet Connecti" transform="translate(251 388.863)" font-size="34" font-family="Dubai-Light, Dubai" font-weight="300"><tspan x="-131" y="0">To be announced.....</tspan></text>
    <g id="Group_953" data-name="Group 953" transform="translate(203.493 246.94)">
      <path id="Path_1943" data-name="Path 1943" d="M306.878,239.523l17.63,7.747a20.348,20.348,0,0,1,11.712,14.366l2.834,13.225c.837,3.9-1.126,6.445-5.623,8.487-5.177,2.893-26.918,6.185-46.062,6.32-16.718.2-32.722-1.416-46.33-6.466-4.327-1.41-6.192-4.437-5.356-8.342l2.834-13.225a20.348,20.348,0,0,1,11.712-14.366l17.619-7.742a1.635,1.635,0,0,1,2.233,1.059c1.846,11.555,7.881,33.039,9.193,33.039s5.076-15.772,5.076-15.772a3.03,3.03,0,0,0-.207-2.349l-1.437-2.711a1.635,1.635,0,0,1,.19-1.815l4-4.789a.629.629,0,0,1,.957-.009l4.06,4.68a1.635,1.635,0,0,1,.237,1.785l-1.356,2.8a3.029,3.029,0,0,0-.184,2.165s3.322,16.018,4.635,16.018,7.923-22.3,9.4-33.053A1.635,1.635,0,0,1,306.878,239.523Z" transform="translate(-235.488 -185.095)" fill="#61388d"/>
      <g id="Group_952" data-name="Group 952" transform="translate(29.57)">
        <path id="Path_1944" data-name="Path 1944" d="M302.107,195.736a4.784,4.784,0,1,0,4.794,4.781A4.785,4.785,0,0,0,302.107,195.736Z" transform="translate(-279.796 -174.691)" fill="#61388d"/>
        <path id="Path_1945" data-name="Path 1945" d="M318.246,212.083l-2.03-2.607a9.5,9.5,0,0,1-2-5.837V185.89a17.594,17.594,0,1,0-35.186-.191v17.94a9.5,9.5,0,0,1-2,5.837l-2.03,2.607a3.2,3.2,0,0,0,2.521,5.159h38.213A3.2,3.2,0,0,0,318.246,212.083Zm-8.761-15.6a.393.393,0,0,1-.328.316q-1.392.323-2.774.68a.484.484,0,0,0-.259.219c-.107.188-.167.4-.271.592a.407.407,0,0,0,.03.459c.465.773.925,1.55,1.371,2.334a.427.427,0,0,1,.01.357,8.362,8.362,0,0,1-3.356,3.39.372.372,0,0,1-.433,0c-.788-.489-1.587-.96-2.373-1.452a.446.446,0,0,0-.529-.029.37.37,0,0,1-.139.058c-.508.075-.683.409-.78.877-.155.752-.367,1.492-.57,2.232a.406.406,0,0,1-.227.246,8.376,8.376,0,0,1-4.793.027.371.371,0,0,1-.3-.311q-.323-1.392-.68-2.774c-.027-.107-.145-.2-.235-.28-.046-.042-.131-.039-.182-.078a.972.972,0,0,0-1.258.073c-.625.417-1.293.768-1.936,1.157a.315.315,0,0,1-.365.006,8.544,8.544,0,0,1-3.409-3.411.319.319,0,0,1,.017-.364c.5-.8.982-1.613,1.478-2.416a.38.38,0,0,0,.037-.457.781.781,0,0,1-.111-.278c-.074-.421-.345-.577-.743-.663-.782-.171-1.553-.4-2.331-.59a.318.318,0,0,1-.264-.255,8.607,8.607,0,0,1-.015-4.774.376.376,0,0,1,.315-.3c.911-.211,1.817-.442,2.728-.654a.4.4,0,0,0,.349-.3.621.621,0,0,1,.085-.209.871.871,0,0,0-.056-1.105c-.43-.656-.81-1.345-1.2-2.029a.405.405,0,0,1-.013-.336,8.429,8.429,0,0,1,3.374-3.409.376.376,0,0,1,.433.018c.781.484,1.571.954,2.352,1.439a.43.43,0,0,0,.528.037.061.061,0,0,1,.023-.009c.619-.1.845-.5.95-1.085.123-.68.342-1.343.5-2.017a.405.405,0,0,1,.335-.338,8.493,8.493,0,0,1,4.724.01.355.355,0,0,1,.283.3q.328,1.4.686,2.8a.476.476,0,0,0,.219.26c.2.112.433.177.638.287a.326.326,0,0,0,.367-.022c.8-.475,1.595-.947,2.4-1.406a.4.4,0,0,1,.333-.008,8.418,8.418,0,0,1,3.406,3.376.354.354,0,0,1-.007.408c-.5.81-.992,1.627-1.491,2.438a.328.328,0,0,0-.031.389.486.486,0,0,1,.075.185c.085.546.452.73.951.832.727.149,1.44.368,2.162.543a.339.339,0,0,1,.28.271,8.89,8.89,0,0,1,.337,2.523A7.785,7.785,0,0,1,309.485,196.484Z" transform="translate(-274.311 -168.106)" fill="#61388d"/>
      </g>
    </g>
  </g>
</svg>
