<svg id="Group_400" data-name="Group 400" xmlns="http://www.w3.org/2000/svg" width="43.516" height="43.516" viewBox="0 0 43.516 43.516">
  <path id="Path_457" data-name="Path 457" d="M7437.052-304.63a21.8,21.8,0,0,0-21.792,21.738,21.8,21.8,0,0,0,21.7,21.778,21.792,21.792,0,0,0,21.82-21.71A21.79,21.79,0,0,0,7437.052-304.63Z" transform="translate(-7415.26 304.63)" fill="#259c77"/>
  <g id="Group_399" data-name="Group 399" transform="translate(11.941 11.904)">
    <path id="Path_458" data-name="Path 458" d="M7448.063-282.8h7.023c.594,0,.648.057.648.657,0,.737-.011,1.473.005,2.21.007.377-.152.51-.52.508-1.513-.011-3.025-.005-4.538,0-.705,0-.926.217-.926.915q0,3.808,0,7.615c0,.57-.042.619-.6.623q-1.105.009-2.209,0c-.481,0-.545-.072-.546-.555q0-3.788,0-7.576c0-.835-.187-1.021-1.02-1.021H7441c-.531,0-.58-.051-.581-.594q0-1.085,0-2.17c0-.536.07-.6.621-.605Q7444.551-282.8,7448.063-282.8Z" transform="translate(-7438.64 282.801)" fill="#f7f7f7"/>
    <path id="Path_459" data-name="Path 459" d="M7461.01-266.2v-1.9c0-.317.135-.507.479-.463a15.668,15.668,0,0,1,5.021,1.293,4.157,4.157,0,0,1,.668.412c.6.46.612.818.017,1.278a4.445,4.445,0,0,1-.809.5,16.449,16.449,0,0,1-4.912,1.236c-.349.045-.464-.174-.464-.483Z" transform="translate(-7448.002 276.331)" fill="#f7f7f7"/>
    <path id="Path_460" data-name="Path 460" d="M7443.806-266.209v1.863c0,.332-.129.539-.5.49a16.607,16.607,0,0,1-4.68-1.152,5.416,5.416,0,0,1-1.155-.712c-.415-.333-.436-.7.01-.989a8.628,8.628,0,0,1,2.119-1.072c1.17-.348,2.388-.542,3.591-.773.473-.091.6.046.609.521C7443.81-267.424,7443.806-266.816,7443.806-266.209Z" transform="translate(-7437.157 276.334)" fill="#f7f7f7"/>
    <path id="Path_461" data-name="Path 461" d="M7451.384-254.5c0-.789.009-1.577,0-2.365-.007-.366.127-.525.508-.516.788.017,1.577.015,2.364,0,.361-.007.49.149.488.5q-.011,2.424,0,4.847c0,.348-.132.5-.489.5-.8-.011-1.6-.009-2.4,0-.336,0-.47-.149-.467-.479C7451.39-252.842,7451.384-253.669,7451.384-254.5Z" transform="translate(-7443.624 271.242)" fill="#f7f7f7"/>
  </g>
</svg>
