<svg xmlns="http://www.w3.org/2000/svg" width="216.605" height="216.537" viewBox="0 0 216.605 216.537">
  <path id="Path_1862" data-name="Path 1862" d="M186.666,298.388q-2.051,0-4.084-.076a1.373,1.373,0,0,1-1.32-1.423,1.346,1.346,0,0,1,1.423-1.321c2.683.1,5.4.1,8.086,0a1.373,1.373,0,1,1,.1,2.744Q188.78,298.387,186.666,298.388Zm-12.2-.69a1.282,1.282,0,0,1-.157-.009c-2.739-.309-5.5-.731-8.2-1.25a1.373,1.373,0,0,1,.518-2.7c2.632.507,5.321.916,7.99,1.219a1.372,1.372,0,0,1-.152,2.736Zm24.516-.013a1.373,1.373,0,0,1-.156-2.736c2.674-.309,5.363-.722,7.99-1.228a1.372,1.372,0,1,1,.521,2.7c-2.7.521-5.453.945-8.2,1.26A1.339,1.339,0,0,1,198.987,297.685ZM158.4,294.612a1.419,1.419,0,0,1-.363-.049c-2.668-.731-5.33-1.57-7.911-2.5a1.373,1.373,0,0,1,.928-2.584c2.515.9,5.108,1.721,7.709,2.432a1.373,1.373,0,0,1-.362,2.7Zm56.656-.034a1.373,1.373,0,0,1-.362-2.7c2.583-.711,5.176-1.531,7.706-2.442a1.373,1.373,0,1,1,.928,2.585c-2.6.933-5.256,1.775-7.907,2.5A1.366,1.366,0,0,1,215.054,294.579Zm-72.071-5.491a1.354,1.354,0,0,1-.561-.121c-2.52-1.129-5.023-2.369-7.439-3.684a1.373,1.373,0,0,1,1.312-2.412c2.355,1.282,4.795,2.49,7.25,3.591a1.373,1.373,0,0,1-.562,2.625Zm87.465-.046a1.372,1.372,0,0,1-.562-2.624c2.441-1.1,4.876-2.3,7.234-3.592a1.373,1.373,0,1,1,1.315,2.41c-2.421,1.321-4.918,2.561-7.425,3.686A1.377,1.377,0,0,1,230.448,289.042ZM128.6,281.262a1.357,1.357,0,0,1-.745-.222c-2.316-1.5-4.6-3.106-6.786-4.775a1.372,1.372,0,1,1,1.665-2.182c2.131,1.625,4.356,3.191,6.615,4.654a1.373,1.373,0,0,1-.749,2.525Zm116.215-.046a1.373,1.373,0,0,1-.749-2.525c2.252-1.463,4.475-3.03,6.607-4.658a1.373,1.373,0,1,1,1.667,2.183c-2.187,1.669-4.467,3.276-6.777,4.778A1.376,1.376,0,0,1,244.811,281.216Zm-129.234-9.881a1.365,1.365,0,0,1-.913-.347c-2.062-1.837-4.074-3.772-5.98-5.751a1.372,1.372,0,0,1,1.977-1.9c1.857,1.928,3.819,3.813,5.83,5.6a1.373,1.373,0,0,1-.914,2.4Zm142.24-.054a1.372,1.372,0,0,1-.915-2.4c2.008-1.793,3.968-3.68,5.826-5.609a1.373,1.373,0,0,1,1.978,1.9c-1.9,1.98-3.916,3.916-5.975,5.754A1.367,1.367,0,0,1,257.817,271.281Zm-153.6-11.73a1.377,1.377,0,0,1-1.059-.5c-1.758-2.127-3.452-4.345-5.037-6.59a1.373,1.373,0,1,1,2.244-1.583c1.544,2.189,3.2,4.35,4.909,6.421a1.373,1.373,0,0,1-1.057,2.248Zm164.949-.062a1.374,1.374,0,0,1-1.058-2.248c1.713-2.074,3.363-4.237,4.908-6.429a1.373,1.373,0,1,1,2.244,1.583c-1.584,2.248-3.278,4.467-5.034,6.6A1.373,1.373,0,0,1,269.167,259.489ZM94.783,246.181a1.371,1.371,0,0,1-1.179-.669c-1.411-2.364-2.748-4.811-3.974-7.276a1.373,1.373,0,0,1,2.459-1.223c1.194,2.4,2.5,4.788,3.872,7.091a1.374,1.374,0,0,1-1.178,2.076ZM278.6,246.1a1.357,1.357,0,0,1-.7-.193,1.372,1.372,0,0,1-.478-1.882c1.378-2.314,2.68-4.7,3.871-7.106a1.373,1.373,0,0,1,2.459,1.221c-1.222,2.464-2.557,4.917-3.97,7.29A1.374,1.374,0,0,1,278.6,246.1ZM87.5,231.538a1.372,1.372,0,0,1-1.272-.858c-1.034-2.553-1.98-5.179-2.812-7.8a1.373,1.373,0,0,1,2.618-.831c.811,2.56,1.734,5.118,2.74,7.606a1.374,1.374,0,0,1-1.273,1.888Zm198.374-.111a1.354,1.354,0,0,1-.513-.1,1.372,1.372,0,0,1-.76-1.786c1.005-2.494,1.926-5.056,2.735-7.617a1.373,1.373,0,0,1,2.618.829c-.83,2.627-1.775,5.256-2.806,7.816A1.372,1.372,0,0,1,285.874,231.427ZM82.55,215.939a1.373,1.373,0,0,1-1.335-1.059c-.626-2.676-1.159-5.416-1.579-8.143a1.373,1.373,0,1,1,2.713-.418c.411,2.658.928,5.327,1.539,7.933a1.374,1.374,0,0,1-1.023,1.651A1.461,1.461,0,0,1,82.55,215.939Zm208.259-.124a1.3,1.3,0,0,1-.312-.036,1.373,1.373,0,0,1-1.026-1.648c.608-2.611,1.124-5.282,1.53-7.937a1.373,1.373,0,0,1,2.714.416c-.418,2.723-.946,5.465-1.57,8.143A1.372,1.372,0,0,1,290.809,215.815ZM80.052,199.765a1.373,1.373,0,0,1-1.368-1.268c-.21-2.74-.318-5.529-.321-8.286a1.373,1.373,0,0,1,1.371-1.375h0a1.373,1.373,0,0,1,1.373,1.371c0,2.69.108,5.408.313,8.081a1.373,1.373,0,0,1-1.263,1.473C80.123,199.763,80.089,199.765,80.052,199.765Zm213.237-.124c-.035,0-.071,0-.106-.005a1.372,1.372,0,0,1-1.266-1.472c.2-2.669.305-5.387.305-8.079v-.241a1.372,1.372,0,0,1,1.366-1.379h.006a1.374,1.374,0,0,1,1.373,1.368v.258c0,2.756-.1,5.542-.312,8.28A1.375,1.375,0,0,1,293.289,199.641ZM80.037,183.4c-.035,0-.068,0-.1,0a1.374,1.374,0,0,1-1.267-1.471c.206-2.752.519-5.524.932-8.241a1.373,1.373,0,1,1,2.714.412c-.4,2.649-.708,5.351-.907,8.032A1.373,1.373,0,0,1,80.037,183.4Zm213.23-.373a1.373,1.373,0,0,1-1.368-1.266c-.209-2.681-.523-5.384-.936-8.03a1.373,1.373,0,0,1,2.713-.421c.423,2.716.746,5.487.96,8.237a1.374,1.374,0,0,1-1.262,1.476C293.34,183.026,293.3,183.027,293.267,183.027ZM82.5,167.222a1.423,1.423,0,0,1-.311-.035,1.376,1.376,0,0,1-1.029-1.648c.623-2.683,1.357-5.376,2.183-8a1.373,1.373,0,1,1,2.619.824c-.806,2.558-1.521,5.184-2.127,7.8A1.374,1.374,0,0,1,82.5,167.222Zm208.255-.363a1.374,1.374,0,0,1-1.335-1.058c-.615-2.611-1.339-5.233-2.155-7.791a1.373,1.373,0,1,1,2.616-.834c.837,2.625,1.581,5.317,2.212,7.995a1.375,1.375,0,0,1-1.022,1.652A1.474,1.474,0,0,1,290.751,166.858ZM87.411,151.6a1.373,1.373,0,0,1-1.273-1.886c1.029-2.556,2.169-5.107,3.391-7.577a1.373,1.373,0,1,1,2.462,1.217c-1.191,2.409-2.3,4.893-3.3,7.385A1.375,1.375,0,0,1,87.411,151.6Zm198.375-.336a1.374,1.374,0,0,1-1.273-.857c-1.005-2.48-2.124-4.957-3.323-7.362a1.373,1.373,0,0,1,2.457-1.226c1.231,2.468,2.378,5.011,3.412,7.555a1.373,1.373,0,0,1-1.272,1.89ZM94.67,136.92a1.374,1.374,0,0,1-1.179-2.074c1.406-2.366,2.923-4.711,4.51-6.968a1.373,1.373,0,1,1,2.247,1.579c-1.547,2.2-3.025,4.485-4.4,6.791A1.372,1.372,0,0,1,94.67,136.92Zm183.819-.294a1.375,1.375,0,0,1-1.181-.668c-1.375-2.3-2.86-4.577-4.412-6.772a1.372,1.372,0,0,1,2.241-1.584c1.593,2.25,3.115,4.587,4.528,6.946a1.371,1.371,0,0,1-1.177,2.078Zm-174.4-13.1a1.373,1.373,0,0,1-1.058-2.245c1.752-2.127,3.606-4.213,5.513-6.2a1.373,1.373,0,1,1,1.981,1.9c-1.859,1.936-3.667,3.97-5.375,6.042A1.371,1.371,0,0,1,104.085,123.523Zm164.953-.253a1.365,1.365,0,0,1-1.058-.5c-1.709-2.063-3.524-4.091-5.391-6.024a1.373,1.373,0,0,1,1.973-1.909c1.918,1.984,3.779,4.064,5.533,6.181a1.373,1.373,0,0,1-1.057,2.249ZM115.425,111.717a1.373,1.373,0,0,1-.915-2.4c2.051-1.833,4.2-3.611,6.388-5.287a1.373,1.373,0,1,1,1.669,2.181c-2.132,1.633-4.228,3.367-6.228,5.154A1.369,1.369,0,0,1,115.425,111.717Zm142.239-.219a1.367,1.367,0,0,1-.911-.345c-2.009-1.786-4.112-3.513-6.246-5.137a1.373,1.373,0,0,1,1.663-2.186c2.19,1.665,4.345,3.439,6.407,5.269a1.373,1.373,0,0,1-.913,2.4ZM128.42,101.77a1.372,1.372,0,0,1-.75-2.522c2.307-1.5,4.7-2.932,7.117-4.253A1.372,1.372,0,0,1,136.1,97.4c-2.354,1.289-4.688,2.683-6.937,4.146A1.376,1.376,0,0,1,128.42,101.77Zm116.21-.18a1.363,1.363,0,0,1-.744-.22c-2.259-1.459-4.6-2.848-6.957-4.127a1.373,1.373,0,0,1,1.31-2.414c2.419,1.312,4.82,2.738,7.138,4.235a1.373,1.373,0,0,1-.746,2.526ZM142.772,93.923a1.373,1.373,0,0,1-.565-2.625c2.508-1.129,5.092-2.177,7.68-3.111a1.373,1.373,0,0,1,.933,2.582c-2.522.913-5.041,1.932-7.486,3.034A1.369,1.369,0,0,1,142.772,93.923Zm87.462-.143a1.37,1.37,0,0,1-.559-.12c-2.451-1.1-4.978-2.11-7.509-3.013a1.373,1.373,0,1,1,.924-2.586c2.6.927,5.189,1.967,7.7,3.092a1.373,1.373,0,0,1-.561,2.627ZM158.158,88.37a1.373,1.373,0,0,1-.365-2.7c2.642-.728,5.359-1.368,8.075-1.9a1.373,1.373,0,0,1,.526,2.7c-2.647.517-5.295,1.139-7.87,1.85A1.382,1.382,0,0,1,158.158,88.37Zm56.659-.1a1.351,1.351,0,0,1-.362-.048c-2.593-.705-5.243-1.319-7.875-1.821a1.373,1.373,0,0,1,.516-2.7c2.7.517,5.42,1.146,8.081,1.869a1.373,1.373,0,0,1-.36,2.7Zm-40.6-3.028a1.373,1.373,0,0,1-.157-2.736c2.731-.317,5.513-.532,8.268-.639a1.372,1.372,0,1,1,.107,2.743c-2.686.106-5.4.316-8.058.624A1.341,1.341,0,0,1,174.221,85.243Zm24.522-.041q-.077,0-.155-.008c-2.664-.3-5.376-.5-8.063-.6a1.374,1.374,0,0,1-1.322-1.422,1.343,1.343,0,0,1,1.422-1.321c2.756.1,5.538.3,8.269.61a1.373,1.373,0,0,1-.151,2.738Z" transform="translate(-78.364 -81.851)" fill="#7f299b"/>
</svg>
