<svg xmlns="http://www.w3.org/2000/svg" width="213.068" height="213" viewBox="0 0 213.068 213">
  <path id="Path_1863" data-name="Path 1863" d="M483.834,296.921q-2.016,0-4.017-.075a1.35,1.35,0,0,1-1.3-1.4,1.322,1.322,0,0,1,1.4-1.3c2.64.1,5.316.094,7.956-.005a1.351,1.351,0,1,1,.1,2.7Q485.915,296.92,483.834,296.921Zm-12-.678a1.251,1.251,0,0,1-.153-.009c-2.694-.3-5.409-.719-8.066-1.229a1.351,1.351,0,0,1,.51-2.654c2.59.5,5.235.9,7.86,1.2a1.35,1.35,0,0,1-.151,2.692Zm24.115-.013a1.35,1.35,0,0,1-.152-2.692c2.631-.3,5.274-.71,7.858-1.208a1.35,1.35,0,1,1,.513,2.651c-2.651.513-5.364.929-8.063,1.24A1.283,1.283,0,0,1,495.953,296.23Zm-39.924-3.022a1.386,1.386,0,0,1-.357-.048c-2.624-.719-5.243-1.544-7.782-2.456a1.35,1.35,0,0,1,.912-2.542c2.475.888,5.026,1.694,7.583,2.392a1.351,1.351,0,0,1-.355,2.654Zm55.73-.033a1.35,1.35,0,0,1-.358-2.652c2.542-.7,5.093-1.506,7.58-2.4a1.351,1.351,0,0,1,.914,2.542c-2.553.918-5.17,1.747-7.778,2.462A1.36,1.36,0,0,1,511.76,293.174Zm-70.895-5.4a1.34,1.34,0,0,1-.552-.119c-2.479-1.109-4.941-2.33-7.317-3.623a1.35,1.35,0,1,1,1.291-2.371c2.316,1.26,4.715,2.448,7.131,3.531a1.35,1.35,0,0,1-.554,2.583Zm86.038-.044a1.351,1.351,0,0,1-.554-2.583c2.4-1.079,4.8-2.267,7.118-3.533a1.35,1.35,0,0,1,1.293,2.371c-2.382,1.3-4.839,2.519-7.3,3.626A1.34,1.34,0,0,1,526.9,287.729Zm-100.189-7.654a1.344,1.344,0,0,1-.733-.217c-2.28-1.476-4.525-3.057-6.676-4.7a1.35,1.35,0,0,1,1.639-2.146c2.1,1.6,4.284,3.14,6.505,4.578a1.35,1.35,0,0,1-.735,2.484Zm114.317-.046a1.351,1.351,0,0,1-.737-2.484c2.215-1.439,4.4-2.981,6.5-4.582a1.351,1.351,0,0,1,1.639,2.148c-2.152,1.642-4.394,3.223-6.667,4.7A1.336,1.336,0,0,1,541.03,280.029ZM413.906,270.31a1.343,1.343,0,0,1-.9-.341c-2.029-1.807-4.008-3.71-5.883-5.657a1.35,1.35,0,1,1,1.946-1.873c1.827,1.9,3.757,3.752,5.733,5.511a1.35,1.35,0,0,1-.9,2.359Zm139.918-.052a1.351,1.351,0,0,1-.9-2.358c1.975-1.764,3.9-3.62,5.729-5.518a1.351,1.351,0,1,1,1.946,1.874c-1.874,1.946-3.85,3.85-5.876,5.658A1.349,1.349,0,0,1,553.824,270.258ZM402.732,258.72a1.349,1.349,0,0,1-1.041-.489c-1.729-2.092-3.4-4.274-4.955-6.482a1.35,1.35,0,1,1,2.207-1.556c1.519,2.152,3.143,4.278,4.829,6.315a1.352,1.352,0,0,1-1.041,2.212Zm162.256-.062a1.352,1.352,0,0,1-1.041-2.211c1.684-2.04,3.308-4.167,4.827-6.324a1.351,1.351,0,0,1,2.209,1.557c-1.56,2.211-3.224,4.394-4.952,6.488A1.349,1.349,0,0,1,564.988,258.657Zm-171.535-13.09a1.351,1.351,0,0,1-1.161-.658c-1.388-2.325-2.7-4.733-3.907-7.157a1.35,1.35,0,0,1,2.418-1.2c1.175,2.362,2.457,4.71,3.81,6.976a1.35,1.35,0,0,1-1.159,2.042Zm180.81-.076a1.35,1.35,0,0,1-1.159-2.041c1.354-2.276,2.635-4.626,3.806-6.988a1.351,1.351,0,0,1,2.42,1.2c-1.2,2.424-2.517,4.837-3.906,7.171A1.347,1.347,0,0,1,574.264,245.491ZM386.29,231.163a1.353,1.353,0,0,1-1.253-.844c-1.016-2.51-1.946-5.094-2.765-7.677a1.35,1.35,0,1,1,2.574-.818c.8,2.518,1.705,5.036,2.7,7.481a1.351,1.351,0,0,1-1.251,1.857Zm195.132-.108a1.367,1.367,0,0,1-.5-.1,1.352,1.352,0,0,1-.747-1.759c.989-2.453,1.894-4.974,2.689-7.492a1.351,1.351,0,0,1,2.576.814c-.817,2.584-1.746,5.17-2.76,7.688A1.353,1.353,0,0,1,581.422,231.055Zm-200-15.237a1.35,1.35,0,0,1-1.313-1.042c-.617-2.632-1.14-5.326-1.554-8.009a1.351,1.351,0,0,1,2.67-.412c.4,2.614.913,5.24,1.514,7.8a1.352,1.352,0,0,1-1.007,1.624A1.445,1.445,0,0,1,381.42,215.819Zm204.857-.122a1.291,1.291,0,0,1-.308-.036,1.348,1.348,0,0,1-1.008-1.62c.6-2.57,1.1-5.2,1.5-7.809a1.35,1.35,0,1,1,2.669.41c-.409,2.68-.929,5.376-1.543,8.01A1.352,1.352,0,0,1,586.277,215.7ZM378.963,199.909a1.35,1.35,0,0,1-1.345-1.248c-.207-2.7-.313-5.439-.317-8.151a1.352,1.352,0,0,1,1.349-1.353h0a1.352,1.352,0,0,1,1.352,1.35c0,2.645.106,5.319.308,7.948a1.349,1.349,0,0,1-1.242,1.449C379.033,199.907,379,199.909,378.963,199.909Zm209.753-.122c-.034,0-.068,0-.1,0a1.351,1.351,0,0,1-1.245-1.449c.2-2.626.3-5.3.3-7.947v-.237a1.352,1.352,0,0,1,1.345-1.357h0a1.352,1.352,0,0,1,1.352,1.345v.254c0,2.711-.1,5.452-.308,8.146A1.351,1.351,0,0,1,588.716,199.787ZM378.947,183.811c-.033,0-.067,0-.1,0a1.349,1.349,0,0,1-1.246-1.447c.2-2.706.51-5.434.917-8.106a1.35,1.35,0,1,1,2.67.406c-.4,2.607-.7,5.264-.893,7.9A1.351,1.351,0,0,1,378.947,183.811Zm209.749-.366a1.352,1.352,0,0,1-1.346-1.245c-.205-2.637-.515-5.294-.919-7.9a1.35,1.35,0,1,1,2.669-.413c.415,2.67.733,5.4.945,8.1a1.352,1.352,0,0,1-1.242,1.452C588.765,183.443,588.729,183.445,588.7,183.445ZM381.367,167.9a1.348,1.348,0,0,1-1.317-1.656c.611-2.64,1.334-5.288,2.148-7.872a1.35,1.35,0,1,1,2.576.81c-.792,2.518-1.5,5.1-2.093,7.672A1.351,1.351,0,0,1,381.367,167.9Zm204.854-.358a1.351,1.351,0,0,1-1.314-1.041c-.6-2.569-1.319-5.147-2.12-7.664a1.351,1.351,0,0,1,2.574-.82c.823,2.583,1.554,5.23,2.174,7.864a1.349,1.349,0,0,1-1.315,1.661ZM386.2,152.532a1.351,1.351,0,0,1-1.253-1.854c1.01-2.515,2.132-5.024,3.336-7.455a1.35,1.35,0,1,1,2.42,1.2c-1.171,2.368-2.264,4.811-3.251,7.263A1.349,1.349,0,0,1,386.2,152.532Zm195.133-.331a1.35,1.35,0,0,1-1.251-.843c-.99-2.439-2.089-4.875-3.27-7.242a1.351,1.351,0,0,1,2.418-1.2c1.211,2.428,2.339,4.928,3.355,7.431a1.351,1.351,0,0,1-1.251,1.859Zm-187.993-14.11a1.335,1.335,0,0,1-.688-.19,1.35,1.35,0,0,1-.472-1.851c1.382-2.328,2.874-4.634,4.435-6.854a1.351,1.351,0,1,1,2.21,1.554c-1.52,2.163-2.976,4.411-4.322,6.679A1.354,1.354,0,0,1,393.342,138.092Zm180.815-.289a1.352,1.352,0,0,1-1.16-.657c-1.353-2.262-2.813-4.5-4.34-6.662a1.35,1.35,0,1,1,2.2-1.558c1.566,2.214,3.064,4.514,4.453,6.832a1.351,1.351,0,0,1-1.158,2.045ZM402.6,124.913a1.35,1.35,0,0,1-1.042-2.209c1.724-2.092,3.549-4.143,5.424-6.1a1.35,1.35,0,1,1,1.949,1.87c-1.828,1.9-3.607,3.9-5.288,5.944A1.344,1.344,0,0,1,402.6,124.913Zm162.257-.248a1.347,1.347,0,0,1-1.041-.489c-1.681-2.03-3.465-4.024-5.3-5.926a1.351,1.351,0,0,1,1.942-1.878c1.887,1.951,3.717,4,5.442,6.081a1.351,1.351,0,0,1-1.039,2.212ZM413.756,113.3a1.351,1.351,0,0,1-.9-2.358c2.018-1.8,4.133-3.552,6.285-5.2a1.35,1.35,0,1,1,1.642,2.144c-2.1,1.606-4.159,3.312-6.126,5.071A1.349,1.349,0,0,1,413.756,113.3Zm139.917-.214a1.349,1.349,0,0,1-.9-.341c-1.977-1.756-4.043-3.456-6.143-5.054a1.35,1.35,0,0,1,1.634-2.15c2.154,1.638,4.275,3.384,6.3,5.184a1.351,1.351,0,0,1-.9,2.361Zm-127.133-9.57a1.351,1.351,0,0,1-.738-2.482c2.271-1.477,4.626-2.884,7-4.184a1.35,1.35,0,1,1,1.3,2.37c-2.315,1.267-4.611,2.638-6.823,4.077A1.349,1.349,0,0,1,426.54,103.515Zm114.313-.179a1.343,1.343,0,0,1-.732-.216c-2.222-1.436-4.525-2.8-6.844-4.061a1.351,1.351,0,0,1,1.288-2.375c2.378,1.292,4.74,2.693,7.021,4.166a1.351,1.351,0,0,1-.734,2.485ZM440.658,95.8a1.351,1.351,0,0,1-.557-2.583c2.467-1.111,5.009-2.141,7.555-3.061a1.35,1.35,0,1,1,.918,2.539c-2.481.9-4.959,1.9-7.362,2.986A1.366,1.366,0,0,1,440.658,95.8Zm86.034-.141a1.327,1.327,0,0,1-.55-.118c-2.411-1.078-4.9-2.075-7.386-2.964a1.35,1.35,0,0,1,.908-2.543c2.555.912,5.106,1.935,7.58,3.042a1.351,1.351,0,0,1-.552,2.584Zm-70.9-5.32a1.351,1.351,0,0,1-.359-2.652c2.6-.718,5.27-1.345,7.942-1.866a1.351,1.351,0,1,1,.517,2.651c-2.6.507-5.208,1.119-7.74,1.818A1.37,1.37,0,0,1,455.792,90.335Zm55.734-.1a1.332,1.332,0,0,1-.356-.048c-2.551-.694-5.158-1.3-7.746-1.791a1.35,1.35,0,0,1,.506-2.652c2.657.507,5.332,1.126,7.951,1.838a1.351,1.351,0,0,1-.354,2.654Zm-39.934-2.978a1.35,1.35,0,0,1-.154-2.692c2.685-.313,5.423-.524,8.133-.63a1.351,1.351,0,1,1,.105,2.7c-2.642.1-5.31.309-7.928.612A1.088,1.088,0,0,1,471.592,87.259Zm24.122-.042q-.074,0-.152-.008c-2.619-.294-5.288-.491-7.93-.587a1.349,1.349,0,0,1-1.3-1.4,1.321,1.321,0,0,1,1.4-1.3c2.709.1,5.447.3,8.134.6a1.351,1.351,0,0,1-.15,2.693Z" transform="translate(-377.301 -83.921)" fill="#7f299b"/>
</svg>
