<svg xmlns="http://www.w3.org/2000/svg" xmlns:xlink="http://www.w3.org/1999/xlink" width="21.583" height="19.62" viewBox="0 0 21.583 19.62">
  <defs>
    <linearGradient id="linear-gradient" y1="0.5" x2="1" y2="0.5" gradientUnits="objectBoundingBox">
      <stop offset="0" stop-color="#4c1c7d"/>
      <stop offset="1" stop-color="#dc30b2"/>
    </linearGradient>
  </defs>
  <g id="wllet_top_right" data-name="wllet top right" transform="translate(-390.739 -284.061)">
    <path id="Path_194" data-name="Path 194" d="M410.181,288.266H394.112a.7.7,0,0,1,0-1.4H410.3a.687.687,0,0,0,.674-.7v0a2.061,2.061,0,0,0-2.017-2.1H393.438a2.747,2.747,0,0,0-2.7,2.795v14.023a2.747,2.747,0,0,0,2.69,2.8h16.751a2.123,2.123,0,0,0,2.142-2.1V290.368A2.124,2.124,0,0,0,410.181,288.266Zm-1.905,9.11a1.4,1.4,0,1,1,1.348-1.456v.054a1.374,1.374,0,0,1-1.346,1.4h0Z" transform="translate(0 0)" fill="url(#linear-gradient)"/>
  </g>
</svg>
