<svg xmlns="http://www.w3.org/2000/svg" width="17.742" height="14.394" viewBox="0 0 17.742 14.394">
  <g id="Group_207" data-name="Group 207" transform="translate(-525.509 -306.724)">
    <g id="Group_188" data-name="Group 188">
      <g id="Path_50" data-name="Path 50">
        <path id="Path_282" data-name="Path 282" d="M535.789,320.105h-8.114a2.168,2.168,0,0,1-2.166-2.166v-9.048a2.17,2.17,0,0,1,2.166-2.167h13.41a2.17,2.17,0,0,1,2.166,2.167v6.794a.407.407,0,0,1-.407.409h0a.409.409,0,0,1-.409-.409v-6.794a1.351,1.351,0,0,0-1.35-1.35h-13.41a1.352,1.352,0,0,0-1.35,1.35v9.048a1.354,1.354,0,0,0,1.35,1.351h8.114a.408.408,0,0,1,0,.815Z" fill="#fff"/>
      </g>
    </g>
    <g id="Group_189" data-name="Group 189">
      <g id="Path_51" data-name="Path 51">
        <path id="Path_283" data-name="Path 283" d="M538.317,321.118a.407.407,0,0,1-.288-.114l-3.665-3.665a.408.408,0,0,1,.289-.7h1.757v-3.858a.409.409,0,0,1,.408-.409h2.971a.409.409,0,0,1,.407.409v3.852h1.757a.408.408,0,0,1,.289.7L538.6,321a.4.4,0,0,1-.288.12Zm-2.679-3.664,2.679,2.677,2.658-2.677H539.79a.408.408,0,0,1-.408-.408v-3.853h-2.154v3.853a.408.408,0,0,1-.408.408Z" fill="#fff"/>
      </g>
    </g>
  </g>
</svg>
