<svg xmlns="http://www.w3.org/2000/svg" xmlns:xlink="http://www.w3.org/1999/xlink" width="86.511" height="80.781" viewBox="0 0 86.511 80.781">
  <defs>
    <clipPath id="clip-path">
      <rect id="Rectangle_104-2" data-name="Rectangle 104-2" width="86.511" height="80.781" rx="15" transform="translate(7860.183 -772.907)" fill="#f7941d"/>
    </clipPath>
    <linearGradient id="linear-gradient" x1="-441.644" y1="55.4" x2="-441.637" y2="55.4" gradientUnits="objectBoundingBox">
      <stop offset="0" stop-color="#ffd26d"/>
      <stop offset="1" stop-color="#ffc412"/>
    </linearGradient>
    <linearGradient id="linear-gradient-2" x1="-1402.875" y1="596.325" x2="-1402.528" y2="596.325" xlink:href="#linear-gradient"/>
    <linearGradient id="linear-gradient-3" x1="-509.703" y1="62.353" x2="-509.694" y2="62.353" xlink:href="#linear-gradient"/>
    <linearGradient id="linear-gradient-4" x1="-1404.004" y1="566.565" x2="-1403.707" y2="566.565" xlink:href="#linear-gradient"/>
    <linearGradient id="linear-gradient-5" x1="-339.307" y1="45.156" x2="-339.303" y2="45.156" xlink:href="#linear-gradient"/>
    <linearGradient id="linear-gradient-6" x1="-393.302" y1="50.81" x2="-393.296" y2="50.81" xlink:href="#linear-gradient"/>
    <linearGradient id="linear-gradient-7" x1="-518.969" y1="73.607" x2="-518.96" y2="73.607" xlink:href="#linear-gradient"/>
    <linearGradient id="linear-gradient-8" x1="-596.599" y1="82.822" x2="-596.586" y2="82.822" xlink:href="#linear-gradient"/>
  </defs>
  <g id="Group_394" data-name="Group 394" transform="translate(-3382.287 -1083.021)">
    <g id="Group_366" data-name="Group 366" transform="translate(-4477.896 1855.928)" clip-path="url(#clip-path)">
      <rect id="Rectangle_104-2-2" data-name="Rectangle 104-2" width="86.511" height="80.781" rx="15" transform="translate(7860.183 -772.907)" fill="#f7941d"/>
      <g id="Group_365" data-name="Group 365">
        <line id="Line_13-2" data-name="Line 13-2" x1="4.921" y2="4.921" transform="translate(7854.391 -699.787)" fill="none" stroke="#ffc933" stroke-linecap="round" stroke-linejoin="round" stroke-width="1.153"/>
        <line id="Line_14-2" data-name="Line 14-2" x1="5.247" y2="5.247" transform="translate(7861.491 -707.211)" fill="none" stroke="#ffc933" stroke-linecap="round" stroke-linejoin="round" stroke-width="1.153"/>
        <line id="Line_19-2" data-name="Line 19-2" x1="10.402" y2="10.402" transform="translate(7856.365 -700.23)" fill="none" stroke="#ffc933" stroke-linecap="round" stroke-linejoin="round" stroke-width="1.153"/>
        <line id="Line_20-2" data-name="Line 20-2" x1="2.416" y2="2.416" transform="translate(7868.945 -704.824)" fill="none" stroke="#ffc933" stroke-linecap="round" stroke-linejoin="round" stroke-width="1.153"/>
        <line id="Line_23-2" data-name="Line 23-2" x1="3.51" y2="3.51" transform="translate(7860.371 -692.668)" fill="none" stroke="#ffc933" stroke-linecap="round" stroke-linejoin="round" stroke-width="1.153"/>
        <line id="Line_24-2" data-name="Line 24-2" x1="6.818" y2="6.818" transform="translate(7866.431 -702.037)" fill="none" stroke="#ffc933" stroke-linecap="round" stroke-linejoin="round" stroke-width="1.153"/>
        <line id="Line_27-2" data-name="Line 27-2" x1="1.844" y2="1.844" transform="translate(7865.896 -691.854)" fill="none" stroke="#ffc933" stroke-linecap="round" stroke-linejoin="round" stroke-width="1.153"/>
        <line id="Line_28-2" data-name="Line 28-2" x1="4.676" y2="4.676" transform="translate(7869.848 -698.637)" fill="none" stroke="#ffc933" stroke-linecap="round" stroke-linejoin="round" stroke-width="1.153"/>
        <g id="Group_269-3" data-name="Group 269-3">
          <line id="Line_9-2" data-name="Line 9-2" x1="0.808" y2="0.808" transform="translate(7857.593 -703.549)" fill="none" stroke="#fff" stroke-linecap="round" stroke-linejoin="round" stroke-width="1"/>
          <line id="Line_10-2" data-name="Line 10-2" x1="1.485" y2="1.485" transform="translate(7859.689 -706.322)" fill="none" stroke="#fff" stroke-linecap="round" stroke-linejoin="round" stroke-width="1"/>
          <line id="Line_11-2" data-name="Line 11-2" x1="5.593" y2="5.593" transform="translate(7855.402 -703.806)" fill="none" stroke="#fff" stroke-linecap="round" stroke-linejoin="round" stroke-width="1"/>
          <line id="Line_12-2" data-name="Line 12-2" x1="1.134" y2="1.134" transform="translate(7862.712 -706.658)" fill="none" stroke="#fff" stroke-linecap="round" stroke-linejoin="round" stroke-width="1"/>
          <line id="Line_15-2" data-name="Line 15-2" x1="8.686" y2="8.686" transform="translate(7856.275 -703.098)" fill="none" stroke="#fff" stroke-linecap="round" stroke-linejoin="round" stroke-width="1"/>
          <line id="Line_16-2" data-name="Line 16-2" x1="1.839" y2="1.839" transform="translate(7866.714 -706.689)" fill="none" stroke="#fff" stroke-linecap="round" stroke-linejoin="round" stroke-width="1"/>
          <line id="Line_17-2" data-name="Line 17-2" x1="2.088" y2="2.088" transform="translate(7858.039 -695.927)" fill="none" stroke="#fff" stroke-linecap="round" stroke-linejoin="round" stroke-width="1"/>
          <line id="Line_18-2" data-name="Line 18-2" x1="10.648" y2="10.648" transform="translate(7862.323 -708.77)" fill="none" stroke="#fff" stroke-linecap="round" stroke-linejoin="round" stroke-width="1"/>
          <line id="Line_21-2" data-name="Line 21-2" x1="6.72" y2="6.72" transform="translate(7860.366 -698.211)" fill="none" stroke="#fff" stroke-linecap="round" stroke-linejoin="round" stroke-width="1"/>
          <line id="Line_22-2" data-name="Line 22-2" x1="4.965" y2="4.965" transform="translate(7868.98 -705.07)" fill="none" stroke="#fff" stroke-linecap="round" stroke-linejoin="round" stroke-width="1"/>
          <line id="Line_25-2" data-name="Line 25-2" x1="4.741" y2="4.741" transform="translate(7864.876 -696.068)" fill="none" stroke="#fff" stroke-linecap="round" stroke-linejoin="round" stroke-width="1"/>
          <line id="Line_26-2" data-name="Line 26-2" x1="3.546" y2="3.546" transform="translate(7871.477 -701.474)" fill="none" stroke="#fff" stroke-linecap="round" stroke-linejoin="round" stroke-width="1"/>
          <line id="Line_29-2" data-name="Line 29-2" x1="1.133" y2="1.133" transform="translate(7869.903 -692.813)" fill="none" stroke="#fff" stroke-linecap="round" stroke-linejoin="round" stroke-width="1"/>
          <line id="Line_30-2" data-name="Line 30-2" x1="0.782" y2="0.782" transform="translate(7872.245 -694.802)" fill="none" stroke="#fff" stroke-linecap="round" stroke-linejoin="round" stroke-width="1"/>
        </g>
      </g>
    </g>
    <path id="Path_319-2" data-name="Path 319-2" d="M7936.144-706.135a1.519,1.519,0,0,0-.324-.278,1.572,1.572,0,0,0-.536-.221,1.657,1.657,0,0,0-.322-.032h-4.028a1.582,1.582,0,0,0-1.582,1.582v4.563a1.509,1.509,0,0,0,.016.216,1.564,1.564,0,0,0,.135.457,1.6,1.6,0,0,0,.333.469l1.344,1.3.509.49.16.155a1.582,1.582,0,0,0,2.195,0l2.014-1.942a1.581,1.581,0,0,0,.484-1.138v-4.564A1.574,1.574,0,0,0,7936.144-706.135Zm-.144,4.459v1.155a1.049,1.049,0,0,1-.318.747l-2.014,1.941a1.04,1.04,0,0,1-.72.293,1.036,1.036,0,0,1-.72-.293l-.143-.138-.508-.49-1.363-1.313a1.059,1.059,0,0,1-.281-.481,1.048,1.048,0,0,1-.036-.266v-4.564a1.039,1.039,0,0,1,1.038-1.038h4.027a1.014,1.014,0,0,1,.444.1,1.04,1.04,0,0,1,.342.26,1.035,1.035,0,0,1,.251.676v3.409Z" transform="translate(-4477.896 1855.928)" fill="url(#linear-gradient)"/>
    <path id="Path_320-2" data-name="Path 320-2" d="M7933.081-702.769a.424.424,0,0,0,.305-.11.427.427,0,0,0,.117-.327.439.439,0,0,0-.11-.323l0-.006a.415.415,0,0,0-.3-.113h-.574v.879Z" transform="translate(-4477.896 1855.928)" fill="url(#linear-gradient-2)"/>
    <path id="Path_321-2" data-name="Path 321-2" d="M7935.75-705.76a1.039,1.039,0,0,0-.341-.261,1.025,1.025,0,0,0-.445-.1h-4.027a1.039,1.039,0,0,0-1.038,1.038v4.563a1.044,1.044,0,0,0,.037.266,1.036,1.036,0,0,0,.281.481l1.362,1.313.508.49.143.138a1.032,1.032,0,0,0,.72.293,1.031,1.031,0,0,0,.721-.293l2.013-1.941a1.041,1.041,0,0,0,.318-.747v-4.563A1.032,1.032,0,0,0,7935.75-705.76Zm-1.589,5.134a1.1,1.1,0,0,1-.569.26c-.046.007-.092.014-.14.018v.606h-.5v-.6h-.261v.6h-.5v-.6h-.555v-4.06h.555v-.6h.5v.6h.261v-.6h.5v.616a1.421,1.421,0,0,1,.182.04,1.084,1.084,0,0,1,.4.209l.039.034a.994.994,0,0,1,.325.761.924.924,0,0,1-.712.931.871.871,0,0,1,.578.341,1.072,1.072,0,0,1,.215.665,1.317,1.317,0,0,1-.017.211.934.934,0,0,1-.3.563Z" transform="translate(-4477.896 1855.928)" fill="url(#linear-gradient-3)"/>
    <path id="Path_322-2" data-name="Path 322-2" d="M7933.179-702.017h-.671v.925h.66a.4.4,0,0,0,.3-.121.466.466,0,0,0,.117-.336.5.5,0,0,0-.113-.341A.372.372,0,0,0,7933.179-702.017Z" transform="translate(-4477.896 1855.928)" fill="url(#linear-gradient-4)"/>
    <path id="Path_325-2" data-name="Path 325-2" d="M7872.182-742.59a2.079,2.079,0,0,0-.415-.372,2.066,2.066,0,0,0-.689-.3,2.116,2.116,0,0,0-.468-.055h-5.273a2.069,2.069,0,0,0-2.07,2.07h0v5.973a2.049,2.049,0,0,0,.027.332,2.1,2.1,0,0,0,.189.586,2.059,2.059,0,0,0,.417.571l1.79,1.726.665.644.18.176a2.07,2.07,0,0,0,2.871,0l2.637-2.541a2.063,2.063,0,0,0,.633-1.489v-5.973A2.051,2.051,0,0,0,7872.182-742.59Zm-.216,5.859v1.454a1.361,1.361,0,0,1-.415.978l-2.637,2.54a1.348,1.348,0,0,1-.942.38,1.355,1.355,0,0,1-.943-.38l-.156-.151-.666-.645-1.816-1.747a1.365,1.365,0,0,1-.356-.586,1.353,1.353,0,0,1-.059-.4v-5.972a1.361,1.361,0,0,1,1.358-1.359h5.274a1.356,1.356,0,0,1,.621.152,1.35,1.35,0,0,1,.434.352,1.345,1.345,0,0,1,.3.852v4.527Z" transform="translate(-4477.896 1855.928)" fill="url(#linear-gradient-5)"/>
    <path id="Path_326-2" data-name="Path 326-2" d="M7871.664-742.1a1.361,1.361,0,0,0-.435-.351,1.345,1.345,0,0,0-.622-.152h-5.273a1.358,1.358,0,0,0-1.358,1.358v5.972a1.353,1.353,0,0,0,.059.395,1.355,1.355,0,0,0,.356.586l1.813,1.747.666.642.157.151a1.352,1.352,0,0,0,.942.38,1.354,1.354,0,0,0,.943-.38l2.636-2.54a1.368,1.368,0,0,0,.416-.978v-5.973A1.357,1.357,0,0,0,7871.664-742.1Zm-1.32,5.993-.576,1.322h-3.206a.755.755,0,0,1-.755-.754h0a.75.75,0,0,1,.074-.326l.629-1.315-.053.01-.858.152v-.928l1.069-.189.326-.059.22-.46.832-1.74.252-.528h1.464l-.54,1.129-.628,1.313,1.172-.207v.928l-1.658.292-.649,1.357h2.883Z" transform="translate(-4477.896 1855.928)" fill="url(#linear-gradient-6)"/>
    <path id="Path_323-2" data-name="Path 323-2" d="M7934.28-764.952a1.286,1.286,0,0,0-.273-.228,1.3,1.3,0,0,0-.45-.176,1.306,1.306,0,0,0-.249-.024h-3.347a1.314,1.314,0,0,0-1.314,1.314v3.792a1.178,1.178,0,0,0,.01.161,1.3,1.3,0,0,0,.108.383,1.312,1.312,0,0,0,.284.4l1.106,1.065.423.411.144.139a1.313,1.313,0,0,0,1.824,0l1.674-1.613a1.313,1.313,0,0,0,.4-.946v-3.792A1.315,1.315,0,0,0,7934.28-764.952Zm-.11,3.7v.981a.865.865,0,0,1-.263.621l-1.674,1.613a.859.859,0,0,1-.6.241.854.854,0,0,1-.6-.241l-.13-.126-.423-.41-1.121-1.08a.866.866,0,0,1-.237-.418.815.815,0,0,1-.026-.2v-3.792a.863.863,0,0,1,.862-.862h3.346a.872.872,0,0,1,.352.077.864.864,0,0,1,.288.212.859.859,0,0,1,.22.573v2.813Z" transform="translate(-4477.896 1855.928)" fill="url(#linear-gradient-7)"/>
    <path id="Path_324-2" data-name="Path 324-2" d="M7933.95-764.641a.881.881,0,0,0-.288-.213.851.851,0,0,0-.351-.076h-3.347a.861.861,0,0,0-.862.861v3.792a.864.864,0,0,0,.025.2.87.87,0,0,0,.238.417l1.121,1.081.423.41.129.125a.866.866,0,0,0,.6.241.859.859,0,0,0,.6-.241l1.674-1.613a.866.866,0,0,0,.263-.622v-3.791A.858.858,0,0,0,7933.95-764.641Zm-2.988,1.738.672-1.311.234.454.209.407.167.327.666,1.3-1.275.795-.966-.6-.308-.193h0Zm.672,3.95-.246-.479-.96-1.875-.016-.032.029.019,1.193.744,1.222-.762-.514,1Z" transform="translate(-4477.896 1855.928)" fill="url(#linear-gradient-8)"/>
    <path id="Path_401" data-name="Path 401" d="M7880.336-721.987v-2.219l-1.835-3.047h1.171l.7,1.374c.2.4.343.663.5,1.008h.016c.145-.318.309-.621.5-1l.721-1.378h1.157l-1.934,3.022v2.244Z" transform="translate(-4477.896 1855.928)" fill="#fff"/>
    <path id="Path_402" data-name="Path 402" d="M7884.787-727.253v5.266h-1v-5.266Z" transform="translate(-4477.896 1855.928)" fill="#fff"/>
    <path id="Path_403" data-name="Path 403" d="M7889.179-724.3h-2.228v1.5h2.485v.814h-3.49v-5.266h3.366v.814h-2.361v1.323h2.228Z" transform="translate(-4477.896 1855.928)" fill="#fff"/>
    <path id="Path_404" data-name="Path 404" d="M7890.328-727.253h1v4.425h2.419v.841h-3.424Z" transform="translate(-4477.896 1855.928)" fill="#fff"/>
    <path id="Path_405" data-name="Path 405" d="M7894.524-727.183a12.415,12.415,0,0,1,1.734-.117,3.652,3.652,0,0,1,2.407.666,2.264,2.264,0,0,1,.869,1.874,2.669,2.669,0,0,1-.865,2.051,4.056,4.056,0,0,1-2.667.778,12.224,12.224,0,0,1-1.478-.074Zm1,4.44a4.637,4.637,0,0,0,.647.029c1.475.009,2.291-.755,2.291-2,.007-1.151-.772-1.814-2.143-1.814a4.065,4.065,0,0,0-.8.066Z" transform="translate(-4477.896 1855.928)" fill="#fff"/>
    <path id="Path_406" data-name="Path 406" d="M7902.156-727.253h3.34v.814h-2.335v1.412h2.168v.814h-2.168v2.226h-1.005Z" transform="translate(-4477.896 1855.928)" fill="#fff"/>
    <path id="Path_407" data-name="Path 407" d="M7907.012-723.514l-.505,1.527h-1.056l1.863-5.266h1.308l1.919,5.266h-1.106l-.542-1.527Zm1.7-.752-.479-1.327c-.114-.32-.207-.636-.294-.921h-.016c-.082.288-.163.607-.267.915l-.465,1.333Z" transform="translate(-4477.896 1855.928)" fill="#fff"/>
    <path id="Path_408" data-name="Path 408" d="M7911.311-727.183a10.354,10.354,0,0,1,1.61-.117,2.652,2.652,0,0,1,1.731.438,1.31,1.31,0,0,1,.473,1.055,1.39,1.39,0,0,1-1,1.309v.025a1.378,1.378,0,0,1,.756.99,13.67,13.67,0,0,0,.447,1.5H7914.3a6.535,6.535,0,0,1-.383-1.23c-.167-.687-.436-.91-1.025-.926h-.583v2.156h-1Zm1,2.313h.687c.7,0,1.135-.328,1.135-.848,0-.59-.469-.834-1.118-.834a3.318,3.318,0,0,0-.7.055Z" transform="translate(-4477.896 1855.928)" fill="#fff"/>
    <path id="Path_409" data-name="Path 409" d="M7920.94-724.174c-.033-.71-.067-1.561-.067-2.324h-.02c-.2.669-.445,1.4-.705,2.125l-.85,2.323h-.8l-.759-2.3c-.23-.722-.432-1.459-.586-2.146h-.016c-.027.721-.058,1.61-.1,2.358l-.124,2.153h-.954l.351-5.266h1.389l.746,2.109c.2.6.38,1.252.514,1.836h.024c.159-.57.361-1.244.582-1.841l.808-2.1h1.365l.3,5.266h-1Z" transform="translate(-4477.896 1855.928)" fill="#fff"/>
    <path id="Path_410" data-name="Path 410" d="M7924.082-727.253v5.266h-1.006v-5.266Z" transform="translate(-4477.896 1855.928)" fill="#fff"/>
    <path id="Path_411" data-name="Path 411" d="M7925.24-721.987v-5.266h1.209l1.521,2.264a13.676,13.676,0,0,1,.99,1.8l.02-.007a18.6,18.6,0,0,1-.085-2.1v-1.954h.94v5.266h-1.072l-1.536-2.342a19.893,19.893,0,0,1-1.066-1.864l-.028.007c.039.709.047,1.387.047,2.178v2.021Z" transform="translate(-4477.896 1855.928)" fill="#fff"/>
    <path id="Path_412" data-name="Path 412" d="M7935.708-722.262a6.1,6.1,0,0,1-1.922.33,3.2,3.2,0,0,1-2.306-.764,2.54,2.54,0,0,1-.766-1.874c0-1.568,1.227-2.738,3.207-2.738a4.084,4.084,0,0,1,1.593.279l-.232.793a3.313,3.313,0,0,0-1.4-.258,1.875,1.875,0,0,0-2.116,1.855,1.877,1.877,0,0,0,2.073,1.9,2.3,2.3,0,0,0,.876-.125v-1.262h-1.048v-.78h2.036Z" transform="translate(-4477.896 1855.928)" fill="#fff"/>
    <path id="Path_440" data-name="Path 440" d="M7915.582-744.577v5.227c0,.5-.071.571-.585.571h-1.671c-.671,0-.711-.038-.711-.7v-10.242c0-.082,0-.163,0-.244.012-.331.112-.437.44-.439.688,0,1.377,0,2.066,0,.371,0,.459.093.459.474Q7915.583-747.252,7915.582-744.577Z" transform="translate(-4477.896 1855.928)" fill="#fff"/>
    <path id="Path_441" data-name="Path 441" d="M7910.768-743.336q0,2.005,0,4.011c0,.453-.094.545-.555.546-.648,0-1.3,0-1.944,0-.358,0-.471-.115-.471-.474q0-4.072,0-8.145c0-.375.11-.484.491-.486.669,0,1.337,0,2.006,0,.356,0,.472.118.472.475C7910.77-746.051,7910.768-744.694,7910.768-743.336Z" transform="translate(-4477.896 1855.928)" fill="#fff"/>
    <path id="Path_442" data-name="Path 442" d="M7912.379-757.106a1.331,1.331,0,0,1,.151.063c.151.085.3.177.451.258a.216.216,0,0,0,.14.01.353.353,0,0,0,.3-.338,2.459,2.459,0,0,1,.091-.355.22.22,0,0,1,.234-.176c.233,0,.466,0,.7,0a.217.217,0,0,1,.238.185c.046.167.085.336.137.5a.243.243,0,0,0,.1.115.345.345,0,0,0,.449-.027,2.53,2.53,0,0,1,.315-.187.211.211,0,0,1,.28.034c.17.169.34.34.51.511a.22.22,0,0,1,.03.291c-.09.153-.183.3-.266.461a.22.22,0,0,0-.008.14.346.346,0,0,0,.326.3,2.945,2.945,0,0,1,.366.094.219.219,0,0,1,.178.232c0,.233,0,.466,0,.7a.22.22,0,0,1-.192.245q-.24.066-.48.125a.21.21,0,0,0-.144.119.346.346,0,0,0,.033.419,3.347,3.347,0,0,1,.192.326.221.221,0,0,1-.038.291l-.5.5a.218.218,0,0,1-.29.035c-.15-.087-.3-.176-.449-.262a.342.342,0,0,0-.406.164c-.046.167-.09.335-.137.5a.211.211,0,0,1-.237.184q-.348,0-.7,0a.212.212,0,0,1-.238-.184c-.045-.159-.086-.319-.129-.479a.319.319,0,0,0-.43-.174c-.133.077-.266.155-.4.231-.156.09-.224.08-.355-.05q-.222-.22-.443-.444c-.127-.127-.136-.191-.048-.344.078-.137.158-.273.236-.41a.321.321,0,0,0-.184-.428l-.456-.121a.226.226,0,0,1-.2-.261q0-.332,0-.663c0-.164.043-.218.2-.261s.322-.081.478-.133a.287.287,0,0,0,.129-.115.324.324,0,0,0-.028-.418,2.837,2.837,0,0,1-.192-.325.214.214,0,0,1,.034-.281c.17-.171.338-.343.511-.51A.729.729,0,0,1,7912.379-757.106Zm4,.752a.327.327,0,0,0-.041-.06c-.161-.162-.321-.326-.487-.484a.123.123,0,0,0-.11-.009,1.69,1.69,0,0,0-.286.167.5.5,0,0,1-.608.05.332.332,0,0,1-.19-.22c-.038-.161-.085-.32-.126-.48-.015-.06-.039-.095-.111-.094-.221.005-.442,0-.662.005a.132.132,0,0,0-.095.074,1.362,1.362,0,0,0-.088.318.5.5,0,0,1-.407.468.3.3,0,0,1-.259-.017c-.148-.09-.3-.173-.448-.264a.1.1,0,0,0-.143.013c-.15.157-.3.31-.459.462a.1.1,0,0,0-.019.144c.059.093.1.2.169.284a.489.489,0,0,1,.049.588.349.349,0,0,1-.23.2c-.161.038-.32.085-.48.125a.1.1,0,0,0-.092.114c0,.217,0,.434,0,.651a.1.1,0,0,0,.092.113,3.063,3.063,0,0,0,.319.083.491.491,0,0,1,.455.391.323.323,0,0,1-.02.281c-.088.144-.169.293-.257.438a.1.1,0,0,0,.013.145c.159.154.311.314.472.465a.131.131,0,0,0,.12.014,1.485,1.485,0,0,0,.285-.167.485.485,0,0,1,.6-.049.336.336,0,0,1,.19.221c.038.157.084.312.122.469.018.069.046.107.127.1.213-.005.426,0,.639,0a.1.1,0,0,0,.116-.087,3.115,3.115,0,0,0,.081-.308.5.5,0,0,1,.409-.467.308.308,0,0,1,.259.017c.148.09.3.18.45.26a.143.143,0,0,0,.131-.006c.164-.153.323-.313.477-.476a.137.137,0,0,0,.014-.121,1.59,1.59,0,0,0-.165-.286.5.5,0,0,1-.045-.619.3.3,0,0,1,.195-.169c.169-.041.334-.093.5-.133a.1.1,0,0,0,.094-.123q-.005-.32,0-.639a.1.1,0,0,0-.09-.117c-.1-.024-.206-.052-.308-.079-.409-.112-.312-.064-.467-.406a.253.253,0,0,1,.015-.258c.088-.145.171-.292.256-.439C7916.352-756.3,7916.364-756.324,7916.379-756.354Z" transform="translate(-4477.896 1855.928)" fill="#fff"/>
    <path id="Path_443" data-name="Path 443" d="M7908.888-751.414c-.163-.182-.313-.342-.454-.507s-.1-.295.133-.329c.719-.1,1.439-.21,2.159-.309.308-.043.384.049.271.314q-.381.9-.767,1.795c-.109.253-.228.271-.418.067-.148-.16-.292-.322-.45-.5-.481.322-.946.642-1.421.951a40.153,40.153,0,0,1-13.434,5.559c-.3.065-.5-.019-.559-.228s.084-.347.372-.417l.048-.012c1.214-.321,2.446-.6,3.64-.97a38.358,38.358,0,0,0,10.774-5.33C7908.814-751.348,7908.841-751.375,7908.888-751.414Z" transform="translate(-4477.896 1855.928)" fill="#fff"/>
    <path id="Path_444" data-name="Path 444" d="M7902.986-742.341q0-1.536,0-3.071c0-.4.086-.483.48-.485.679,0,1.358,0,2.037,0,.328,0,.446.11.447.434q0,3.117,0,6.233c0,.323-.122.442-.443.445q-1.033.008-2.067,0c-.344,0-.453-.112-.454-.456Q7902.984-740.791,7902.986-742.341Z" transform="translate(-4477.896 1855.928)" fill="#fff"/>
    <path id="Path_445" data-name="Path 445" d="M7901.123-741.58c0,.77,0,1.54,0,2.311,0,.386-.1.484-.487.486-.669,0-1.338,0-2.006,0-.349,0-.462-.108-.462-.45q-.006-2.341,0-4.683c0-.327.115-.438.441-.44q1.033-.008,2.067,0c.338,0,.445.116.447.466C7901.125-743.121,7901.123-742.351,7901.123-741.58Z" transform="translate(-4477.896 1855.928)" fill="#fff"/>
    <path id="Path_446" data-name="Path 446" d="M7896.307-740.955c0,.578,0,1.155,0,1.733,0,.324-.114.439-.437.441q-1.049.008-2.1,0c-.3,0-.428-.122-.429-.426,0-1.175,0-2.351,0-3.526a.368.368,0,0,1,.414-.412c.709,0,1.418,0,2.127,0,.305,0,.421.121.423.425C7896.311-742.13,7896.307-741.542,7896.307-740.955Z" transform="translate(-4477.896 1855.928)" fill="#fff"/>
    <path id="Path_447" data-name="Path 447" d="M7915.517-754.635a1.423,1.423,0,0,1-1.431,1.414,1.431,1.431,0,0,1-1.414-1.435,1.423,1.423,0,0,1,1.435-1.41A1.415,1.415,0,0,1,7915.517-754.635Zm-.542-.566a.817.817,0,0,0-.782.784A.86.86,0,0,0,7914.975-755.2Zm-1.759,0c.023.41.449.824.792.777A.865.865,0,0,0,7913.216-755.2Zm1.761.541c-.042.032-.072.057-.1.079a3.659,3.659,0,0,1-.432.277.391.391,0,0,0-.244.458A.868.868,0,0,0,7914.977-754.663Zm-.977.812a.393.393,0,0,0-.194-.431,1.071,1.071,0,0,1-.5-.318.444.444,0,0,0-.085-.054A.85.85,0,0,0,7914-753.851Zm.1-1.85a.868.868,0,0,0-.205.6.127.127,0,0,0,.021.066c.06.086.123.171.193.267.054-.164.242-.255.2-.462A.981.981,0,0,0,7914.1-755.7Zm-.081,2.388h.159v-.375h-.159v.375Z" transform="translate(-4477.896 1855.928)" fill="#fff"/>
  </g>
</svg>
